<?xml version="1.0" encoding="UTF-8"?>
<svg id="base" xmlns="http://www.w3.org/2000/svg" width="150" height="150" viewBox="0 0 150 150">
  <g>
    <path d="M65.72,20.59c0,2-.76,2.77-1.71,2.77s-1.71-.77-1.71-2.77.76-4.48,1.71-4.48,1.71,2.48,1.71,4.48Z"/>
    <path d="M71.25,15.43c1.73,1,2.02,2.05,1.55,2.86s-1.52,1.09-3.25.09-3.5-2.9-3.03-3.72,3-.24,4.73.76Z"/>
    <path d="M69.54,8.06c1.73-1,2.78-.72,3.25.09s.19,1.86-1.55,2.86-4.26,1.58-4.73.76,1.29-2.72,3.03-3.72Z"/>
    <path d="M62.31,5.85c0-2,.76-2.77,1.71-2.77s1.71.77,1.71,2.77-.76,4.48-1.71,4.48-1.71-2.48-1.71-4.48Z"/>
    <path d="M56.78,11.02c-1.73-1-2.02-2.05-1.55-2.86s1.52-1.09,3.25-.09,3.5,2.9,3.03,3.72-3,.24-4.73-.76Z"/>
    <path d="M58.49,18.38c-1.73,1-2.78.72-3.25-.09s-.19-1.86,1.55-2.86,4.26-1.58,4.73-.76-1.29,2.72-3.03,3.72Z"/>
    <circle cx="64.01" cy="13.22" r="2.03"/>
  </g>
  <g>
    <path d="M38.72,24.59c0,2-.76,2.77-1.71,2.77s-1.71-.77-1.71-2.77.76-4.48,1.71-4.48,1.71,2.48,1.71,4.48Z"/>
    <path d="M44.25,19.43c1.73,1,2.02,2.05,1.55,2.86s-1.52,1.09-3.25.09-3.5-2.9-3.03-3.72,3-.24,4.73.76Z"/>
    <path d="M42.54,12.06c1.73-1,2.78-.72,3.25.09s.19,1.86-1.55,2.86-4.26,1.58-4.73.76,1.29-2.72,3.03-3.72Z"/>
    <path d="M35.31,9.85c0-2,.76-2.77,1.71-2.77s1.71.77,1.71,2.77-.76,4.48-1.71,4.48-1.71-2.48-1.71-4.48Z"/>
    <path d="M29.78,15.02c-1.73-1-2.02-2.05-1.55-2.86s1.52-1.09,3.25-.09,3.5,2.9,3.03,3.72-3,.24-4.73-.76Z"/>
    <path d="M31.49,22.38c-1.73,1-2.78.72-3.25-.09s-.19-1.86,1.55-2.86,4.26-1.58,4.73-.76-1.29,2.72-3.03,3.72Z"/>
    <circle cx="37.01" cy="17.22" r="2.03"/>
  </g>
  <g>
    <path d="M18.41,43.98c.47,1.95-.09,2.87-1.01,3.1s-1.84-.35-2.31-2.29-.31-4.53.61-4.75,2.24,2.01,2.71,3.95Z"/>
    <path d="M22.57,37.67c1.92.57,2.44,1.52,2.18,2.42s-1.22,1.42-3.14.85-4.08-2-3.81-2.9,2.86-.94,4.78-.37Z"/>
    <path d="M19.18,30.91c1.45-1.38,2.53-1.36,3.18-.68s.62,1.77-.83,3.15-3.77,2.53-4.42,1.85.62-2.94,2.07-4.32Z"/>
    <path d="M11.62,30.46c-.47-1.95.09-2.87,1.01-3.1s1.84.35,2.31,2.29.31,4.53-.61,4.75-2.24-2.01-2.71-3.95Z"/>
    <path d="M7.46,36.78c-1.92-.57-2.44-1.52-2.18-2.42s1.22-1.42,3.14-.85,4.08,2,3.81,2.9-2.86.94-4.78.37Z"/>
    <path d="M10.85,43.54c-1.45,1.38-2.53,1.36-3.18.68s-.62-1.77.83-3.15,3.77-2.53,4.42-1.85-.62,2.94-2.07,4.32Z"/>
    <circle cx="15.01" cy="37.22" r="2.03" transform="translate(-8.12 4.43) rotate(-13.23)"/>
  </g>
  <g>
    <path d="M88.12,29.79c-.42,1.96-1.33,2.55-2.25,2.35s-1.5-1.11-1.08-3.07,1.69-4.22,2.61-4.02,1.14,2.78.72,4.74Z"/>
    <path d="M94.62,25.91c1.48,1.34,1.54,2.43.91,3.13s-1.72.75-3.2-.6-2.8-3.57-2.17-4.27,2.98.4,4.46,1.74Z"/>
    <path d="M94.51,18.35c1.91-.61,2.87-.12,3.16.78s-.21,1.86-2.12,2.47-4.5.64-4.79-.26,1.84-2.38,3.74-2.99Z"/>
    <path d="M87.91,14.66c.42-1.96,1.33-2.55,2.25-2.35s1.5,1.11,1.08,3.07-1.69,4.22-2.61,4.02-1.14-2.78-.72-4.74Z"/>
    <path d="M81.41,18.54c-1.48-1.34-1.54-2.43-.91-3.13s1.72-.75,3.2.6,2.8,3.57,2.17,4.27-2.98-.4-4.46-1.74Z"/>
    <path d="M81.52,26.1c-1.91.61-2.87.12-3.16-.78s.21-1.86,2.12-2.47,4.5-.64,4.79.26-1.84,2.38-3.74,2.99Z"/>
    <circle cx="88.01" cy="22.22" r="2.03"/>
  </g>
  <g>
    <path d="M18.59,84.28c2,0,2.77.76,2.77,1.71s-.77,1.71-2.77,1.71-4.48-.76-4.48-1.71,2.48-1.71,4.48-1.71Z"/>
    <path d="M13.43,78.75c1-1.73,2.05-2.02,2.86-1.55s1.09,1.52.09,3.25-2.9,3.5-3.72,3.03-.24-3,.76-4.73Z"/>
    <path d="M6.06,80.46c-1-1.73-.72-2.78.09-3.25s1.86-.19,2.86,1.55,1.58,4.26.76,4.73-2.72-1.29-3.72-3.03Z"/>
    <path d="M3.85,87.69c-2,0-2.77-.76-2.77-1.71s.77-1.71,2.77-1.71,4.48.76,4.48,1.71-2.48,1.71-4.48,1.71Z"/>
    <path d="M9.02,93.22c-1,1.73-2.05,2.02-2.86,1.55s-1.09-1.52-.09-3.25,2.9-3.5,3.72-3.03.24,3-.76,4.73Z"/>
    <path d="M16.38,91.51c1,1.73.72,2.78-.09,3.25s-1.86.19-2.86-1.55-1.58-4.26-.76-4.73,2.72,1.29,3.72,3.03Z"/>
    <circle cx="11.22" cy="85.99" r="2.03"/>
  </g>
  <g>
    <path d="M22.59,111.28c2,0,2.77.76,2.77,1.71s-.77,1.71-2.77,1.71-4.48-.76-4.48-1.71,2.48-1.71,4.48-1.71Z"/>
    <path d="M17.43,105.75c1-1.73,2.05-2.02,2.86-1.55s1.09,1.52.09,3.25-2.9,3.5-3.72,3.03-.24-3,.76-4.73Z"/>
    <path d="M10.06,107.46c-1-1.73-.72-2.78.09-3.25s1.86-.19,2.86,1.55,1.58,4.26.76,4.73-2.72-1.29-3.72-3.03Z"/>
    <path d="M7.85,114.69c-2,0-2.77-.76-2.77-1.71s.77-1.71,2.77-1.71,4.48.76,4.48,1.71-2.48,1.71-4.48,1.71Z"/>
    <path d="M13.02,120.22c-1,1.73-2.05,2.02-2.86,1.55s-1.09-1.52-.09-3.25,2.9-3.5,3.72-3.03.24,3-.76,4.73Z"/>
    <path d="M20.38,118.51c1,1.73.72,2.78-.09,3.25s-1.86.19-2.86-1.55-1.58-4.26-.76-4.73,2.72,1.29,3.72,3.03Z"/>
    <circle cx="15.22" cy="112.99" r="2.03"/>
  </g>
  <g>
    <path d="M41.98,131.59c1.95-.47,2.87.09,3.1,1.01s-.35,1.84-2.29,2.31-4.53.31-4.75-.61,2.01-2.24,3.95-2.71Z"/>
    <path d="M35.67,127.43c.57-1.92,1.52-2.44,2.42-2.18s1.42,1.22.85,3.14-2,4.08-2.9,3.81-.94-2.86-.37-4.78Z"/>
    <path d="M28.91,130.82c-1.38-1.45-1.36-2.53-.68-3.18s1.77-.62,3.15.83,2.53,3.77,1.85,4.42-2.94-.62-4.32-2.07Z"/>
    <path d="M28.46,138.38c-1.95.47-2.87-.09-3.1-1.01s.35-1.84,2.29-2.31,4.53-.31,4.75.61-2.01,2.24-3.95,2.71Z"/>
    <path d="M34.78,142.54c-.57,1.92-1.52,2.44-2.42,2.18s-1.42-1.22-.85-3.14,2-4.08,2.9-3.81.94,2.86.37,4.78Z"/>
    <path d="M41.54,139.15c1.38,1.45,1.36,2.53.68,3.18s-1.77.62-3.15-.83-2.53-3.77-1.85-4.42,2.94.62,4.32,2.07Z"/>
    <circle cx="35.22" cy="134.99" r="2.03" transform="translate(-29.96 11.65) rotate(-13.23)"/>
  </g>
  <g>
    <path d="M27.79,61.88c1.96.42,2.55,1.33,2.35,2.25s-1.11,1.5-3.07,1.08-4.22-1.69-4.02-2.61,2.78-1.14,4.74-.72Z"/>
    <path d="M23.91,55.38c1.34-1.48,2.43-1.54,3.13-.91s.75,1.72-.6,3.2-3.57,2.8-4.27,2.17.4-2.98,1.74-4.46Z"/>
    <path d="M16.35,55.49c-.61-1.91-.12-2.87.78-3.16s1.86.21,2.47,2.12.64,4.5-.26,4.79-2.38-1.84-2.99-3.74Z"/>
    <path d="M12.66,62.09c-1.96-.42-2.55-1.33-2.35-2.25s1.11-1.5,3.07-1.08,4.22,1.69,4.02,2.61-2.78,1.14-4.74.72Z"/>
    <path d="M16.54,68.59c-1.34,1.48-2.43,1.54-3.13.91s-.75-1.72.6-3.2,3.57-2.8,4.27-2.17-.4,2.98-1.74,4.46Z"/>
    <path d="M24.1,68.48c.61,1.91.12,2.87-.78,3.16s-1.86-.21-2.47-2.12-.64-4.5.26-4.79,2.38,1.84,2.99,3.74Z"/>
    <circle cx="20.22" cy="61.99" r="2.03"/>
  </g>
  <g>
    <path d="M82.28,131.41c0-2,.76-2.77,1.71-2.77s1.71.77,1.71,2.77-.76,4.48-1.71,4.48-1.71-2.48-1.71-4.48Z"/>
    <path d="M76.75,136.57c-1.73-1-2.02-2.05-1.55-2.86s1.52-1.09,3.25-.09,3.5,2.9,3.03,3.72-3,.24-4.73-.76Z"/>
    <path d="M78.46,143.94c-1.73,1-2.78.72-3.25-.09s-.19-1.86,1.55-2.86,4.26-1.58,4.73-.76-1.29,2.72-3.03,3.72Z"/>
    <path d="M85.69,146.15c0,2-.76,2.77-1.71,2.77s-1.71-.77-1.71-2.77.76-4.48,1.71-4.48,1.71,2.48,1.71,4.48Z"/>
    <path d="M91.22,140.98c1.73,1,2.02,2.05,1.55,2.86s-1.52,1.09-3.25.09-3.5-2.9-3.03-3.72,3-.24,4.73.76Z"/>
    <path d="M89.51,133.62c1.73-1,2.78-.72,3.25.09s.19,1.86-1.55,2.86-4.26,1.58-4.73.76,1.29-2.72,3.03-3.72Z"/>
    <circle cx="83.99" cy="138.78" r="2.03"/>
  </g>
  <g>
    <path d="M109.28,127.41c0-2,.76-2.77,1.71-2.77s1.71.77,1.71,2.77-.76,4.48-1.71,4.48-1.71-2.48-1.71-4.48Z"/>
    <path d="M103.75,132.57c-1.73-1-2.02-2.05-1.55-2.86s1.52-1.09,3.25-.09,3.5,2.9,3.03,3.72-3,.24-4.73-.76Z"/>
    <path d="M105.46,139.94c-1.73,1-2.78.72-3.25-.09s-.19-1.86,1.55-2.86,4.26-1.58,4.73-.76-1.29,2.72-3.03,3.72Z"/>
    <path d="M112.69,142.15c0,2-.76,2.77-1.71,2.77s-1.71-.77-1.71-2.77.76-4.48,1.71-4.48,1.71,2.48,1.71,4.48Z"/>
    <path d="M118.22,136.98c1.73,1,2.02,2.05,1.55,2.86s-1.52,1.09-3.25.09-3.5-2.9-3.03-3.72,3-.24,4.73.76Z"/>
    <path d="M116.51,129.62c1.73-1,2.78-.72,3.25.09s.19,1.86-1.55,2.86-4.26,1.58-4.73.76,1.29-2.72,3.03-3.72Z"/>
    <circle cx="110.99" cy="134.78" r="2.03"/>
  </g>
  <g>
    <path d="M129.59,108.02c-.47-1.95.09-2.87,1.01-3.1s1.84.35,2.31,2.29.31,4.53-.61,4.75-2.24-2.01-2.71-3.95Z"/>
    <path d="M125.43,114.33c-1.92-.57-2.44-1.52-2.18-2.42s1.22-1.42,3.14-.85,4.08,2,3.81,2.9-2.86.94-4.78.37Z"/>
    <path d="M128.82,121.09c-1.45,1.38-2.53,1.36-3.18.68s-.62-1.77.83-3.15,3.77-2.53,4.42-1.85-.62,2.94-2.07,4.32Z"/>
    <path d="M136.38,121.54c.47,1.95-.09,2.87-1.01,3.1s-1.84-.35-2.31-2.29-.31-4.53.61-4.75,2.24,2.01,2.71,3.95Z"/>
    <path d="M140.54,115.22c1.92.57,2.44,1.52,2.18,2.42s-1.22,1.42-3.14.85-4.08-2-3.81-2.9,2.86-.94,4.78-.37Z"/>
    <path d="M137.15,108.46c1.45-1.38,2.53-1.36,3.18-.68s.62,1.77-.83,3.15-3.77,2.53-4.42,1.85.62-2.94,2.07-4.32Z"/>
    <circle cx="132.99" cy="114.78" r="2.03" transform="translate(-22.74 33.49) rotate(-13.23)"/>
  </g>
  <g>
    <path d="M59.88,122.21c.42-1.96,1.33-2.55,2.25-2.35s1.5,1.11,1.08,3.07-1.69,4.22-2.61,4.02-1.14-2.78-.72-4.74Z"/>
    <path d="M53.38,126.09c-1.48-1.34-1.54-2.43-.91-3.13s1.72-.75,3.2.6,2.8,3.57,2.17,4.27-2.98-.4-4.46-1.74Z"/>
    <path d="M53.49,133.65c-1.91.61-2.87.12-3.16-.78s.21-1.86,2.12-2.47,4.5-.64,4.79.26-1.84,2.38-3.74,2.99Z"/>
    <path d="M60.09,137.34c-.42,1.96-1.33,2.55-2.25,2.35s-1.5-1.11-1.08-3.07,1.69-4.22,2.61-4.02,1.14,2.78.72,4.74Z"/>
    <path d="M66.59,133.46c1.48,1.34,1.54,2.43.91,3.13s-1.72.75-3.2-.6-2.8-3.57-2.17-4.27,2.98.4,4.46,1.74Z"/>
    <path d="M66.48,125.9c1.91-.61,2.87-.12,3.16.78s-.21,1.86-2.12,2.47-4.5.64-4.79-.26,1.84-2.38,3.74-2.99Z"/>
    <circle cx="59.99" cy="129.78" r="2.03"/>
  </g>
  <g>
    <path d="M129.41,67.72c-2,0-2.77-.76-2.77-1.71s.77-1.71,2.77-1.71,4.48.76,4.48,1.71-2.48,1.71-4.48,1.71Z"/>
    <path d="M134.57,73.25c-1,1.73-2.05,2.02-2.86,1.55s-1.09-1.52-.09-3.25,2.9-3.5,3.72-3.03.24,3-.76,4.73Z"/>
    <path d="M141.94,71.54c1,1.73.72,2.78-.09,3.25s-1.86.19-2.86-1.55-1.58-4.26-.76-4.73,2.72,1.29,3.72,3.03Z"/>
    <path d="M144.15,64.31c2,0,2.77.76,2.77,1.71s-.77,1.71-2.77,1.71-4.48-.76-4.48-1.71,2.48-1.71,4.48-1.71Z"/>
    <path d="M138.98,58.78c1-1.73,2.05-2.02,2.86-1.55s1.09,1.52.09,3.25-2.9,3.5-3.72,3.03-.24-3,.76-4.73Z"/>
    <path d="M131.62,60.49c-1-1.73-.72-2.78.09-3.25s1.86-.19,2.86,1.55,1.58,4.26.76,4.73-2.72-1.29-3.72-3.03Z"/>
    <circle cx="136.78" cy="66.01" r="2.03"/>
  </g>
  <g>
    <path d="M125.41,40.72c-2,0-2.77-.76-2.77-1.71s.77-1.71,2.77-1.71,4.48.76,4.48,1.71-2.48,1.71-4.48,1.71Z"/>
    <path d="M130.57,46.25c-1,1.73-2.05,2.02-2.86,1.55s-1.09-1.52-.09-3.25,2.9-3.5,3.72-3.03.24,3-.76,4.73Z"/>
    <path d="M137.94,44.54c1,1.73.72,2.78-.09,3.25s-1.86.19-2.86-1.55-1.58-4.26-.76-4.73,2.72,1.29,3.72,3.03Z"/>
    <path d="M140.15,37.31c2,0,2.77.76,2.77,1.71s-.77,1.71-2.77,1.71-4.48-.76-4.48-1.71,2.48-1.71,4.48-1.71Z"/>
    <path d="M134.98,31.78c1-1.73,2.05-2.02,2.86-1.55s1.09,1.52.09,3.25-2.9,3.5-3.72,3.03-.24-3,.76-4.73Z"/>
    <path d="M127.62,33.49c-1-1.73-.72-2.78.09-3.25s1.86-.19,2.86,1.55,1.58,4.26.76,4.73-2.72-1.29-3.72-3.03Z"/>
    <circle cx="132.78" cy="39.01" r="2.03"/>
  </g>
  <g>
    <path d="M106.02,20.41c-1.95.47-2.87-.09-3.1-1.01s.35-1.84,2.29-2.31,4.53-.31,4.75.61-2.01,2.24-3.95,2.71Z"/>
    <path d="M112.33,24.57c-.57,1.92-1.52,2.44-2.42,2.18s-1.42-1.22-.85-3.14,2-4.08,2.9-3.81.94,2.86.37,4.78Z"/>
    <path d="M119.09,21.18c1.38,1.45,1.36,2.53.68,3.18s-1.77.62-3.15-.83-2.53-3.77-1.85-4.42,2.94.62,4.32,2.07Z"/>
    <path d="M119.54,13.62c1.95-.47,2.87.09,3.1,1.01s-.35,1.84-2.29,2.31-4.53.31-4.75-.61,2.01-2.24,3.95-2.71Z"/>
    <path d="M113.22,9.46c.57-1.92,1.52-2.44,2.42-2.18s1.42,1.22.85,3.14-2,4.08-2.9,3.81-.94-2.86-.37-4.78Z"/>
    <path d="M106.46,12.85c-1.38-1.45-1.36-2.53-.68-3.18s1.77-.62,3.15.83,2.53,3.77,1.85,4.42-2.94-.62-4.32-2.07Z"/>
    <circle cx="112.78" cy="17.01" r="2.03" transform="translate(-.9 26.27) rotate(-13.23)"/>
  </g>
  <g>
    <path d="M120.21,90.12c-1.96-.42-2.55-1.33-2.35-2.25s1.11-1.5,3.07-1.08,4.22,1.69,4.02,2.61-2.78,1.14-4.74.72Z"/>
    <path d="M124.09,96.62c-1.34,1.48-2.43,1.54-3.13.91s-.75-1.72.6-3.2,3.57-2.8,4.27-2.17-.4,2.98-1.74,4.46Z"/>
    <path d="M131.65,96.51c.61,1.91.12,2.87-.78,3.16s-1.86-.21-2.47-2.12-.64-4.5.26-4.79,2.38,1.84,2.99,3.74Z"/>
    <path d="M135.34,89.91c1.96.42,2.55,1.33,2.35,2.25s-1.11,1.5-3.07,1.08-4.22-1.69-4.02-2.61,2.78-1.14,4.74-.72Z"/>
    <path d="M131.46,83.41c1.34-1.48,2.43-1.54,3.13-.91s.75,1.72-.6,3.2-3.57,2.8-4.27,2.17.4-2.98,1.74-4.46Z"/>
    <path d="M123.9,83.52c-.61-1.91-.12-2.87.78-3.16s1.86.21,2.47,2.12.64,4.5-.26,4.79-2.38-1.84-2.99-3.74Z"/>
    <circle cx="127.78" cy="90.01" r="2.03"/>
  </g>
</svg>