<?xml version="1.0" encoding="UTF-8"?>
<svg id="base" xmlns="http://www.w3.org/2000/svg" width="150" height="150" viewBox="0 0 150 150">
  <g id="slice">
    <path d="M58.94,8.22c0-1.22-1.78-1.97-2.9-1.97-.94,0-2.06.46-2.06,1.41,0,1.22,1.78,1.97,2.9,1.97.94,0,2.06-.47,2.06-1.41ZM58.94,11.78c0-.94-1.13-1.41-2.06-1.41-1.22,0-3,.75-3,1.97,0,.94,1.13,1.41,2.06,1.41,1.22.09,3-.66,3-1.97ZM58.01,4.85c0,1.22,1.69,2.06,2.9,2.06.84,0,1.69-.38,1.69-1.22,0-1.22-1.68-2.07-2.91-2.07h0c-.84,0-1.68.47-1.68,1.22ZM60.91,13c-1.22,0-2.9.94-2.9,2.06,0,.84.84,1.22,1.68,1.22,1.22,0,2.9-.94,2.9-2.06,0-.84-.84-1.22-1.68-1.22h0ZM60.72,10c0,1.87,3,4.41,5.06,4.41.94,0,1.22-.66,1.22-1.41,0-1.13-.75-1.97-.75-3,0-.94.75-1.78.75-2.81,0-.75-.19-1.59-1.22-1.59-2.06,0-5.06,2.53-5.06,4.4h0Z"/>
  </g>
  <g id="slice-2" data-name="slice">
    <path d="M32.41,14.89c-.44-1.14-2.38-1.19-3.42-.78-.87.34-1.75,1.18-1.41,2.06.44,1.14,2.38,1.19,3.42.78.87-.34,1.75-1.19,1.41-2.06ZM33.71,18.2c-.34-.87-1.56-.9-2.43-.56-1.13.44-2.52,1.79-2.07,2.93.34.87,1.56.9,2.43.56,1.17-.36,2.55-1.71,2.07-2.93ZM30.31,12.09c.44,1.13,2.32,1.3,3.46.86.78-.31,1.43-.96,1.12-1.75-.44-1.14-2.32-1.31-3.46-.86h0c-.78.31-1.39,1.05-1.12,1.75ZM35.99,18.62c-1.14.44-2.36,1.93-1.95,2.98.31.78,1.23.83,2.01.52,1.14-.44,2.36-1.93,1.95-2.98-.3-.79-1.22-.83-2.01-.52h0ZM34.72,15.89c.68,1.74,4.4,3.01,6.32,2.25.87-.34.89-1.06.62-1.75-.41-1.05-1.42-1.56-1.79-2.52-.34-.87.05-1.93-.33-2.89-.27-.7-.76-1.42-1.72-1.04-1.92.75-3.79,4.2-3.1,5.95h0Z"/>
  </g>
  <g id="slice-3" data-name="slice">
    <path d="M10.34,41.1c-1.17-.35-2.41,1.13-2.73,2.21-.27.9-.15,2.11.75,2.38,1.17.35,2.41-1.13,2.73-2.21.27-.9.15-2.11-.75-2.38ZM13.75,42.13c-.9-.27-1.67.67-1.94,1.57-.35,1.17-.15,3.09,1.01,3.44.9.27,1.67-.67,1.94-1.57.44-1.14.24-3.06-1.01-3.44ZM6.84,41.02c1.17.35,2.46-1.02,2.82-2.18.24-.81.13-1.72-.68-1.97-1.16-.36-2.47,1.01-2.82,2.18h0c-.24.8-.04,1.75.68,1.97ZM15.49,40.61c-.35,1.17.05,3.05,1.13,3.38.81.24,1.41-.45,1.65-1.26.35-1.17-.05-3.05-1.13-3.38-.8-.25-1.41.45-1.65,1.25h0ZM12.56,39.92c1.79.54,5.09-1.59,5.69-3.57.27-.9-.27-1.36-.99-1.57-1.08-.33-2.11.15-3.09-.15-.9-.27-1.49-1.23-2.47-1.53-.72-.22-1.58-.28-1.88.7-.6,1.97.95,5.57,2.75,6.12h0Z"/>
  </g>
  <g id="slice-4" data-name="slice">
    <path d="M87.94,16.22c0-1.22-1.78-1.97-2.9-1.97-.94,0-2.06.46-2.06,1.41,0,1.22,1.78,1.97,2.9,1.97.94,0,2.06-.47,2.06-1.41ZM87.94,19.78c0-.94-1.13-1.41-2.06-1.41-1.22,0-3,.75-3,1.97,0,.94,1.13,1.41,2.06,1.41,1.22.09,3-.66,3-1.97ZM87.01,12.85c0,1.22,1.69,2.06,2.9,2.06.84,0,1.69-.38,1.69-1.22,0-1.22-1.68-2.07-2.91-2.07h0c-.84,0-1.68.47-1.68,1.22ZM89.91,21c-1.22,0-2.9.94-2.9,2.06,0,.84.84,1.22,1.68,1.22,1.22,0,2.9-.94,2.9-2.06,0-.84-.84-1.22-1.68-1.22h0ZM89.72,18c0,1.87,3,4.41,5.06,4.41.94,0,1.22-.66,1.22-1.41,0-1.13-.75-1.97-.75-3,0-.94.75-1.78.75-2.81,0-.75-.19-1.59-1.22-1.59-2.06,0-5.06,2.53-5.06,4.4h0Z"/>
  </g>
  <g id="slice-5" data-name="slice">
    <path d="M8.22,91.06c-1.22,0-1.97,1.78-1.97,2.9,0,.94.46,2.06,1.41,2.06,1.22,0,1.97-1.78,1.97-2.9,0-.94-.47-2.06-1.41-2.06ZM11.78,91.06c-.94,0-1.41,1.13-1.41,2.06,0,1.22.75,3,1.97,3,.94,0,1.41-1.13,1.41-2.06.09-1.22-.66-3-1.97-3ZM4.85,91.99c1.22,0,2.06-1.69,2.06-2.9,0-.84-.38-1.69-1.22-1.69-1.22,0-2.07,1.68-2.07,2.91h0c0,.84.47,1.68,1.22,1.68ZM13,89.09c0,1.22.94,2.9,2.06,2.9.84,0,1.22-.84,1.22-1.68,0-1.22-.94-2.9-2.06-2.9-.84,0-1.22.84-1.22,1.68h0ZM10,89.28c1.87,0,4.41-3,4.41-5.06,0-.94-.66-1.22-1.41-1.22-1.13,0-1.97.75-3,.75-.94,0-1.78-.75-2.81-.75-.75,0-1.59.19-1.59,1.22,0,2.06,2.53,5.06,4.4,5.06h0Z"/>
  </g>
  <g id="slice-6" data-name="slice">
    <path d="M14.89,117.59c-1.14.44-1.19,2.38-.78,3.42.34.87,1.18,1.75,2.06,1.41,1.14-.44,1.19-2.38.78-3.42-.34-.87-1.19-1.75-2.06-1.41ZM18.2,116.29c-.87.34-.9,1.56-.56,2.43.44,1.13,1.79,2.52,2.93,2.07.87-.34.9-1.56.56-2.43-.36-1.17-1.71-2.55-2.93-2.07ZM12.09,119.69c1.13-.44,1.3-2.32.86-3.46-.31-.78-.96-1.43-1.75-1.12-1.14.44-1.31,2.32-.86,3.46h0c.31.78,1.05,1.39,1.75,1.12ZM18.62,114.01c.44,1.14,1.93,2.36,2.98,1.95.78-.31.83-1.23.52-2.01-.44-1.14-1.93-2.36-2.98-1.95-.79.3-.83,1.22-.52,2.01h0ZM15.89,115.28c1.74-.68,3.01-4.4,2.25-6.32-.34-.87-1.06-.89-1.75-.62-1.05.41-1.56,1.42-2.52,1.79-.87.34-1.93-.05-2.89.33-.7.27-1.42.76-1.04,1.72.75,1.92,4.2,3.79,5.95,3.1h0Z"/>
  </g>
  <g id="slice-7" data-name="slice">
    <path d="M41.1,139.66c-.35,1.17,1.13,2.41,2.21,2.73.9.27,2.11.15,2.38-.75.35-1.17-1.13-2.41-2.21-2.73-.9-.27-2.11-.15-2.38.75ZM42.13,136.25c-.27.9.67,1.67,1.57,1.94,1.17.35,3.09.15,3.44-1.01.27-.9-.67-1.67-1.57-1.94-1.14-.44-3.06-.24-3.44,1.01ZM41.02,143.16c.35-1.17-1.02-2.46-2.18-2.82-.81-.24-1.72-.13-1.97.68-.36,1.16,1.01,2.47,2.18,2.82h0c.8.24,1.75.04,1.97-.68ZM40.61,134.51c1.17.35,3.05-.05,3.38-1.13.24-.81-.45-1.41-1.26-1.65-1.17-.35-3.05.05-3.38,1.13-.25.8.45,1.41,1.25,1.65h0ZM39.92,137.44c.54-1.79-1.59-5.09-3.57-5.69-.9-.27-1.36.27-1.57.99-.33,1.08.15,2.11-.15,3.09-.27.9-1.23,1.49-1.53,2.47-.22.72-.28,1.58.7,1.88,1.97.6,5.57-.95,6.12-2.75h0Z"/>
  </g>
  <g id="slice-8" data-name="slice">
    <path d="M16.22,62.06c-1.22,0-1.97,1.78-1.97,2.9,0,.94.46,2.06,1.41,2.06,1.22,0,1.97-1.78,1.97-2.9,0-.94-.47-2.06-1.41-2.06ZM19.78,62.06c-.94,0-1.41,1.13-1.41,2.06,0,1.22.75,3,1.97,3,.94,0,1.41-1.13,1.41-2.06.09-1.22-.66-3-1.97-3ZM12.85,62.99c1.22,0,2.06-1.69,2.06-2.9,0-.84-.38-1.69-1.22-1.69-1.22,0-2.07,1.68-2.07,2.91h0c0,.84.47,1.68,1.22,1.68ZM21,60.09c0,1.22.94,2.9,2.06,2.9.84,0,1.22-.84,1.22-1.68,0-1.22-.94-2.9-2.06-2.9-.84,0-1.22.84-1.22,1.68h0ZM18,60.28c1.87,0,4.41-3,4.41-5.06,0-.94-.66-1.22-1.41-1.22-1.13,0-1.97.75-3,.75-.94,0-1.78-.75-2.81-.75-.75,0-1.59.19-1.59,1.22,0,2.06,2.53,5.06,4.4,5.06h0Z"/>
  </g>
  <g id="slice-9" data-name="slice">
    <path d="M91.06,141.78c0,1.22,1.78,1.97,2.9,1.97.94,0,2.06-.46,2.06-1.41,0-1.22-1.78-1.97-2.9-1.97-.94,0-2.06.47-2.06,1.41ZM91.06,138.22c0,.94,1.13,1.41,2.06,1.41,1.22,0,3-.75,3-1.97,0-.94-1.13-1.41-2.06-1.41-1.22-.09-3,.66-3,1.97ZM91.99,145.15c0-1.22-1.69-2.06-2.9-2.06-.84,0-1.69.38-1.69,1.22,0,1.22,1.68,2.07,2.91,2.07h0c.84,0,1.68-.47,1.68-1.22ZM89.09,137c1.22,0,2.9-.94,2.9-2.06,0-.84-.84-1.22-1.68-1.22-1.22,0-2.9.94-2.9,2.06,0,.84.84,1.22,1.68,1.22h0ZM89.28,140c0-1.87-3-4.41-5.06-4.41-.94,0-1.22.66-1.22,1.41,0,1.13.75,1.97.75,3,0,.94-.75,1.78-.75,2.81,0,.75.19,1.59,1.22,1.59,2.06,0,5.06-2.53,5.06-4.4h0Z"/>
  </g>
  <g id="slice-10" data-name="slice">
    <path d="M117.59,135.11c.44,1.14,2.38,1.19,3.42.78.87-.34,1.75-1.18,1.41-2.06-.44-1.14-2.38-1.19-3.42-.78-.87.34-1.75,1.19-1.41,2.06ZM116.29,131.8c.34.87,1.56.9,2.43.56,1.13-.44,2.52-1.79,2.07-2.93-.34-.87-1.56-.9-2.43-.56-1.17.36-2.55,1.71-2.07,2.93ZM119.69,137.91c-.44-1.13-2.32-1.3-3.46-.86-.78.31-1.43.96-1.12,1.75.44,1.14,2.32,1.31,3.46.86h0c.78-.31,1.39-1.05,1.12-1.75ZM114.01,131.38c1.14-.44,2.36-1.93,1.95-2.98-.31-.78-1.23-.83-2.01-.52-1.14.44-2.36,1.93-1.95,2.98.3.79,1.22.83,2.01.52h0ZM115.28,134.11c-.68-1.74-4.4-3.01-6.32-2.25-.87.34-.89,1.06-.62,1.75.41,1.05,1.42,1.56,1.79,2.52.34.87-.05,1.93.33,2.89.27.7.76,1.42,1.72,1.04,1.92-.75,3.79-4.2,3.1-5.95h0Z"/>
  </g>
  <g id="slice-11" data-name="slice">
    <path d="M139.66,108.9c1.17.35,2.41-1.13,2.73-2.21.27-.9.15-2.11-.75-2.38-1.17-.35-2.41,1.13-2.73,2.21-.27.9-.15,2.11.75,2.38ZM136.25,107.87c.9.27,1.67-.67,1.94-1.57.35-1.17.15-3.09-1.01-3.44-.9-.27-1.67.67-1.94,1.57-.44,1.14-.24,3.06,1.01,3.44ZM143.16,108.98c-1.17-.35-2.46,1.02-2.82,2.18-.24.81-.13,1.72.68,1.97,1.16.36,2.47-1.01,2.82-2.18h0c.24-.8.04-1.75-.68-1.97ZM134.51,109.39c.35-1.17-.05-3.05-1.13-3.38-.81-.24-1.41.45-1.65,1.26-.35,1.17.05,3.05,1.13,3.38.8.25,1.41-.45,1.65-1.25h0ZM137.44,110.08c-1.79-.54-5.09,1.59-5.69,3.57-.27.9.27,1.36.99,1.57,1.08.33,2.11-.15,3.09.15.9.27,1.49,1.23,2.47,1.53.72.22,1.58.28,1.88-.7.6-1.97-.95-5.57-2.75-6.12h0Z"/>
  </g>
  <g id="slice-12" data-name="slice">
    <path d="M62.06,133.78c0,1.22,1.78,1.97,2.9,1.97.94,0,2.06-.46,2.06-1.41,0-1.22-1.78-1.97-2.9-1.97-.94,0-2.06.47-2.06,1.41ZM62.06,130.22c0,.94,1.13,1.41,2.06,1.41,1.22,0,3-.75,3-1.97,0-.94-1.13-1.41-2.06-1.41-1.22-.09-3,.66-3,1.97ZM62.99,137.15c0-1.22-1.69-2.06-2.9-2.06-.84,0-1.69.38-1.69,1.22,0,1.22,1.68,2.07,2.91,2.07h0c.84,0,1.68-.47,1.68-1.22ZM60.09,129c1.22,0,2.9-.94,2.9-2.06,0-.84-.84-1.22-1.68-1.22-1.22,0-2.9.94-2.9,2.06,0,.84.84,1.22,1.68,1.22h0ZM60.28,132c0-1.87-3-4.41-5.06-4.41-.94,0-1.22.66-1.22,1.41,0,1.13.75,1.97.75,3,0,.94-.75,1.78-.75,2.81,0,.75.19,1.59,1.22,1.59,2.06,0,5.06-2.53,5.06-4.4h0Z"/>
  </g>
  <g id="slice-13" data-name="slice">
    <path d="M141.78,58.94c1.22,0,1.97-1.78,1.97-2.9,0-.94-.46-2.06-1.41-2.06-1.22,0-1.97,1.78-1.97,2.9,0,.94.47,2.06,1.41,2.06ZM138.22,58.94c.94,0,1.41-1.13,1.41-2.06,0-1.22-.75-3-1.97-3-.94,0-1.41,1.13-1.41,2.06-.09,1.22.66,3,1.97,3ZM145.15,58.01c-1.22,0-2.06,1.69-2.06,2.9,0,.84.38,1.69,1.22,1.69,1.22,0,2.07-1.68,2.07-2.91h0c0-.84-.47-1.68-1.22-1.68ZM137,60.91c0-1.22-.94-2.9-2.06-2.9-.84,0-1.22.84-1.22,1.68,0,1.22.94,2.9,2.06,2.9.84,0,1.22-.84,1.22-1.68h0ZM140,60.72c-1.87,0-4.41,3-4.41,5.06,0,.94.66,1.22,1.41,1.22,1.13,0,1.97-.75,3-.75.94,0,1.78.75,2.81.75.75,0,1.59-.19,1.59-1.22,0-2.06-2.53-5.06-4.4-5.06h0Z"/>
  </g>
  <g id="slice-14" data-name="slice">
    <path d="M135.11,32.41c1.14-.44,1.19-2.38.78-3.42-.34-.87-1.18-1.75-2.06-1.41-1.14.44-1.19,2.38-.78,3.42.34.87,1.19,1.75,2.06,1.41ZM131.8,33.71c.87-.34.9-1.56.56-2.43-.44-1.13-1.79-2.52-2.93-2.07-.87.34-.9,1.56-.56,2.43.36,1.17,1.71,2.55,2.93,2.07ZM137.91,30.31c-1.13.44-1.3,2.32-.86,3.46.31.78.96,1.43,1.75,1.12,1.14-.44,1.31-2.32.86-3.46h0c-.31-.78-1.05-1.39-1.75-1.12ZM131.38,35.99c-.44-1.14-1.93-2.36-2.98-1.95-.78.31-.83,1.23-.52,2.01.44,1.14,1.93,2.36,2.98,1.95.79-.3.83-1.22.52-2.01h0ZM134.11,34.72c-1.74.68-3.01,4.4-2.25,6.32.34.87,1.06.89,1.75.62,1.05-.41,1.56-1.42,2.52-1.79.87-.34,1.93.05,2.89-.33.7-.27,1.42-.76,1.04-1.72-.75-1.92-4.2-3.79-5.95-3.1h0Z"/>
  </g>
  <g id="slice-15" data-name="slice">
    <path d="M108.9,10.34c.35-1.17-1.13-2.41-2.21-2.73-.9-.27-2.11-.15-2.38.75-.35,1.17,1.13,2.41,2.21,2.73.9.27,2.11.15,2.38-.75ZM107.87,13.75c.27-.9-.67-1.67-1.57-1.94-1.17-.35-3.09-.15-3.44,1.01-.27.9.67,1.67,1.57,1.94,1.14.44,3.06.24,3.44-1.01ZM108.98,6.84c-.35,1.17,1.02,2.46,2.18,2.82.81.24,1.72.13,1.97-.68.36-1.16-1.01-2.47-2.18-2.82h0c-.8-.24-1.75-.04-1.97.68ZM109.39,15.49c-1.17-.35-3.05.05-3.38,1.13-.24.81.45,1.41,1.26,1.65,1.17.35,3.05-.05,3.38-1.13.25-.8-.45-1.41-1.25-1.65h0ZM110.08,12.56c-.54,1.79,1.59,5.09,3.57,5.69.9.27,1.36-.27,1.57-.99.33-1.08-.15-2.11.15-3.09.27-.9,1.23-1.49,1.53-2.47.22-.72.28-1.58-.7-1.88-1.97-.6-5.57.95-6.12,2.75h0Z"/>
  </g>
  <g id="slice-16" data-name="slice">
    <path d="M133.78,87.94c1.22,0,1.97-1.78,1.97-2.9,0-.94-.46-2.06-1.41-2.06-1.22,0-1.97,1.78-1.97,2.9,0,.94.47,2.06,1.41,2.06ZM130.22,87.94c.94,0,1.41-1.13,1.41-2.06,0-1.22-.75-3-1.97-3-.94,0-1.41,1.13-1.41,2.06-.09,1.22.66,3,1.97,3ZM137.15,87.01c-1.22,0-2.06,1.69-2.06,2.9,0,.84.38,1.69,1.22,1.69,1.22,0,2.07-1.68,2.07-2.91h0c0-.84-.47-1.68-1.22-1.68ZM129,89.91c0-1.22-.94-2.9-2.06-2.9-.84,0-1.22.84-1.22,1.68,0,1.22.94,2.9,2.06,2.9.84,0,1.22-.84,1.22-1.68h0ZM132,89.72c-1.87,0-4.41,3-4.41,5.06,0,.94.66,1.22,1.41,1.22,1.13,0,1.97-.75,3-.75.94,0,1.78.75,2.81.75.75,0,1.59-.19,1.59-1.22,0-2.06-2.53-5.06-4.4-5.06h0Z"/>
  </g>
</svg>