<svg xmlns="http://www.w3.org/2000/svg" width="150" height="150" viewBox="0 0 150 150">
  <g fill="none" stroke="currentColor" stroke-width="2"><rect x="21" y="21" width="108" height="108" rx="9"/><path d="M24 24Q75 2 126 24M126 126Q75 148 24 126M24 24Q2 75 24 126M126 24q22 51 0 102"/></g>
  <g fill="oklch(from currentColor l c calc(h + 32) / .48)" stroke="currentColor" stroke-width="1">
    <path d="m43 17-9-9c12-2 17 1 18 8m13-4-7-11c12 0 17 4 16 12m33 4 9-9c-12-2-17 1-18 8m-13-4 7-11c-12 0-17 4-16 12M43 133l-9 9c12 2 17-1 18-8m13 4-7 11c12 0 17-4 16-12m33-4 9 9c-12 2-17-1-18-8m-13 4 7 11c-12 0-17-4-16-12M17 43 8 34c-2 12 1 17 8 18m-4 13L1 58c0 12 4 17 12 16m4 33-9 9c-2-12 1-17 8-18m-4-13L1 92c0-12 4-17 12-16M133 43l9-9c2 12-1 17-8 18m4 13 11-7c0 12-4 17-12 16m-4 33 9 9c2-12-1-17-8-18m4-13 11 7c0-12-4-17-12-16"/>
  </g>
</svg>
