<svg xmlns="http://www.w3.org/2000/svg" width="150" height="150" viewBox="0 0 150 150">
  <g fill="none" stroke="currentColor">
    <rect x="9" y="9" width="132" height="132" stroke-width="3"/>
    <rect x="20" y="20" width="110" height="110" stroke-width="1.5"/>
    <path d="M9 35 35 9l15 15L65 9M85 9l15 15 15-15 26 26M9 115l26 26 15-15 15 15M85 141l15-15 15 15 26-26M9 65l15-15L9 35M141 65l-15-15 15-15M9 85l15 15-15 15M141 85l-15 15 15 15" stroke-width="3"/>
  </g>
  <g fill="currentColor"><rect x="69" y="5" width="12" height="12" transform="rotate(45 75 11)"/><rect x="69" y="133" width="12" height="12" transform="rotate(45 75 139)"/><rect x="5" y="69" width="12" height="12" transform="rotate(45 11 75)"/><rect x="133" y="69" width="12" height="12" transform="rotate(45 139 75)"/></g>
</svg>
