<svg xmlns="http://www.w3.org/2000/svg" width="150" height="150" viewBox="0 0 150 150">
  <g fill="oklch(from currentColor l c h / .2)" stroke="currentColor" stroke-width="2"><circle cx="15" cy="15" r="12"/><circle cx="42" cy="15" r="8"/><circle cx="75" cy="15" r="11"/><circle cx="108" cy="15" r="8"/><circle cx="135" cy="15" r="12"/><circle cx="135" cy="42" r="8"/><circle cx="135" cy="75" r="11"/><circle cx="135" cy="108" r="8"/><circle cx="135" cy="135" r="12"/><circle cx="108" cy="135" r="8"/><circle cx="75" cy="135" r="11"/><circle cx="42" cy="135" r="8"/><circle cx="15" cy="135" r="12"/><circle cx="15" cy="108" r="8"/><circle cx="15" cy="75" r="11"/><circle cx="15" cy="42" r="8"/></g>
  <g fill="oklch(from currentColor l c calc(h + 80) / .55)"><circle cx="11" cy="11" r="3"/><circle cx="71" cy="11" r="3"/><circle cx="131" cy="71" r="3"/><circle cx="131" cy="131" r="3"/><circle cx="71" cy="131" r="3"/><circle cx="11" cy="71" r="3"/></g>
</svg>
