<?xml version="1.0" encoding="UTF-8"?>
<svg id="base" xmlns="http://www.w3.org/2000/svg" width="150" height="150" viewBox="0 0 150 150">
  <defs>
    <style>
      .cls-1 {
        fill: #fff;
      }
    </style>
  </defs>
  <g id="CXxxBv">
    <path d="M149.93,74.94c0,24.31,0,48.63.07,72.95,0,2-.66,2.08-2.26,2.08-48.54-.04-97.08-.04-145.63,0-2,0-2.08-.66-2.08-2.26.04-48.53.03-97.07-.03-145.62C0,.09.65,0,2.26,0c48.49.05,96.95.05,145.37,0,1.78,0,2.37.25,2.36,2.24-.09,24.23-.06,48.46-.06,72.7ZM139.11,74.94h-.58c0-6.74.4-13.5-.07-20.21-1.57-22.3-21-41.8-43.29-43.09-11.28-.66-22.63-.35-33.94-.34-3.41-.03-6.81.21-10.18.7C30.19,15.25,12.68,34,11.62,55c-.67,13.3-.67,26.62,0,39.92,1.16,22.47,20.66,42.06,43.14,43.43,12.36.75,24.8.73,37.18.32,23.68-.77,42.78-17.68,46.18-40.92,1.11-7.46.71-15.2.99-22.85v.04ZM118.46,2h-25c-4.78,0-4.64,0-4.84,4.77-.1,2.24.52,2.7,2.72,2.72,26.16.39,47.59,20.88,49.16,47,.28,4.95.28,4.84,5.27,5,2,0,2.28-.59,2.27-2.39-.06-18.3-.06-36.61,0-54.92,0-1.73-.39-2.22-2.16-2.2-9.11.02-18.27.02-27.42.02ZM2,31.77v24.48c0,5.15,0,5.08,5.2,5.15,1.66,0,2.24-.3,2.27-2.14.38-26.85,20.53-48.07,47.21-49.8,4.72-.3,4.64-.3,4.74-5.18,0-1.82-.35-2.38-2.29-2.37-18.32.06-36.64.06-54.95-.01-2,0-2.26.65-2.24,2.39.06,9.16.06,18.32.06,27.48ZM31.66,148h25c4.76,0,4.65,0,4.81-4.79.06-2-.44-2.59-2.54-2.63-26.27-.25-47.88-20.79-49.44-47.02-.32-4.89-.33-4.81-5.32-4.89-1.69,0-2.24.35-2.23,2.15.07,18.39.07,36.78,0,55.17,0,1.88.66,2.1,2.28,2.09,9.14-.08,18.29-.03,27.44-.08ZM148,118.42v-25c0-4.74,0-4.63-4.8-4.79-2.08-.07-2.56.53-2.62,2.58-.76,27-20.84,47.73-47.65,49.34-4.28.26-4.19.26-4.29,5.18,0,1.84.4,2.34,2.3,2.33,18.31-.08,36.62-.08,54.93,0,1.78,0,2.19-.46,2.18-2.2-.05-9.12-.05-18.28-.05-27.44ZM75,9.38h6.49c5.45,0,5.37,0,5.4-5.45,0-1.74-.58-2-2.14-2-5.32.09-10.65,0-16,0-6,0-5.95,0-5.64,6,.06,1.27.51,1.51,1.63,1.49,3.46-.07,6.88-.04,10.26-.04ZM9.39,75v-6.45c0-5.46,0-5.37-5.44-5.4-1.73,0-2,.58-2,2.14.09,5.32,0,10.65,0,16,0,6,0,5.94,5.94,5.65,1.27-.07,1.51-.51,1.5-1.64-.03-3.44,0-6.85,0-10.3ZM75.22,148h6.23c5.58,0,5.52,0,5.47-5.61,0-1.47-.48-1.8-1.85-1.78-5.48.07-11,0-16.44,0-5.8,0-5.75,0-5.47,5.86.06,1.21.43,1.55,1.6,1.53h10.46ZM140.68,74.89v6.73c0,5.28,0,5.22,5.31,5.24,1.59,0,2.14-.33,2.1-2-.13-5.4-.05-10.8-.05-16.2s0-5.56-5.57-5.5c-1.41,0-1.87.35-1.82,1.8.1,3.32.03,6.64.03,9.97v-.04Z"/>
    <path class="cls-1" d="M139.11,74.9c-.28,7.65.12,15.39-1,22.92-3.4,23.24-22.5,40.15-46.18,40.92-12.38.41-24.82.43-37.18-.32-22.48-1.37-42-21-43.14-43.43-.67-13.3-.67-26.62,0-39.92,1.07-21.07,18.58-39.79,39.44-43.07,3.37-.52,6.77-.78,10.18-.78,11.31,0,22.66-.32,33.94.34,22.27,1.29,41.72,20.79,43.29,43.09.47,6.71.07,13.47.07,20.21l.58.04Z"/>
    <path class="cls-1" d="M118.46,2c9.15,0,18.31,0,27.46-.05,1.77,0,2.17.47,2.16,2.2-.06,18.31-.06,36.62,0,54.92,0,1.8-.31,2.44-2.27,2.39-5-.13-5,0-5.27-5-1.57-26.12-23-46.61-49.16-47-2.2,0-2.82-.48-2.72-2.72.2-4.74.06-4.74,4.84-4.74h24.96ZM109,10.58l-.07-.06c.41.35.84.66,1.31.92,19.78,8.77,30.41,24,32.12,45.52.16,2.06.6,2.91,2.66,2.55.41-.05.83-.08,1.25-.07l.15-1.9v-2.54c.22-.77.37-1.57.45-2.37V6.45c-.08-.79-.24-1.58-.48-2.34l-.5-.46c-.83-.26-1.69-.43-2.56-.52-16.59,0-33.19,0-49.78,0-.86.08-1.72.24-2.55.49-1.06,3.4-.79,3.54,2.55,4.05,5.17.79,10.31,1.92,15.45,2.91Z"/>
    <path class="cls-1" d="M2,31.77V4.29c0-1.74.23-2.4,2.24-2.39,18.31.09,36.64.09,55,0,1.94,0,2.33.55,2.29,2.37-.1,4.88,0,4.88-4.74,5.18-26.79,1.74-46.94,22.96-47.34,49.81,0,1.84-.61,2.17-2.27,2.14-5.18-.07-5.18,0-5.18-5.15v-24.48ZM41.27,10.77c5.15-1.07,10.29-2.37,15.52-3.08,2.21-.3,3.12-.75,2.73-3-.06-.33-.05-.66-.08-1-.72-.31-1.47-.53-2.25-.64H6.42c-.79.09-1.56.26-2.31.53l-.46.46c-.27.76-.45,1.56-.53,2.36v50.53c.11.86.33,1.69.64,2.5,3.65.16,3.64.16,3.92-3.43.04-1.08.15-2.15.32-3.22.82-3.94,1.69-7.87,2.54-11.8l-.06.07c.41-.78.82-1.56,1.24-2.34,6.2-13.19,15.94-22.6,29.53-27.94h.02Z"/>
    <path class="cls-1" d="M31.66,148H4.21c-1.62,0-2.29-.21-2.28-2.09.08-18.39.08-36.78,0-55.17,0-1.8.54-2.17,2.23-2.15,5,.08,5,0,5.32,4.89,1.54,26.23,23.13,46.79,49.4,47.06,2.1,0,2.6.6,2.54,2.63-.16,4.79,0,4.79-4.81,4.79l-24.95.04ZM11.73,111.31l-1-2.56c-1-5.07-2.26-10.12-3.09-15.23-.49-3.33-.64-3.6-4.01-2.52-.25.84-.42,1.71-.51,2.58v49.78c.09.87.26,1.73.52,2.57l.46.48c.85.25,1.71.41,2.59.49h45.67c.88-.07,1.76-.22,2.62-.44h2.57l1.9-.15c.16-3.72.15-3.62-3.4-3.94-2.95-.26-5.86-.82-8.79-1.24l-6.13-1.79c-13.1-5.12-23.66-15.19-29.4-28.03Z"/>
    <path class="cls-1" d="M148,118.42c0,9.16,0,18.32.05,27.47,0,1.74-.4,2.21-2.18,2.2-18.31-.07-36.62-.07-54.93,0-1.9,0-2.34-.49-2.3-2.33.1-4.92,0-4.92,4.29-5.18,26.81-1.61,46.89-22.34,47.65-49.34.06-2,.54-2.65,2.62-2.58,4.8.16,4.8,0,4.8,4.79v24.97ZM146.39,92.42v-1.44c-3.35-1.1-3.74-.8-4,2.33-1.7,20.63-11.85,35.5-30.46,44.61-1,.49-2,1-3,1.52l.06-.06c-5.24,1-10.45,2.17-15.72,3-3,.47-3.37.72-2.28,4h4.01c.77.22,1.57.37,2.37.44h46.17c.79-.08,1.58-.24,2.34-.48l.5-.49c.24-.85.4-1.72.47-2.6v-45.66c-.08-.89-.23-1.77-.44-2.63.03-.8.02-1.66.02-2.52l-.04-.02Z"/>
    <path class="cls-1" d="M75,9.38h-10.24c-1.12,0-1.57-.22-1.63-1.49-.31-6-.35-6,5.64-6h16c1.56,0,2.16.27,2.14,2q0,5.45-5.4,5.45l-6.51.04ZM84.49,3.63c-.47-.24-.97-.42-1.49-.53h-17.34l2,.52c-1.67,0-2.71.4-2.5,2.54.21,2.14,1.75,1.33,2.74,1.35,4.65.08,9.29,0,13.94,0,3.43.03,3.63-.23,2.68-3.88h-.03Z"/>
    <path class="cls-1" d="M9.4,75v10.23c0,1.13-.23,1.57-1.5,1.64-5.9.33-5.9.38-5.9-5.61v-16c0-1.56.28-2.15,2-2.14,5.44,0,5.44-.06,5.44,5.4-.03,2.19-.05,4.35-.04,6.48ZM3.64,65.5c-.15.19-.42.39-.42.58v17.78c0,.2.27.4.41.59,3.67,1,3.92.81,3.9-2.9,0-4.37,0-8.75,0-13.13.03-3.67-.18-3.84-3.89-2.88v-.04Z"/>
    <path class="cls-1" d="M75.22,148h-10.46c-1.17,0-1.54-.32-1.6-1.53-.28-5.86-.33-5.86,5.47-5.86h16.44c1.37,0,1.83.31,1.85,1.78,0,5.62.11,5.61-5.47,5.61h-6.23ZM84.48,146.36c1-3.57.8-3.9-2.69-3.89h-13.48c-3.53,0-3.7.21-2.77,3.88.59.24,1.22.4,1.85.48,5.08.04,10.16.04,15.23,0,.64-.07,1.26-.21,1.86-.43v-.04Z"/>
    <path class="cls-1" d="M140.68,74.93c0-3.33.07-6.65,0-10-.05-1.45.41-1.79,1.82-1.8,5.57-.06,5.57-.11,5.57,5.5s-.08,10.8.05,16.2c0,1.71-.51,2-2.1,2q-5.31,0-5.31-5.24l-.03-6.66ZM146.39,65.51c-3.73-.87-3.89-.74-3.88,2.8v13.48c0,3.47.34,3.72,3.89,2.67.23-.51.39-1.05.47-1.61.04-5.24.04-10.48,0-15.73-.08-.56-.24-1.1-.48-1.61Z"/>
    <path d="M146.43,55v2.57l-.15,1.9c-.42,0-.84.02-1.25.07-2.06.36-2.5-.49-2.66-2.55-1.7-21.51-12.37-36.78-32.11-45.55-.47-.26-.9-.57-1.31-.92,2.55.65,1.19-1.78,2-2.52.84.26,1.64.65,2.37,1.14,1.18,1.14,2.3,2.34,3.35,3.59l1.28,1.11c4.69,3.9,9.46,4.16,14.85.83.29-.16.62-.22.95-.18.16,0,.27.37.41.58-1.4.55-1,3-3.25,2.81-1.72-.04-3.45.03-5.16.22l-.09.63,2.71.69.37.35-.25,1.84,2.51-.61v2l.72,1.31c.08-.43.17-.85.22-1.28.02-.33.02-.67,0-1,.51-2-.5-4.6,2.34-5.51.43-.14,1.05.27,1.58.43-2.82,2.73-3.7,7.08-2.34,9.34.4-2,.84-4.49,1.38-6.94.24-.84.54-1.66.9-2.46l1.2,1.11c-3,4.26-1.14,6,3.3,6.66l-2.17.49,2.58,1.6-.29.35-1.22-.32-1.19.26c-.18-.16-.34-.38-.56-.45s-.33.13-.51.2c1.45,1.09,2.86,2.21,4.36,3.22.2.13.79-.45,1.22-.48.47.05.93.16,1.36.35.04-.54.02-1.08-.06-1.62-.13-.55-.64-1.05-.64-1.57,0-2.84-.51-3.41-3.44-3.57-2.26-.13-3.36-1.36-3.11-3.48.07-.57.2-1.14.31-1.7,1-.07,3.12,1.24,2.07-1.61-.07-.2.75-.72,1.16-1.09.46.11,1.19.07,1.33.34.39.73.29,2,.83,2.3.79.26,1.66.09,2.29-.46.48-.87.57-1.91.25-2.85-.85-1.9-2.79-2.08-5.58-.81l-1.29,1.32c-1.16-1.06-2.29-2.15-3.52-3.14-.63-.4-1.3-.74-2-1-.16.71-.32,1.42-.47,2.13l-.68.36c-3.53.22-4-.18-4.4-3.73-.2-.74-.52-1.45-.95-2.09,0-.12-.07-.23-.18-.27h0c-.05-.11-.15-.18-.27-.17-.75-.1-1.5-.15-2.25-.13-.94.09-4.44-3.71-2.28,1.41-2,1-.44,1.81.07,2.7-.03.08.01.17.1.21,0,0,0,0,.01,0h.13v-.13l.69,1h0l.84.75h.74l-.47-.35-.36-.49c.33-.25,1.89.79.89-.87-.26-.5-.46-1.02-.62-1.56l.37-.31,1.53,2.56.87-2.36c.7,5,2.45,6.07,5.81,4.07l.42-.59c1.19.2,1.69.39.29,1.33-4.42,3-8.61,2.64-14.22-1.25l-.11-.54c.6.2,1.17.45,1.72.76,2.31,1.79,5.29,2.49,8.16,1.92-1.17-.56-2.25-1.56-3.21-1.45-3.37.4-4.86-1.62-6.18-4.11-.58-1.1-1.17-2.19-1.84-3.23-.32-.36-.69-.66-1.1-.92-1.2,1.67-1.86-.17-2.79-.39-.87-.34-1.81-.48-2.74-.41-.88.34-1.7.81-2.44,1.4.73.29,1.45.57,2.17.87.28.14.55.3.81.48-3.13.52-5.55-1.61-8.31-2.41-2-.59-2.13-.35-1.73,1.38-1.43-.38-2.86-.79-4.3-1.13-1.2-.31-2.43-.51-3.66-.62-.24,0-.72.87-.73,1.34s.58.84,1,.93,1.19-.21,1.19-.44c.3-1.88,1-.55,1.71-.31,1.28.48,2.58.89,3.9,1.22.18,0,.54-.68.82-1.06,2,.84,3.89,2.2,5.9,2.35,1.59.12,2.24.51,2.71,1.79-5.16-1-10.3-2.12-15.49-2.91-3.34-.51-3.61-.65-2.55-4h54.93l.5.46c0,6.73-.07,13.47-.06,20.21-.03,10.17.03,20.4.06,30.66ZM137.43,32.56l-3.36-5-.62.43,3.55,5.01.5.52,3,3-1.85,1.19,1.46.67.35-1.9,3.05,6c-.31,0-.87,0-.89-.06-.12-.55,0-1.16-.2-1.69s-.51-1.41-.9-1.48c-.71.02-1.42.18-2.07.47l1,1.84c.25.47.74,1,.71,1.41-.22,2.42.64,4.82,2.36,6.54-.34.67-1.07,1.42-1,2,.33,1.09.81,2.13,1.41,3.1.27.55,1.3,1.24-.35,1.37-.25,0-.61.94-.56,1.4s.74,1,1,.89c.54-.17,1.4-.68,1.4-1-.08-1.1-.3-2.19-.64-3.24-.41-1.52-.89-3-1.34-4.52l1.86.07c-.15-.52-.27-1-.47-1.55s-.52-1-.78-1.53l-.17-1.39-.43-2.62c2.1-1,2.59-3.48,1.13-5.7-.29-.39-.54-.82-.73-1.27,1.78-1.34,0-1.81-.66-2.26-1.06-.75-2.56-1-3.44-1.89-1.46-1.49-2.71-3.17-3.71-5-.62-1.11-.59-2.59-.85-3.9l-.66.14c-.21,3.86,1.36,7.59,4.25,10.15l-.39.37c-.15-.03-.29-.05-.44-.06l-.52-.51ZM141.43,9.56c-.45-.32-.88-.85-1.37-.91s-1,.39-1.47.61c1.17,1.52-.64,1.79-1.09,2.63-.2.42-.36.86-.5,1.31.47-.17.92-.39,1.35-.64.62-.41,1.33-1.42,1.74-1.3,2.4.72,1.51-.72,1.29-1.76.61.18,1.19.43,1.75.73.34.33.62.72.84,1.14.33-.32.93-.65.92-1,0-.48-.47-1.33-.75-1.33-.93.06-1.85.21-2.75.45l.04.07ZM136.43,6.16c-1.09-.5-2.24-.83-3.43-.98-.36,0-1.22,2-.94,2.34.63.77,1.83,1.07,2.94,1.64-.11.15-.16.34-.13.52.15.63.35,1.26.58,1.87.38-.36.74-.75,1.07-1.16.15-.29.25-.59.3-.91l-.39-3.32ZM143.67,4.96c-.6.63-1.14,1.31-1.62,2.04-.07.15.86,1,.92,1,.63-.42,1.17-.94,1.61-1.55.11-.18-.48-.79-.98-1.56l.07.07ZM141.78,6.83c-.56-.58-1.17-1.11-1.83-1.57-.13-.08-.73.65-1.11,1l1.84,1.74,1.1-1.17ZM112.28,8.63c-.29,1-.57,1.53-.47,1.92s.58.61.89.91c.28-.36.82-.77.76-1.05-.18-.57-.65-1-1.25-1.85l.07.07Z"/>
    <path class="cls-1" d="M145.89,3.62l-50.89.04h-4c.84-.26,1.7-.43,2.57-.52h49.78c.86.07,1.71.23,2.54.48Z"/>
    <path class="cls-1" d="M146.43,55c0-10.23-.09-20.46-.1-30.68,0-6.74,0-13.48.06-20.21.24.76.4,1.55.48,2.34v46.18c-.07.8-.22,1.6-.44,2.37Z"/>
    <path class="cls-1" d="M146.29,59.44l.15-1.9-.15,1.9Z"/>
    <path d="M11.76,38.71l-1.24,2.34c.62-1.55-.5-1.66-1.46-1.58-.57.11-1.05.48-1.31,1-.31.91-.54,1.85-.69,2.8l-.48.3c-.48,1.52-1,3-1.42,4.58-.12.49-.22.98-.28,1.48l1.64-.13-1.08,4.34c-.35,1.13-.61,2.28-.78,3.45,0,.33.75,1,1.19,1,.54-.11.98-.49,1.17-1,.1-.4-.39-.94-.6-1.42s-.49-.83-.38-1.12c.56-1.17,1.05-2.38,1.49-3.6.11-.42-.69-1.08-1.07-1.63l.66-.91,1.72-5.12-.28-1c0-.14,0-.29,0-.43l2.02-1.06c-.85,3.91-1.72,7.84-2.58,11.78-.17,1.07-.28,2.14-.32,3.22-.28,3.59-.27,3.59-3.92,3.43,0-1.49-.06-3-.06-4.48,0-16.95-.02-33.91-.05-50.86.15-.16.3-.31.46-.46,1.08,0,2.15.07,3.23.07h52.1c0,.33,0,.66.08,1,.39,2.21-.52,2.66-2.73,3-5.23.71-10.37,2-15.54,3.08l-.25-.28c.58-1.23,1.4-1.52,2.87-1.69,2-.23,3.8-1.52,5.7-2.36.39.38.86,1.13,1.15,1.07,1.26-.3,2.49-.73,3.66-1.27.76-.35,1.44-1.34,1.73.39,0,.2.88.47,1.26.37s1-.64.93-1c0-.49-.54-1.35-.79-1.33-1.24.14-2.47.37-3.67.7-1.45.33-2.88.72-4.33,1.08l-.51-1.84-6.5,2.46c-.46-.69-.88-1.91-1.39-1.95-1.49-.02-2.98.13-4.44.46-.41.07-1,.73-1.09.68-1.92-2-2,.47-2.65,1.15s-.79,2.09-1.51,2.8c-1.4,1.45-2.99,2.69-4.73,3.7-1.22.66-2.83.58-4.27.83l.16.7c2.93.28,5.85-.57,8.16-2.39.61-.39,1.25-.74,1.9-1.06l-.64,1h0c-2.55,2.11-5.42,3.68-8.79,3.18-2.1-.32-4.12-1.42-6.21-2.18l.05.05,1.5-.54c4.56,2.58,5.62-.22,6.11-4l.53,2.33,2-3.23c-.12.98-.4,1.94-.85,2.82-.06.53,0,1.06.16,1.57.36-.06.86,0,1.06-.21.86-.77,1.59-1.67,2.16-2.67.26-.55-.34-1.46-.35-2.22.07-.6.22-1.2.45-1.76-.71.12-1.42.22-2.11.38-.39.08-.85.49-1.11.37-2.6-1.17-3.05,1-3.37,2.47-.83,4-.71,4-4.7,4.22q-1.13-2.94-3.85-.89c-.32.24-1.06.49-1.17.36-.85-1-2.34-2.16-2.2-3.07.37-2.46-.92-1.44-1.92-1.27.38-.57.73-1.15,1.14-1.7.21-.29.71-.52.71-.78-.03-.39-.26-.74-.61-.92-.4-.09-1.26.13-1.27.26-.03,1.03,0,2.07.08,3.1l-.87.88c-1-1.74-2.15-1-3.1,0-.23.25.15,1.08.25,1.64.44-.19.87-.4,1.28-.64.56-.33,1.08-.72,1.63-1.09l.79,2c2.18-.9,2.14,2.06,3.75,2.16-.47.71-1,1.4-1.4,2.15-.34.59-.58,1.25-.87,1.88l2.18.37.5.5c-.29,2,.34,4.48-2.91,4.65s-3.43.28-3.67,3.72c-.09,1-3.49,4.37,1.44,2.27,1,1.95,1.85.38,2.74-.12.64-.84,1.27-1.68,1.91-2.51.16-.18.33-.35.5-.52.12.37.45.81.35,1.09-.76,2.13-2.36,3.85-4.42,4.77-1.52.68-3.83,2.55-3.63,3.13.76,2.07-2.14,2.81-1.23,4.63.29.58.3,1.3.58,1.89.19.4.65.67,1,1l.69-1.21,2.8-5.11.4.4-.73,1.5,1.78.06.58.55ZM14.54,8c1.2.55,2.63,1.7,3.39-.24.15-1.05-.27-2.1-1.09-2.76-1.57-.91-2.95.11-3.53,1.6-.35.87,0,2,0,3.05l.6.75-.28-1c.03-.55.08-1.1.17-1.64,0-.15.34-.25.53-.37l.21.65-.38.13.19.25.19-.42ZM9.42,13.67l1.05.27-.76-.61c-2.05-.82-3.81-.46-4.71,1.67-.18.91.04,1.86.62,2.59.61.48,1.43.6,2.15.32.54-.37.55-1.47,1-2.16.25-.43.8-.67,1.51-1.23l-3.61-.52,2.75-.33ZM8.62,7c-.69-.58-1.43-1.09-2.22-1.53-.14-.07-1,.94-.92,1,.45.61,1.01,1.12,1.65,1.53.17.09.74-.5,1.49-1ZM11.14,14.27l.16.29c.06-.06.16-.12.16-.16-.04-.11-.09-.21-.16-.31l-.16.18ZM14.14,11.22l.18.33c0-.06.15-.12.15-.16-.04-.11-.09-.22-.15-.33l-.18.16Z"/>
    <path d="M41.25,10.77c-13.59,5.34-23.33,14.75-29.49,27.94l-.58-.55-1.07-1.58-.4-.4,2.29-2.18,1.49-1.51c4.25-4.69,4.69-10.49,1.17-15.06l-.66-.37,3.05-3-.05-.06c3.29,4.19,12.81,3.85,15.41-.57,0,0-.26-.29-.4-.44h0l2-1,5-4c.89.65-.56,3.1,1.94,2.5l.3.28ZM21.25,17.83l-.73-.08.4.41.14.91c-.87-.31-2-1.14-2.56-.84-1.47.85-.23,1.71.42,2.48l-.74.19-.4-.41.08.73.39,3.12c.52-.6.91-1.29,1.15-2.05.14-.32.57-.84.7-.79,2.75.92,1.08-1.25,1.42-2l3-.91-.14-.4-3.13-.36ZM38.65,10.22l-.88-1c-.43.36-.81.78-1.13,1.24-.06.12.59.62.91.94l1.1-1.18ZM16.26,15.38c-.28.44-.62.83-.56.9.4.51.86.96,1.36,1.37.05,0,.41-.29.64-.45l-1.44-1.82Z"/>
    <path class="cls-1" d="M59.44,3.74H7.34c-1.08,0-2.15-.05-3.23-.07.74-.28,1.52-.47,2.31-.57,16.92,0,33.84,0,50.77,0,.78.11,1.53.33,2.25.64Z"/>
    <path class="cls-1" d="M3.65,4.09c0,16.95.02,33.9.05,50.86,0,1.49,0,3,.06,4.48-.31-.81-.53-1.64-.64-2.5V6.4c.09-.79.26-1.56.53-2.31Z"/>
    <path d="M57.55,146.44h-2.55l-50.9-.06-.46-.48c0-18.31,0-36.62,0-54.93,3.41-1,3.52-.78,4.06,2.55.83,5.11,2,10.16,3.09,15.23l-.32.31c-.52-.65-1.52-1.32-1.48-1.93.18-2.5-.74-4.95-2.51-6.72.37-.28,1.1-.64,1.06-.83-.24-1.27-.61-2.5-1.11-3.69-.43-.89-1.57-1.61.33-2.06-.05-.59-.14-1.18-.25-1.76l-1.58.35c.16,1.25.25,2.52.5,3.76.29,1.44.72,2.86,1.1,4.29l-1.85.13c.21.51.41,1,.64,1.53.13.31.3.59.45.88l.34,1.4.44,3.1c-2.1,1.31-2.49,3.64-1,5.86.26.4.47.82.62,1.27-1.62,1-.21,1.55.38,1.94,1.16.77,2.68,1.12,3.64,2.07,1.5,1.45,2.79,3.12,3.81,4.94.65,1.17.62,2.72.89,4.1.84-3.03.09-6.28-2-8.64-.34-.53-.62-1.1-.85-1.69l1,.59c.5.76,1,1.49,1.5,2.27,2.41,3.66,2.31,8.44-.25,12-.91,1.41-1.12.91-1.32-.29l.58-.42c.18-1.28.69-2.61.49-3.82-.46-2.73-3.2-1.12-4.71-2.11q2-.46,1.61-1.49l.35-.42,1.76-.23c-.18-.52-.42-1.02-.73-1.47-1.25-1.36-2.61-2.4-4.64-1.37-.36.18-1-.23-1.54-.36.08.62.12,1.26.26,1.87s.6,1,.48,1.34c-1,2.83,1.08,3.22,2.86,3.46,3.4.48,3.86.89,3.64,4.4l-.35.69-2.14.45c.14.59.36,1.16.64,1.7,1.24,1.7-.48,1.08-1,1.37l.48-.81c-.25,0-.53-.19-.74-.13-.66.2-1.3.48-1.6.6-.09-1,.11-2.08-.35-2.58-.65-.53-1.53-.68-2.32-.38-.67.64-1.06,1.52-1.09,2.44,0,.54.76,1.13,1.19,1.7l3.4.44c.79-.37,1.56-.77,2.37-1.08.37-.06.74-.06,1.11,0-.06.35-.18.69-.35,1-.48.63-1.05,1.19-1.59,1.78v.59l-1.44-.17-.91,1-.2.46c-.48-.27-1-.53-1.44-.82s-.82-.74-1-.65c-.36.16-.87.88-.78,1,.36.58.89,1.36,1.43,1.42s1.18-.64,1.78-1c.38.3.77.57,1.19.81.47.18.96.34,1.45.46,0-.55,0-1.11-.06-1.66,0-.31-.05-.62-.07-.94l.66.06c.49-.41,1.16-.73,1.44-1.25.93-1.73,1.47-.75,2.07.19l-1.29,1.28c-1.36,2.93-1,5.23,1.22,5.77.87.21,2.15-.55,3-1.21.24-.2-.28-2-.85-2.31s-1.72.28-2.61.47c.25-.61.49-1.23.74-1.85.35-.4.83-1.2,1-1.14,2.7.92,1.78-.9,1.66-2.11.64-.16,1.29-.26,1.94-.3,1.83.05,3.19.64,3.29,2.84.14,3.29.29,3.33,3.79,3.79.88.21,1.73.5,2.55.87l-.33-2.27c0-.07.02-.13.05-.19.62-1.87.28-3-1.36-4.08-.26-.18-.95-.25-1-.12-.25.41-.36.88-.32,1.35.14.55.35,1.09.62,1.59l-.39.34c-.45-.75-.91-1.49-1.57-2.58l-.48,2.11c-.66-1.37-1-3.23-2.12-4.09-1.45-1.05-3.47-.74-4.53.71-.02.03-.04.06-.06.09l-.93-1-.18.04,1.55-1h-.05l1.05-.52h-.05l1.56-.51-.06.03,7.54.49h0l4.57,4c-.64-.31-1.26-.68-1.84-1.09-2.61-2.28-6.14-3.19-9.53-2.45l4.59,1.35-.3.45.34.17-.09-.6c-.02-.08-.02-.17,0-.25.05-.05.11-.07.18-.06,1.74,1.27,3.41,2.62,5,4.06.69.93,1.23,1.96,1.62,3.05.75,1.42,1.65,1.94,2.86.45l1.71,1.34h.06l1.21.33,3-.84.45-1,5.61,1.47,1.51.39c0-.6,0-1.21-.08-1.82,1.51.45,3,1,4.53,1.33,1.21.27,2.44.4,3.68.41.14,0,.59-1.24.38-1.55-.44-.35-.99-.54-1.56-.54-1.07,2.29-2.05.36-3.13.07-1.26-.34-2.79-2-3.84.34l-2.65-1.92.35-.47c2.93.42,5.84,1,8.79,1.24,3.55.32,3.56.22,3.4,3.94l-1.81.15ZM9,143.48l1.63,1.31.55-1.23-1.5-.15-.34-1.49-.34,1.56ZM8.64,143c-.79-.48-1.39-1-1.57-.93-.61.45-1.18.97-1.68,1.55.37.36.9,1.08,1.07,1,.78-.46,1.51-1.01,2.18-1.62Z"/>
    <path d="M11.73,111.31c5.75,12.83,16.31,22.88,29.4,28-.05.07-.11.13-.16.19-2.45-.61-1,1.86-1.91,2.42-.76-.18-1.49-.48-2.16-.9-1-.94-1.75-2.27-2.85-3.11-1.74-1.3-3.68-2.33-5.53-3.48h0c-2.17-1.7-5.17-1.87-7.52-.43h.06l-1.56.51h.05l-1.05.52h.05l-1.55.97.05-.05-1.57-1.5,2.21-1.57-.42-.47-1.73,2.1c-.28-.59-1-1.44-.77-1.73,3.33-5.13,2.92-10.54-1.27-15.21l-1-1.06-3.5-3.51.4-.39,1.52.68.25-1.42.56-.56ZM21.29,132.24l3.11-.47v-.7h-3.51l.71-2.47-1.83.08-.33-.34-.85-2.74c-.49.95-.75,2-.76,3.07.14,1.13.37,2.24.69,3.33l2.48-1v.85l-.43.39h.72ZM38.98,140.24l-1.4-1.62-1,1c.35.44.75.83,1.2,1.16.22.1.67-.27,1.22-.5l-.02-.04Z"/>
    <path class="cls-1" d="M3.63,91v54.93c-.26-.84-.43-1.7-.52-2.57,0-16.59,0-33.19,0-49.78.09-.87.27-1.74.52-2.58Z"/>
    <path class="cls-1" d="M4.1,146.38l50.88.06c-.86.22-1.74.37-2.62.44H6.69c-.88-.08-1.74-.25-2.59-.5Z"/>
    <path d="M10.78,108.75l1,2.56-.56.57-1.77.74-.45.38-1.5-2.56c1.9.63,3,.1,3-1.39l.28-.3Z"/>
    <path d="M41.13,139.32l6.13,1.79-.35.47c-.92-.3-1.89-.45-2.86-.43-1.29.39-2.65-.33-3.04-1.62,0,0,0-.01,0-.02,0-.06.08-.12.13-.19Z"/>
    <path class="cls-1" d="M57.55,146.44l1.9-.15-1.9.15Z"/>
    <path d="M146.4,145.9l-.5.49c-9.23,0-18.46-.07-27.69-.06-7.73,0-15.46.07-23.19.11h-4.02c-1.09-3.3-.77-3.55,2.28-4,5.27-.81,10.48-2,15.72-3-.55.61-1.18,1.81-1.65,1.76-2.54-.27-5.07.59-6.92,2.35-.56-.37-1.23-1.12-1.68-1-1.17.35-2.3.83-3.36,1.45-.67.35-1.24,1-1.34-.44,0-.23-1-.57-1.43-.5-.44.16-.77.54-.86,1,.07.48.6,1.29.89,1.27,1.18-.11,2.35-.33,3.49-.66,1.46-.38,2.9-.84,4.35-1.26v1.85c.58-.19,1.16-.35,1.72-.57s.86-.43,1.28-.65l1.39-.19c1.53-.49,3.09-.92,4.58-1.51.48-.2,1.15-.82,1.13-1.23,0-.91,0-2.25-1.68-1.68,1-.51,2-1,3-1.52,18.6-9.1,28.75-23.97,30.46-44.61.26-3.13.65-3.43,4-2.33v4.01c.04,16.98.05,33.95.03,50.92ZM123.59,137.05l.08-.76,4.07-1.21c-4-.8-7.24.6-10,3.24l-.36-.43c3.58-3.95,7.9-5,12.91-3.29l1,.51.9.69.81.09-1.07,1.11-.18-.42-.21.23.45.12c-.64,2.52.69,2.56,2.51,2l.76,2.19c-.17.21-.33.58-.53.61-.82.13-2-.15-2.4.3-.39.73-.36,1.62.08,2.32.8.59,1.81.82,2.79.63,2-.65,2.44-3.08,1.25-5.49-1.42-2.9-.92-3.9,2.43-4.94l.59.94-1.05.23c1.53.43,3.1,1.27,4.57,1.11.86-.09,1.78-1.68,2.22-2.78.18-.43-.74-1.57-1.41-2-.66-.22-1.4-.08-1.93.37-.35.57-.09,1.5-.17,2.27,0,.2-.38.37-.57.55l-2.31-.61c.45-1.67.94-3.35-1.9-2.65l-.24-.49-.15.16.45.27-1.09,1.08-.8-1.7c-1.53-3.01-1.7-6.54-.44-9.68l3.24-4.23.42.36c-3.22,3.78-4.24,6.67-3.3,10.36.52-1.8.89-3.12,1.28-4.44l.82-.08,1.28-1.3h-.06c.29.33.55.9.87,1,.61,0,1.22-.11,1.8-.29h-.06l-2.72,2,2.5.57c-1.56.44-3.35.44-4.21,1.33s-.6,2.62-.84,4l.75.13c.26-1.79.17-3.93,2.74-4,1.77,0,3.51-.2,4.23-1.95.42-1.43.65-2.9.68-4.39,0-.16-.24-.52-.37-.51-1.27,0-2.74-.26-3.77.28-1.2.63-2,2-3,3l-.63.27c-.08,0-.16,0-.24,0-.04-.04-.07-.11-.06-.17.58-2.33,2.22-4.26,4.42-5.21,1.28-.66,2.5-1.44,3.65-2.32l.42-.75-1-.38c.4-.59.82-1.17,1.21-1.78,1.24-1.66.89-4.01-.77-5.25-.16-.12-.32-.22-.5-.31l.45-2.62.18-1.4c.22-.42.46-.84.64-1.28s.4-1.13.59-1.71h-1.84c.41-1.45.86-2.89,1.23-4.34.33-1.13.56-2.29.67-3.47,0-.29-.78-.83-1.26-.89-.46.09-.84.4-1,.84-.07.46.28,1.4.5,1.42,1.5.11.76.71.43,1.36-.63,1.06-1.12,2.18-1.48,3.36-.11.44.65,1.1,1,1.66-.8,2.11-1.59,4.21-2.4,6.31-.25.62-.53,1.23-.85,1.82-.26.49-.58,1-.88,1.43.47.19,1,.35,1.41.57,1.74.87,1.24-.81,1.65-1.45s.69-1.08,1-1.62l-2.47,5.45-1.63-1.2-.58,1.06c.64,0,1.27-.11,1.91-.14.11,0,.23.16.35.25-.67.7-1.41,1.36-2,2.11-1.65,2-3.24,4.11-4.86,6.17-1.69,3.34-1.49,7.33.51,10.49l1.3,1.26-1.52,1.53-1.63-2.12-.44.45,2.13,1.61-1.6,1.53-.38-.62-.85-.65-1-.53c-5.45-2.3-11.1-.74-15.28,4.37-1.84,2.24-3.76,4.21-6.78,4.71-.41.07-.76.45-1.15.68.29.37.63.71,1,1,2.48,1.37,4.39,0,6.29-1.37l.38,1,.75-.42c.84-1.37,1.76-2.69,2.5-4.11.94-2.08,2.95-3.48,5.23-3.64l-.3.62-.73.22c-1.8,1.28-3.22,2.68-2.12,5.2.17.38-.25,1-.4,1.53.63-.03,1.26-.1,1.88-.21.47-.1,1.05-.62,1.34-.47,2.39,1.19,3.28-.88,3.31-2.15.07-3,.9-4.83,4.3-4.84-3.76-1.16-5.55.11-5.46,3.95l-.81-1.82-1.66,2.55c-.09-.1-.19-.2-.3-.28l.39-3.14.5-.53ZM141.41,140.46c.93,1.77,2.11,1.16,3.12.19.26-.26,0-1.09-.06-1.66-.48.19-1,.34-1.43.57s-1.13.64-1.69,1l-.43-1.94c-1.68,1.06-2-.84-2.94-1.35-.32-.14-.66-.26-1-.36,0,.33-.09.77.08,1,.86,1,2.3,1.63,1.59,3.35.47.1,1,.38,1.4.26.51-.27.97-.63,1.36-1.06h0ZM128.72,132.2l.79.05-.43-.43c-.25-1.59.36-.4.73-.25.52.26,1.1.4,1.69.4.28,0,.68-.75.67-1.15,0-1.7-.2-3.4-.34-5.46-.41.55-.81.87-.76,1,.76,2.48-3.66,1.63-2.7,4.21-.41.04-.81.12-1.21.23-.52.18-1,.46-1.93.9l3.49.5ZM143,141.44c-.5.78-1.06,1.38-1,1.55.45.6.97,1.15,1.54,1.64.35-.35,1.06-.86,1-1-.44-.78-.96-1.51-1.54-2.19ZM141.77,143.39l-1-1.41c-.65.65-1.3,1.3-1.89,2,0,0,.76.94.87.88.7-.44,1.37-.93,2.01-1.47h.01ZM112.26,141c.45-.43.84-.92,1.15-1.46.06-.15-.61-.58-1-.89-.3.41-.56.85-.75,1.32-.01.25.34.6.6,1.03Z"/>
    <path class="cls-1" d="M95,146.44c7.73,0,15.46-.1,23.19-.11,9.23,0,18.46,0,27.69.06-.76.24-1.55.4-2.34.48h-46.17c-.8-.07-1.59-.21-2.37-.43Z"/>
    <path class="cls-1" d="M146.4,145.9v-50.89c.21.86.36,1.74.44,2.63v45.66c-.06.88-.21,1.75-.44,2.6Z"/>
    <path class="cls-1" d="M146.43,92.44v-1.44c0,.48,0,1,0,1.44Z"/>
    <path d="M84.52,3.63c1,3.65.75,3.91-2.71,3.9h-13.94c-1,0-2.52.9-2.74-1.35s.87-2.56,2.5-2.58h16.48l.2.08.21-.05ZM83.02,4.43c-.43.46-.94.77-1,1.11s.45.7.71,1.06c.38-.31.9-.56,1.08-1,.13-.16-.41-.6-.81-1.17h.02ZM80.26,5.7c-.51-.43-.94-1-1.16-.94-.43.14-.73.64-1.09,1,.34.27.67.76,1,.77s.72-.45,1.25-.83ZM76.26,5.57c-.54-.38-1-.91-1.24-.82-.4.19-.65.72-1,1.11.37.25.75.7,1.11.68s.69-.54,1.15-.97h-.02ZM67.06,4.43c-.4.52-1,1-.87,1.18.17.41.69.66,1.06,1,.26-.34.74-.69.73-1s-.48-.7-.9-1.18h-.02ZM72.92,5.94c-1.19-.77-1.7-1.28-1.89-1.18-.41.2-.65.73-1,1.13.39.24.76.64,1.15.67.62-.11,1.21-.32,1.76-.62h-.02Z"/>
    <path class="cls-1" d="M70.36,3.6h-2.73l-2-.52h17.34c.55.1,1.08.28,1.57.53h-.21l-.2-.08h-13.77v.07Z"/>
    <path d="M3.64,65.54c3.71-1,3.92-.79,3.9,2.92,0,4.38,0,8.76,0,13.13,0,3.71-.23,3.9-3.9,2.9v-18.95ZM6.88,71.06c-.49-.42-1-1-1.12-.93-.42.2-.71.68-1,1.05.34.28.68.76,1,.78s.64-.5,1.12-.9ZM5.77,73.78c-.45.48-1,.89-1,1.11.12.42.61.75,1,1.11.29-.32.79-.62.82-1s-.46-.68-.82-1.22ZM6.87,79.11c-.44-.46-.84-1.1-1-1-.44.22-.83.52-1.15.89.3.32.58.84.93.89s.7-.42,1.22-.78ZM5.49,84.62c.64-1,1.09-1.35,1.06-1.69s-.55-.63-.83-.93c-.33.36-.86.69-.94,1.1s.35.81.71,1.52ZM6.92,67c-.57-.38-1-.87-1.29-.81s-.61.62-.92,1c.35.3.68.81,1,.82s.7-.53,1.21-1.01Z"/>
    <path class="cls-1" d="M3.64,65.54v18.95c-.14-.19-.41-.39-.41-.59,0-5.92,0-11.85,0-17.78,0-.19.26-.39.41-.58Z"/>
    <path d="M65.54,146.39c-.93-3.67-.76-3.89,2.77-3.88h13.48c3.49,0,3.73.32,2.69,3.89h-18.94ZM68.35,144.46c-.47-.43-.78-.94-1.11-1s-.74.44-1.11.68c.32.39.58.91,1,1.1.2.14.68-.39,1.22-.78ZM71.07,143.18c-.42.49-1,1-.94,1.12.2.43.69.72,1.06,1.06.28-.35.77-.68.78-1s-.49-.7-.9-1.18h0ZM76.55,144.32c-.6-.39-1-.82-1.35-.82s-.75.43-1.13.67c.31.39.56.93,1,1.12.17.1.66-.43,1.48-.97ZM80.26,144.5c-.47-.45-.78-1-1.11-1s-.76.42-1.14.66c.32.39.56.93,1,1.12.19.11.68-.42,1.25-.78ZM84.2,144.44c-.48-.41-.8-.91-1.13-.93s-.72.45-1.09.7c.33.38.59.9,1,1.08.2.09.68-.45,1.22-.85Z"/>
    <path class="cls-1" d="M65.54,146.39h18.94c-.6.23-1.22.39-1.86.47-5.07.04-10.15.04-15.23,0-.63-.08-1.26-.23-1.85-.47Z"/>
    <path d="M146.4,84.46c-3.55,1.05-3.9.8-3.89-2.67v-13.48c0-3.54.15-3.67,3.88-2.8.01,6.33.02,12.64,0,18.95ZM144.11,69c.76-1.2,1.27-1.7,1.17-1.9-.19-.4-.73-.63-1.13-.93-.23.37-.64.74-.66,1.13s.3.86.62,1.7ZM145.62,71.11c-.49-.43-.93-1-1.13-1-.42.14-.71.65-1.05,1,.33.28.65.79,1,.8s.67-.43,1.18-.82v.02ZM145.62,82.99c-.49-.42-.92-1-1.13-.92-.41.14-.7.64-1,1,.33.28.65.79,1,.79s.62-.49,1.13-.86h0ZM145.62,78.99c-.48-.42-.81-.93-1.16-.94s-.67.5-1,.77c.32.38.59.89,1,1.07.18.11.65-.48,1.16-.89h0ZM144.45,73.76c-.43.48-.93.8-.94,1.13s.44.74.69,1.11c.38-.33.91-.59,1.09-1,.09-.19-.45-.68-.84-1.22v-.02Z"/>
    <path class="cls-1" d="M146.4,84.46v-18.95c.24.51.4,1.05.48,1.61.04,5.24.04,10.48,0,15.73-.08.56-.24,1.1-.48,1.61Z"/>
    <path class="cls-1" d="M128.35,19.42l-2.71-.69.09-.63c1.71-.19,3.44-.26,5.16-.22,2.2.18,1.85-2.26,3.25-2.81-.14-.21-.25-.56-.41-.58-.33-.04-.66.02-.95.18-5.39,3.33-10.16,3.07-14.85-.83v-.8c5.61,3.89,9.8,4.21,14.22,1.25,1.4-.94.9-1.13-.29-1.33l.14.04c.15-.71.31-1.42.47-2.13.7.26,1.37.6,2,1,1.23,1,2.36,2.08,3.52,3.14l-.05-.07.56.67.5-.61-.06.06.87-.22.33.4c-.41.37-1.23.89-1.16,1.09,1,2.85-1,1.54-2.07,1.61l.09.06-1.11-1.1.06.06c-.53-.16-1.15-.57-1.58-.43-2.84.91-1.83,3.55-2.34,5.51l-.22-.16.16-.92v-.8l-.94.9v-.07l-2.49.61c.08-.61.17-1.23.25-1.84,0-.26.06-.52.08-.78l-.52.44ZM129.93,18.25c-.06-.05-.12-.15-.16-.14-.11.03-.21.07-.31.13,0,.05.11.15.15.14.11-.03.22-.08.32-.13h0Z"/>
    <path class="cls-1" d="M116.65,12.73c-1.05-1.25-2.17-2.45-3.35-3.59-.73-.49-1.53-.88-2.37-1.14l.06.07-.54-.57h.06c-.26-.18-.53-.34-.81-.48-.72-.3-1.44-.58-2.17-.87.75-.58,1.58-1.04,2.47-1.36.89-.1,1.79,0,2.64.29.93.22,1.59,2.06,2.79.39.41.26.78.56,1.1.92.67,1,1.26,2.13,1.84,3.23,1.32,2.49,2.81,4.51,6.18,4.11,1-.11,2,.89,3.21,1.45-2.87.57-5.85-.13-8.16-1.92-.55-.31-1.12-.56-1.72-.76l.07.06-.61-1.32-1.59-1.94-.75-.8-.5-.49-.5-.48-1.14-.41c0-.11.1-.23.16-.34l-.36-.07.26.38.8.62.54.53.45.56.73.79,1.49,2,.26.6-.54.54Z"/>
    <path class="cls-1" d="M140.48,36.5l-3-3,.47-.47c.15,0,.29.03.44.06l.81.77.57.35.62.37.78.7.57.47.51.52.65.82.46.2v-.22l-.49.09-.4-1.16-.48-.52-.51-.48-.79-.69-.63-.38-.54-.46-.73-.75c-2.89-2.56-4.46-6.29-4.25-10.15l.66-.14c.26,1.31.23,2.79.85,3.9,1,1.83,2.25,3.51,3.71,5,.88.89,2.38,1.14,3.44,1.89.64.45,2.44.92.66,2.26.19.45.44.88.73,1.27,1.46,2.22,1,4.75-1.13,5.7h.05l-3.05-6,.02.05Z"/>
    <path class="cls-1" d="M139.15,26.79l1.22.32,1,.2-.7-.55-2.58-1.6,2.17-.49c-4.44-.62-6.35-2.4-3.3-6.66l-.06-.06c-.11.56-.24,1.13-.31,1.7-.25,2.12.85,3.35,3.11,3.48,2.93.16,3.43.73,3.44,3.57,0,.52.51,1,.64,1.57.08.54.1,1.08.06,1.62-.43-.19-.89-.3-1.36-.35-.43,0-1,.61-1.22.48-1.5-1-2.91-2.13-4.36-3.22.18-.07.39-.25.51-.2s.38.29.56.45l-.05-.05.77.3.46-.51Z"/>
    <path class="cls-1" d="M122.89,9.59c.16.54.36,1.06.62,1.56,1,1.66-.56.62-.89.87l-.75.07h0l-.69-1v.13h-.13c0-.06.11-.11.15-.17s0-.13-.06-.12l-.2.08c-.51-.89-2.08-1.75-.07-2.7-2.16-5.12,1.34-1.32,2.28-1.41.75-.02,1.5.03,2.24.13l.28.17h0c-.04.06-.06.13-.08.2,0,0,0,.13.07.13.07-.01.14-.03.2-.06.43.64.75,1.35.95,2.09.44,3.55.87,3.95,4.4,3.73l.19.17c-3.36,2-5.11.89-5.81-4.07l-.87,2.36-1.53-2.56-.58-.69.28,1.09Z"/>
    <path class="cls-1" d="M109,10.58c-.47-1.28-1.12-1.67-2.71-1.79-2-.15-3.93-1.51-5.9-2.35l.06.06c-.4-1.72-.31-2,1.73-1.37,2.76.8,5.18,2.93,8.31,2.41h-.06l.54.57-.04-.11c-.79.74.57,3.17-2,2.52l.07.06Z"/>
    <path class="cls-1" d="M143.44,42.46c.14.87.29,1.74.43,2.62l.17,1.39c.26.51.56,1,.78,1.53s.32,1,.47,1.55l-1.86-.07.06.05c-1.71-1.72-2.58-4.11-2.36-6.53,0-.45-.46-.94-.71-1.41l-1-1.84c.65-.29,1.36-.45,2.07-.47.39.07.72.92.9,1.48s.08,1.14.2,1.69c0,.08.58,0,.89.06l-.04-.05Z"/>
    <path class="cls-1" d="M136.8,9.48c-.05.32-.15.62-.3.91-.33.41-.69.8-1.07,1.16-.23-.61-.43-1.24-.58-1.87-.03-.18.02-.37.13-.52-1.11-.57-2.31-.87-2.94-1.64-.28-.34.58-2.34.94-2.34,1.17.14,2.3.44,3.38.91v1.54l.06,1.89.16-.08.22.04Z"/>
    <path class="cls-1" d="M139.24,13.77c2.79-1.27,4.73-1.09,5.58.81.32.94.23,1.98-.25,2.85-.63.55-1.5.72-2.29.46-.54-.34-.44-1.57-.83-2.3-.14-.27-.87-.23-1.33-.34l-.33-.4,1.09-.87h1c-.04-.08-.08-.16-.12-.24l-.8.31-1.44.05c-.11-.1-.2-.22-.28-.33Z"/>
    <path class="cls-1" d="M100.41,6.44c-.28.38-.64,1.11-.82,1.06-1.32-.33-2.62-.74-3.9-1.22-.69-.28-1.41-1.57-1.69.31,0,.23-.85.52-1.23.44s-1-.61-1-.93.49-1.36.73-1.34c1.23.11,2.46.31,3.66.62,1.44.34,2.87.75,4.3,1.13l-.05-.07Z"/>
    <path class="cls-1" d="M143.43,49.48c.45,1.5.93,3,1.34,4.52.34,1.05.56,2.14.64,3.24,0,.36-.86.87-1.4,1-.24.07-.95-.54-1-.89s.31-1.38.56-1.4c1.65-.13.62-.82.35-1.37-.6-.97-1.08-2.01-1.41-3.1-.11-.57.62-1.32,1-2h-.08Z"/>
    <path class="cls-1" d="M141.33,9.43c.23,1,1.12,2.48-1.28,1.76-.41-.12-1.12.89-1.74,1.3-.43.25-.88.47-1.35.64.14-.45.3-.89.5-1.31.45-.84,2.26-1.11,1.09-2.63.49-.22,1-.66,1.47-.61s.92.59,1.37.91l-.06-.06Z"/>
    <path class="cls-1" d="M135.84,16.91c-.36.8-.66,1.62-.9,2.46-.54,2.45-1,4.93-1.38,6.94-1.36-2.26-.48-6.61,2.34-9.34l-.06-.06Z"/>
    <path class="cls-1" d="M141.39,9.49c.88-.25,1.79-.42,2.71-.49.28,0,.72.85.75,1.33,0,.3-.59.63-.92,1-.22-.42-.5-.81-.84-1.14-.56-.3-1.15-.55-1.76-.73l.06.03Z"/>
    <path class="cls-1" d="M143.6,4.89c.5.77,1.09,1.38,1,1.55-.44.61-.98,1.14-1.6,1.56-.06,0-1-.81-.92-1,.44-.75.95-1.46,1.52-2.11Z"/>
    <path class="cls-1" d="M141.71,6.76l-1,1.25-1.91-1.82c.38-.35,1-1.08,1.11-1,.65.46,1.25.99,1.8,1.57Z"/>
    <path class="cls-1" d="M137,33l-3.53-5,.62-.43,3.36,5-.45.43Z"/>
    <path class="cls-1" d="M112.21,8.56c.6.85,1.07,1.28,1.18,1.78.06.28-.48.69-.76,1.05-.31-.3-.81-.56-.89-.91s.18-.87.47-1.92Z"/>
    <path class="cls-1" d="M140.44,36.46l-.35,1.9-1.46-.67,1.85-1.19-.04-.04Z"/>
    <path class="cls-1" d="M136.41,7.63v-1.54c.14,1.13.29,2.26.44,3.39h-.17l-.16.08-.11-1.93Z"/>
    <path class="cls-1" d="M132,22.05c.02.33.02.67,0,1-.05.43-.14.85-.22,1.28l-.78-1.33.77-1.09.23.14Z"/>
    <path class="cls-1" d="M131.76,21.89l-.76,1.11v-2,.07l1-.1-.24.92Z"/>
    <path class="cls-1" d="M138,15.08l1.28-1.31c.08.11.17.21.25.31l-.57,1,.04-.08h-1.07l.07.08Z"/>
    <path class="cls-1" d="M118,13v.8l-1.28-1.11.51-.53.76.36-.07-.06c-.04.22,0,.4.08.54Z"/>
    <path class="cls-1" d="M137,33l.45-.45.52.5-.47.47-.5-.52Z"/>
    <path class="cls-1" d="M144,46.47l-.17-1.39c.09.46.17.92.17,1.39Z"/>
    <path class="cls-1" d="M121.22,11.14l.69,1-.69-1Z"/>
    <path class="cls-1" d="M121.87,12.09l.75-.07.36.49c-.1.1-.19.21-.27.33l-.84-.75Z"/>
    <path class="cls-1" d="M138,27.05l1.19-.26-.47.51-.77-.3.05.05Z"/>
    <path class="cls-1" d="M125.7,7.24l-.28-.17c.12,0,.23.06.28.17Z"/>
    <path class="cls-1" d="M131.89,13l-.42.59-.19-.17.72-.42h-.11Z"/>
    <path class="cls-1" d="M123,12.51l.47.35h-.74c.08-.13.17-.24.27-.35Z"/>
    <path class="cls-1" d="M125.93,7.56c-.06.03-.13.05-.2.06,0,0-.07-.09-.07-.13.02-.07.04-.14.08-.2.12.04.19.15.19.27Z"/>
    <path class="cls-1" d="M121,11.05l.2-.08s.07.09.06.12-.1.11-.15.17c-.09-.02-.14-.11-.11-.2,0,0,0-.01,0-.01Z"/>
    <path class="cls-1" d="M39.06,8l-5,4-.47-.48c-.01-.15-.01-.3,0-.45l1-1.46.43-.57.76-.74.22-.8,1-.5.39-.21-.32-.12v.38l-1,.47-.54.48-.82.73c-.12.2-.24.4-.37.59l-1.14,1.41-.62,1.34.06-.06c-.65.31-1.29.66-1.9,1.05-2.31,1.82-5.23,2.67-8.16,2.39l-.16-.7c1.44-.25,3-.17,4.27-.83,1.74-1.01,3.33-2.25,4.73-3.7.72-.71.82-2,1.51-2.8s.73-3.2,2.65-1.15c.05.05.68-.61,1.09-.68,1.46-.33,2.95-.48,4.44-.46.51,0,.93,1.26,1.39,2h.06l-3.07.51h.06l-.55.43.06-.07Z"/>
    <path class="cls-1" d="M12,34l-2.29,2.18-2.8,5.11-.69,1.21c-.33-.33-.79-.6-1-1-.22-.59-.22-1.31-.56-1.89-.91-1.82,2-2.56,1.23-4.63-.2-.56,2.13-2.43,3.58-3.11,2.06-.92,3.66-2.64,4.42-4.77.1-.28-.23-.72-.35-1.09h0l1.54-3.67c.71,4.57-1.19,8-4.38,10.82l-.7.84-.6.41-.4.41.68-.21.66-.34.8-.7h.46l.4.43ZM8,35.51l-.37.49.7-.14.16-.72-.49.37ZM7,37.05l-.65.31-.03.64.19-.07c0-.2-.07-.39-.1-.57l.64-.3.37-.45-.23-.08-.19.52Z"/>
    <path class="cls-1" d="M18.53,13.56c4-.2,3.87-.23,4.7-4.22.32-1.52.77-3.64,3.37-2.47.26.12.72-.29,1.11-.37.69-.16,1.4-.26,2.11-.38-.23.56-.38,1.16-.45,1.76,0,.76.61,1.67.35,2.22-.57,1-1.3,1.9-2.16,2.67-.2.21-.7.15-1.06.21-.14-.49-.18-1-.11-1.5.45-.88.73-1.84.85-2.82l-2,3.23-.53-2.33c-.49,3.74-1.55,6.54-6.11,4h-.07Z"/>
    <path class="cls-1" d="M11.13,29c-.89.5-1.74,2.07-2.74.12-4.93,2.14-1.53-1.2-1.39-2.23.29-3.44.41-3.57,3.72-3.75s2.62-2.68,2.91-4.65l-.05.05c1.26,1.08,1.41,2.97.33,4.23,0,0,0,0,0,0-.9,1-2.63,1.3-4,1.9l2,.51-3.19,2.07c.9-.1,1.78-.34,2.6-.73.13,0,.48.52.72.8l-.91,1.68Z"/>
    <path class="cls-1" d="M17.07,14.06l-3.05,3,.06-.06-1.08,1.06.06-.07-2.18-.37c.29-.63.53-1.29.87-1.88.42-.75.93-1.44,1.4-2.15-1.61-.1-1.57-3.06-3.75-2.16l-.79-2-.06.07.87-.88h0c1-.18,2.29-1.2,1.92,1.26-.14.91,1.35,2.09,2.2,3.07.11.13.85-.12,1.17-.36,2.73-2,2.72-2.05,3.85.89h0l-1.49.58Z"/>
    <path class="cls-1" d="M41,10.5c-2.5.6-1-1.85-1.94-2.5l-.06.07.54-.57h-.06l3.08-.5h-.06l6.5-2.38.48,1.89.06-.06c-1.9.84-3.74,2.13-5.7,2.36-1.44.19-2.26.46-2.84,1.69Z"/>
    <path class="cls-1" d="M9.42,13.67l-2.75.33,3.6.52c-.71.56-1.26.8-1.51,1.23-.4.69-.41,1.79-1,2.16-.72.28-1.54.16-2.15-.32-.57-.73-.79-1.68-.61-2.59.86-2.14,2.62-2.5,4.67-1.68-.05.13-.15.24-.25.35Z"/>
    <path class="cls-1" d="M7.12,48.65l-.66.91.06-.05-1.64.13c.06-.5.16-.99.28-1.48.45-1.54.94-3.06,1.42-4.58l.17.44.31-.74c.15-.95.38-1.89.69-2.8.26-.52.74-.89,1.31-1,1-.08,2.08,0,1.46,1.58l.06-.07-2.05,1.07-1.41,6.59Z"/>
    <path class="cls-1" d="M13.35,9.69c0-1-.39-2.18,0-3,.58-1.49,2-2.51,3.53-1.6.82.66,1.23,1.7,1.09,2.74-.76,1.94-2.19.79-3.39.24h0l-.21-.65c-.19.12-.5.22-.53.37-.09.54-.14,1.09-.17,1.64l-.32.26Z"/>
    <path class="cls-1" d="M32,13c.14.15.43.39.4.44-2.57,4.42-12.09,4.76-15.4.56,2.07.75,4.09,1.85,6.22,2.17,3.39.51,6.26-1.06,8.78-3.17Z"/>
    <path class="cls-1" d="M49.51,6.51c1.45-.36,2.88-.75,4.33-1.08,1.2-.33,2.43-.56,3.67-.7.25,0,.76.84.79,1.33,0,.31-.54.85-.93,1s-1.23-.17-1.26-.37c-.29-1.73-1-.74-1.73-.39-1.17.54-2.4.97-3.66,1.27-.29.06-.76-.69-1.15-1.07h-.06Z"/>
    <path class="cls-1" d="M6.46,49.56c.38.55,1.18,1.21,1.07,1.63-.45,1.23-.96,2.43-1.53,3.6-.11.29.22.75.38,1.12s.7,1,.6,1.42c-.19.51-.63.89-1.17,1-.44,0-1.22-.69-1.19-1,.17-1.17.43-2.32.78-3.45l1.08-4.33h-.02Z"/>
    <path class="cls-1" d="M8.63,9.46c-.55.37-1.07.76-1.63,1.09-.41.22-.84.42-1.28.59-.1-.56-.48-1.39-.25-1.64,1-1,2.08-1.71,3.1,0l.06-.04Z"/>
    <path class="cls-1" d="M7.12,48.65l1.41-6.59c0,.14,0,.29,0,.43l.28,1-1.69,5.16Z"/>
    <path class="cls-1" d="M9.44,8.65c-.08-1.03-.11-2.07-.08-3.1,0-.13.87-.35,1.27-.26.35.18.58.53.61.92,0,.26-.5.49-.71.78-.41.55-.76,1.13-1.14,1.7l.05-.04Z"/>
    <path class="cls-1" d="M8.62,7c-.75.5-1.32,1.09-1.49,1-.64-.41-1.2-.92-1.65-1.53-.05-.06.78-1.07.92-1,.79.44,1.53.95,2.22,1.53Z"/>
    <path class="cls-1" d="M10.11,36.58l1.07,1.58-1.78-.06.71-1.52Z"/>
    <path class="cls-1" d="M11.13,29l.87-1.68,1-.78h0l-1.87,2.46Z"/>
    <path class="cls-1" d="M33.55,11.54l.45.46-2,1,.64-1-.06.06.97-.52Z"/>
    <path class="cls-1" d="M7.06,43.28l-.31.72-.17-.44.48-.28Z"/>
    <path class="cls-1" d="M13.67,9.42l.28,1-.6-.75.32-.25Z"/>
    <path class="cls-1" d="M9.71,13.33l.76.61-1.05-.27c.1-.11.2-.22.29-.34Z"/>
    <path class="cls-1" d="M8.84,43.53l-.28-1,.28,1Z"/>
    <path class="cls-1" d="M13.54,26c-.17.17-.34.34-.5.52h0l.54-.49-.04-.03Z"/>
    <path class="cls-1" d="M13.58,18.49l-.5-.5-.06.07.51.48.05-.05Z"/>
    <path class="cls-1" d="M11.14,14.25l.16-.18c.07.1.12.2.16.31l-.16.16-.16-.29Z"/>
    <path class="cls-1" d="M14.14,11.2l.18-.16c.06.11.11.22.15.33,0,0-.1.1-.15.16l-.18-.33Z"/>
    <path class="cls-1" d="M14.54,8l-.15.42-.19-.25.38-.13-.04-.04Z"/>
    <path class="cls-1" d="M18.17,20.9l.74-.19c-.65-.77-1.89-1.63-.42-2.48.52-.3,1.69.53,2.56.84l-.05-.07.56.55h-.06c-.34.74,1.33,2.91-1.42,2-.13-.05-.56.47-.7.79-.24.76-.63,1.45-1.15,2.05l-.39-3.12c.16-.15.22-.27.33-.37Z"/>
    <path class="cls-1" d="M14.66,17.43c3.52,4.52,3.08,10.37-1.13,15l-.42-.43c3.42-4.5,4.54-9.18,1.12-14.22l.43-.35Z"/>
    <path class="cls-1" d="M21.05,19.07l-.14-.91.33-.33,3.1.37.14.4-3,.91h.06l-.54-.51.05.07Z"/>
    <path class="cls-1" d="M38.64,10.22l-1.1,1.17c-.32-.32-1-.82-.91-.94.32-.46.7-.88,1.13-1.24l.88,1.01Z"/>
    <path class="cls-1" d="M16.26,15.38l1.44,1.82c-.23.16-.59.49-.64.45-.5-.41-.96-.86-1.36-1.37-.06-.07.3-.46.56-.9Z"/>
    <path class="cls-1" d="M13.11,32l.42.45-1.53,1.55-.48-.47,1.59-1.53Z"/>
    <path class="cls-1" d="M17.85,21.22l-.08-.73.4.41c-.11.1-.17.22-.32.32Z"/>
    <path class="cls-1" d="M20.91,18.16l-.4-.41.73.08-.33.33Z"/>
    <path class="cls-1" d="M14,17.06l.64.37-.43.38-.13-.81-.08.06Z"/>
    <path class="cls-1" d="M7.5,110.46l1.5,2.54,3.52,3.47-.46.47c-.15,0-.29-.03-.44-.06l-.81-.75-.59-.35-.62-.38-.77-.71-.57-.46-.5-.54-.67-.78-.42-.25v.21h.46l.42,1.13.48.52.5.49.77.73.65.35.55.45.81.83.77.07h-.06c.23.59.51,1.16.85,1.69,2.09,2.36,2.84,5.61,2,8.64-.27-1.38-.24-2.93-.89-4.1-1.01-1.82-2.29-3.49-3.78-4.94-1-1-2.48-1.3-3.64-2.07-.59-.39-2-.93-.38-1.94-.15-.45-.36-.87-.62-1.27-1.49-2.22-1.1-4.55,1-5.86v-.05l1,3.05-.06-.13Z"/>
    <path class="cls-1" d="M15.5,134.42l1.57,1.5.93,1-.06-.06c.12,1.21,1,3-1.66,2.11-.19-.06-.67.74-1,1.14l-.38-.31.21-.88-.11.08.65-.51-.65-.56.06.05c-.57-.98-1.06-1.98-2.06-.21-.28.52-.95.84-1.44,1.25l-.54-.56c.54-.59,1.11-1.15,1.59-1.78.17-.31.29-.65.35-1-.37-.06-.74-.06-1.11,0-.81.31-1.58.71-2.37,1.08-.08-.1-.08-.24,0-.34l.06-.54-.07.06,1.07-.56-.07.06c.55-.29,2.27.33,1-1.37-.28-.54-.5-1.11-.64-1.7l2.14-.45-.06-.07c.2,1.2.41,1.7,1.32.29,2.56-3.56,2.66-8.34.25-12-.46-.78-1-1.51-1.5-2.27l.46-.41c4.19,4.67,4.6,10.08,1.27,15.21-.19.29.49,1.14.77,1.73l.02.02Z"/>
    <path class="cls-1" d="M18,136.92c1-1.48,3.02-1.87,4.5-.86.03.02.06.04.09.06,1.12.86,1.46,2.72,2.12,4.09l.48-2.11c.66,1.09,1.12,1.83,1.57,2.58l.59.7-.2-1c-.27-.5-.48-1.04-.62-1.59-.04-.47.07-.94.32-1.35.07-.13.76-.06,1,.12,1.64,1.12,2,2.21,1.36,4.08-.03.06-.04.12-.05.19l.33,2.27c-.82-.37-1.67-.66-2.55-.87-3.5-.46-3.65-.5-3.79-3.79-.1-2.2-1.46-2.79-3.29-2.84-.65.04-1.3.14-1.94.3l.08.02Z"/>
    <path class="cls-1" d="M13.4,131.27c.22-3.51-.24-3.92-3.64-4.4-1.78-.24-3.89-.63-2.86-3.46.12-.34-.38-.87-.48-1.34s-.18-1.25-.26-1.87c.52.13,1.18.54,1.54.36,2-1,3.39,0,4.64,1.37.31.45.55.95.73,1.47l-1.76.23-.66-.27-1-.34.68.74.66.29q.4,1-1.61,1.49c1.51,1,4.25-.62,4.71,2.11.2,1.21-.31,2.54-.49,3.82-.09-.07-.15-.13-.2-.2ZM9,122.71c-.07,0-.12-.15-.19-.15s-.12.09-.18.15.11.16.17.16.12-.09.2-.16Z"/>
    <path class="cls-1" d="M41,139.51c.38,1.29,1.73,2.03,3.03,1.66.02,0,.04-.01.05-.02.97-.02,1.94.13,2.86.43l2.65,1.92-.06-.06.08,1.82-1.51-.39-5.61-1.47v.08c-.17-.35-.29-.94-.53-1-.66-.1-1.33-.12-2-.07h.06l-1.02-.5h.06c.94-.54-.54-3.01,1.94-2.4Z"/>
    <path class="cls-1" d="M26.32,136.29l-4.6-1.35c3.39-.74,6.92.17,9.53,2.45.58.41,1.2.78,1.84,1.09l-.06-.07,1.54,2.06v-.06l.52,1.07v-.06l.56.56-.06-.06.56.56-.06-.06c0,.17,0,.33.07.49l-.08.65c-1.21,1.49-2.11,1-2.86-.45-.39-1.09-.93-2.12-1.62-3.05-1.59-1.44-3.26-2.79-5-4.06-.07,0-.13.01-.18.06-.02.08-.02.17,0,.25l-.1-.02Z"/>
    <path class="cls-1" d="M10.46,109.06c0,1.49-1.06,2-3,1.39l.06.06c-.23-1.06,1.1-2.65-1-3.05v.05c-.15-1-.29-2.06-.44-3.1-.11-.46-.23-.93-.34-1.4-.15-.29-.32-.57-.45-.88-.23-.5-.43-1-.64-1.53l1.85-.13-.06-.06c1.79,1.76,2.73,4.21,2.56,6.72-.06.61.94,1.28,1.46,1.93Z"/>
    <path class="cls-1" d="M28.52,134.44c1.85,1.15,3.79,2.18,5.53,3.48,1.1.84,1.81,2.17,2.85,3.11.67.42,1.4.72,2.16.9h-.06l1.07.54h-.06l.59.78,1.4,1.16-3,.84-1.21-.33h-.06l-.7-1.37-1-1.11.06.06-.56-.56.06.06-.56-.56v.06c-.17-.36-.34-.72-.52-1.07v.06l-1.51-2.08.06.07-4.54-4.04Z"/>
    <path class="cls-1" d="M14.52,142c.89-.19,2-.79,2.61-.47s1.09,2.11.85,2.31c-.81.66-2.09,1.42-3,1.21-2.2-.54-2.58-2.84-1.22-5.77l.29.24-.05,1.48.05-.08.15,1.86.35-.83-.03.05Z"/>
    <path class="cls-1" d="M6.1,136.36c-.43-.57-1.22-1.16-1.19-1.7.03-.92.42-1.8,1.09-2.44.78-.3,1.65-.17,2.31.34.46.5.26,1.6.35,2.58.3-.12.94-.4,1.6-.6.21-.06.49.08.74.13l-.48.81.07-.06-1.07.58.07-.06-1.94.48-1.55-.06Z"/>
    <path class="cls-1" d="M6.53,100.47c-.38-1.43-.81-2.85-1.1-4.29-.25-1.24-.34-2.51-.5-3.76l1.58-.35c.11.58.2,1.17.25,1.76-1.9.45-.73,1.2-.34,2.06.5,1.19.87,2.42,1.11,3.69,0,.19-.69.55-1.06.83l.06.06Z"/>
    <path class="cls-1" d="M49.56,143.5c1-2.37,2.58-.68,3.84-.34,1.08.29,2.06,2.22,3.13-.07.57,0,1.12.19,1.56.54.21.31-.24,1.55-.38,1.55-1.24,0-2.47-.14-3.68-.41-1.53-.35-3-.88-4.53-1.33l.06.06Z"/>
    <path class="cls-1" d="M21,134c2.37-1.44,5.38-1.24,7.54.49l-7.54-.49Z"/>
    <path class="cls-1" d="M8.64,143c-.67.61-1.4,1.16-2.18,1.62-.17.08-.7-.64-1.07-1,.5-.6,1.06-1.14,1.68-1.62.18-.07.78.49,1.57,1Z"/>
    <path class="cls-1" d="M8.4,140.29c-.59.37-1.22,1.07-1.77,1s-1.07-.84-1.43-1.42c-.09-.14.42-.86.78-1,.21-.09.67.43,1,.65s1,.55,1.45.83l-.03-.06Z"/>
    <path class="cls-1" d="M10.92,139c0,.32.06.63.07.94,0,.55,0,1.11.06,1.66-.49-.12-.98-.28-1.45-.46-.42-.24-.81-.51-1.19-.81l.05.05c.06-.16.12-.31.19-.47l.91-1,1.44.17-.08-.08Z"/>
    <path class="cls-1" d="M9.66,143.41l1.5.15-.55,1.23-1.61-1.31.66-.07Z"/>
    <path class="cls-1" d="M6.1,136.36h1.55l1.88.06c-.08.1-.08.24,0,.34l-3.43-.4Z"/>
    <path class="cls-1" d="M37,143.53l.7,1.37-1.7-1.34c0-.22,0-.43.07-.65l.93.62Z"/>
    <path class="cls-1" d="M42,144.41l-1.41-1.22,1.9.29v-.08l-.49,1.01Z"/>
    <path class="cls-1" d="M15.26,140.11c-.25.62-.49,1.24-.74,1.85h.06l-.5-1-.08.04c.28-.39.57-.78.85-1.18l.41.29Z"/>
    <path class="cls-1" d="M13.8,139.24l1.29-1.24-.06-.05v1.05l.06-.06-1,.56-.29-.26Z"/>
    <path class="cls-1" d="M13.52,117.54l-.46.41-1-.59h.06c.09-.14.09-.32,0-.46l.46-.47.94,1.11Z"/>
    <path class="cls-1" d="M9.66,143.41l-.68.07c.12-.52.23-1,.34-1.56l.34,1.49Z"/>
    <path class="cls-1" d="M9.56,138.88l-.91,1,.91-1Z"/>
    <path class="cls-1" d="M17,136l1.55-1-1.55,1Z"/>
    <path class="cls-1" d="M37.76,144.92l1.21.33-1.21-.33Z"/>
    <path class="cls-1" d="M19.52,134.46l1.56-.51-1.56.51Z"/>
    <path class="cls-1" d="M10.92,139l.08.09v-.59l.54.56-.62-.06Z"/>
    <path class="cls-1" d="M5.77,103c.11.47.23.94.34,1.4-.11-.46-.23-.92-.34-1.4Z"/>
    <path class="cls-1" d="M6.51,92.07l-1.58.35,1.58-.35Z"/>
    <path class="cls-1" d="M18.52,135l1.05-.52-1.05.52Z"/>
    <path class="cls-1" d="M26.26,136.31l.09.6-.34-.17.3-.45-.05.02Z"/>
    <path class="cls-1" d="M13.05,132l.35-.69c0,.07.11.13.17.2l-.58.42.06.07Z"/>
    <path class="cls-1" d="M21,131l-2.43,1c-.32-1.09-.55-2.2-.69-3.33,0-1.07.27-2.12.76-3.07.28.92.56,1.83.85,2.74l-.41.6-.51.27.16.17.38-.42.71-.28,1.83-.08c-.24.82-.47,1.65-.7,2.47l.05-.07Z"/>
    <path class="cls-1" d="M9.4,112.62l1.77-.74-.25,1.42-1.52-.68Z"/>
    <path class="cls-1" d="M39,140.28c-.53.23-1,.6-1.22.49-.45-.33-.85-.72-1.2-1.16l1-1,1.42,1.67Z"/>
    <path class="cls-1" d="M21,131.86v-.86h-.06,3.5v.7l-3.11.47c-.1-.11-.21-.21-.33-.31Z"/>
    <path class="cls-1" d="M15.56,134.48l1.73-2.1.42.47-2.21,1.57.06.06Z"/>
    <path class="cls-1" d="M21.29,132.24h-.76l.43-.39c.12.12.23.25.33.39Z"/>
    <path class="cls-1" d="M130.31,134.6c-5-1.69-9.33-.66-12.91,3.29l-2.64,3.34c-.07.24-.13.47-.19.71l.44-.45,2.75-3.17c2.74-2.64,5.95-4,10-3.24l-4.07,1.21h.06c-2.28.17-4.28,1.56-5.22,3.64-.74,1.42-1.66,2.74-2.5,4.11l-1.13-.57c-1.9,1.33-3.81,2.74-6.29,1.37-.37-.29-.71-.63-1-1,.39-.23.74-.61,1.15-.68,3-.5,4.94-2.47,6.78-4.71,4.18-5.11,9.83-6.67,15.28-4.37l-.51.52ZM113.54,143c-.23-.02-.47-.02-.7,0,0,0-.07.24-.1.36l.73-.41.41-.41h-.38l.04.46Z"/>
    <path class="cls-1" d="M134.16,121.21c1.62-2.06,3.21-4.13,4.86-6.17.61-.75,1.35-1.41,2-2.11h0c.82-1.83,1.65-3.65,2.48-5.48h0c1.83.96,2.54,3.23,1.58,5.06-.09.17-.2.34-.31.5-.39.61-.81,1.19-1.21,1.78l.57,1.13c-1.15.88-2.37,1.66-3.65,2.32-2.2.95-3.84,2.88-4.42,5.21,0,.06.02.13.06.17.08,0,.16,0,.24,0h0c-.38,1.33-.75,2.65-1.27,4.45-.94-3.69.08-6.58,3.3-10.36l.61-.71.52-.47.58-.43.45-.46-.72.19c-.22.12-.44.24-.65.37l-.47.37-.82.82-3.24,4.23-.49-.41ZM141.49,115.01l.45-.44-.69.19-.23.65.47-.4ZM142.94,113.46l.42-.74c-.12,0-.35,0-.36.08-.02.24-.02.48,0,.72h-.5l.06.38.38-.44Z"/>
    <path class="cls-1" d="M134.5,138.92c-1.82.55-3.15.51-2.51-2l-.06.07,1.08-1.09-.07.06,1.55-1.53-.06.06,1.57-1.49-.06.06,1.09-1.09-.06.06c2.84-.7,2.35,1,1.9,2.64l.05-.07c-3.34,1-3.84,2-2.42,4.93,1.19,2.41.74,4.84-1.25,5.49-.98.19-1.99-.04-2.79-.63-.44-.7-.47-1.59-.08-2.32.41-.45,1.58-.17,2.4-.3.2,0,.36-.4.53-.61l.31-.26.64,1.16.39-.18-1.18-2.42.06.07-.79-1.49-.26,1,.02-.12Z"/>
    <path class="cls-1" d="M123,141l1.77-2.63.81,1.82c-.09-3.84,1.7-5.11,5.46-3.95-3.4,0-4.23,1.85-4.3,4.84,0,1.27-.92,3.34-3.31,2.15-.29-.15-.87.37-1.34.47-.62.11-1.25.18-1.88.21.15-.51.57-1.15.4-1.53-1.1-2.52.32-3.92,2.12-5.2l.36.4-.39,3.14-.06.66.36-.38Z"/>
    <path class="cls-1" d="M141,123c-.58.18-1.18.28-1.79.29-.32,0-.58-.62-.87-.94l.12.07-.06-.11-1.28,1.3-.19-.17c1-1.05,1.8-2.41,3-3,1-.54,2.5-.25,3.77-.28.13,0,.39.35.37.51-.03,1.49-.26,2.96-.68,4.39-.72,1.75-2.46,1.93-4.23,1.95-2.57,0-2.48,2.18-2.74,4l-.75-.13c.24-1.36.05-3.15.84-4s2.65-.89,4.21-1.33l-2.5-.57,2.72-2,.63-.26c-.12-.05-.32-.17-.34-.14-.09.13-.17.27-.23.42Z"/>
    <path class="cls-1" d="M143.45,100.48h1.84c-.19.58-.36,1.16-.59,1.71s-.42.86-.64,1.28l-.18,1.4-.45,2.62h0c-.35.54-.68,1.09-1,1.62s.09,2.32-1.65,1.45c-.45-.22-.94-.38-1.41-.57.3-.47.62-.94.88-1.43.32-.59.6-1.2.85-1.82.81-2.1,1.6-4.2,2.4-6.31l-.05.05Z"/>
    <path class="cls-1" d="M108.94,139.46c1.66-.57,1.65.77,1.68,1.68,0,.41-.65,1-1.13,1.23-1.49.59-3,1-4.58,1.51l-1.39.19c-.42.22-.84.47-1.28.65s-1.14.38-1.72.57v-1.85l-.06.07c1.85-1.76,4.38-2.62,6.92-2.35.47.05,1.1-1.15,1.65-1.76l-.09.06Z"/>
    <path class="cls-1" d="M128.72,132.2l-3.49-.45c.92-.44,1.41-.72,1.93-.9.4-.11.8-.19,1.21-.23-1-2.58,3.46-1.73,2.7-4.21,0-.18.35-.5.76-1,.14,2.06.31,3.76.34,5.46,0,.4-.39,1.11-.67,1.15-.59,0-1.17-.14-1.69-.4-.37-.15-1-1.34-.73.25l-.36.33Z"/>
    <path class="cls-1" d="M141.13,135.24c.19-.18.54-.35.57-.55.08-.77-.18-1.7.17-2.27.53-.45,1.27-.59,1.93-.37.67.42,1.59,1.56,1.41,2-.44,1.1-1.36,2.69-2.22,2.78-1.47.16-3-.68-4.57-1.11l1.05-.23-.06-.06,2.48,1.09.12-.31-1.17-.62.29-.35Z"/>
    <path class="cls-1" d="M100.49,143.44c-1.45.42-2.89.88-4.35,1.26-1.14.33-2.31.55-3.49.66-.29,0-.82-.79-.89-1.27.09-.46.42-.84.86-1,.46-.07,1.41.27,1.43.5.1,1.43.67.79,1.34.44,1.06-.63,2.18-1.13,3.36-1.49.45-.11,1.12.64,1.68,1l.06-.1Z"/>
    <path class="cls-1" d="M141.41,140.46c-.39.41-.84.75-1.34,1-.41.12-.93-.16-1.4-.26.71-1.72-.73-2.38-1.59-3.35-.17-.2-.06-.64-.08-1,.34.1.68.22,1,.36,1,.51,1.26,2.41,2.94,1.35l.43,1.94.04-.04Z"/>
    <path class="cls-1" d="M143.51,100.42c-.36-.56-1.12-1.22-1-1.66.36-1.18.86-2.3,1.49-3.36.33-.65,1.07-1.25-.43-1.36-.22,0-.57-1-.5-1.42.16-.44.54-.75,1-.84.48.06,1.28.6,1.26.89-.11,1.18-.34,2.34-.67,3.47-.37,1.45-.82,2.89-1.23,4.34l.08-.06Z"/>
    <path class="cls-1" d="M134.67,131.7c-2-3.16-2.2-7.15-.51-10.49l.49.42c-1.26,3.14-1.09,6.67.44,9.68l-.42.39Z"/>
    <path class="cls-1" d="M143,141.44c.6.67,1.12,1.4,1.58,2.18.07.15-.64.66-1,1-.58-.48-1.11-1.03-1.58-1.62-.07-.18.49-.78,1-1.56Z"/>
    <path class="cls-1" d="M141.35,140.52c.56-.32,1.11-.67,1.69-1s1-.38,1.43-.57c0,.57.32,1.4.06,1.66-1,1-2.19,1.58-3.12-.19l-.06.1Z"/>
    <path class="cls-1" d="M141.76,143.39c-.65.54-1.34,1.03-2.06,1.47-.11.06-.9-.84-.87-.88.59-.7,1.24-1.35,1.89-2l1.04,1.41Z"/>
    <path class="cls-1" d="M141,112.93c-.12-.09-.24-.25-.35-.25-.64,0-1.27.09-1.91.14l.58-1.06,1.68,1.24v-.07Z"/>
    <path class="cls-1" d="M112.26,141c-.25-.44-.61-.79-.55-1,.19-.47.45-.91.75-1.32.34.31,1,.74,1,.89-.33.53-.73,1.02-1.2,1.43Z"/>
    <path class="cls-1" d="M134.49,134.42l-2.13-1.61.44-.45c.54.71,1.08,1.42,1.63,2.12l.06-.06Z"/>
    <path class="cls-1" d="M135.26,141.11l-.76-2.19-.07.05,1,.51-.06-.07.15,1.44-.26.26Z"/>
    <path class="cls-1" d="M139.47,135.48c-.2-.31-.4-.62-.59-.93l-.06.07,2.31.62-.29.34-1.43-.16.06.06Z"/>
    <path class="cls-1" d="M136,133l-1.28-1.25.42-.39.8,1.7.06-.06Z"/>
    <path class="cls-1" d="M144.06,116l-.57-1.13,1,.38-.43.75Z"/>
    <path class="cls-1" d="M114.88,143.49l1.13.57-.75.42-.38-.99Z"/>
    <path class="cls-1" d="M143.88,104.91l.18-1.4-.18,1.4Z"/>
    <path class="cls-1" d="M103.52,144.07l1.39-.19-1.39.19Z"/>
    <path class="cls-1" d="M131.3,135.11l-1-.51.45-.45,1,.53c-.18.14-.32.32-.45.43Z"/>
    <path class="cls-1" d="M132.2,135.8l-.9-.69c.13-.15.27-.29.41-.43l.85.65-.36.47Z"/>
    <path class="cls-1" d="M133,135.89l-.81-.09.36-.47.38.62.07-.06Z"/>
    <path class="cls-1" d="M123.44,136.93l.3-.62h-.07c0,.25,0,.5-.08.76l-.15-.14Z"/>
    <path class="cls-1" d="M132,136.91l-.45-.12.21-.23.18.42.06-.07Z"/>
    <path class="cls-1" d="M122.71,137.15l.73-.22.15.12-.52.5-.36-.4Z"/>
    <path class="cls-1" d="M129.08,131.82l.43.43-.79-.05.36-.38Z"/>
    <path class="cls-1" d="M137,131.92l-.45-.27.15-.16.24.49.06-.06Z"/>
    <path class="cls-1" d="M137.11,123.6l-.83.07h0l.63-.28.2.21Z"/>
    <path class="cls-1" d="M83,4.43c.38.53.92,1,.83,1.21-.18.4-.7.65-1.08,1-.26-.36-.73-.72-.71-1.06s.55-.69.96-1.15Z"/>
    <path class="cls-1" d="M80.26,5.7c-.53.38-.89.85-1.23.83s-.68-.5-1-.77c.36-.36.66-.86,1.09-1,.2-.08.63.51,1.14.94Z"/>
    <path class="cls-1" d="M76.28,5.57c-.46.43-.77.95-1.1,1s-.74-.43-1.11-.68c.32-.39.57-.92,1-1.11.17-.12.67.41,1.21.79Z"/>
    <path class="cls-1" d="M67.08,4.43c.42.48.91.8.92,1.14s-.47.68-.73,1c-.37-.32-.89-.57-1.06-1-.08-.16.47-.57.87-1.14Z"/>
    <path class="cls-1" d="M72.94,5.94c-.53.3-1.1.51-1.7.62-.39,0-.76-.43-1.15-.67.31-.4.55-.93,1-1.13.15-.1.66.41,1.85,1.18Z"/>
    <path class="cls-1" d="M6.88,71.06c-.48.4-.82.91-1.14.9s-.69-.5-1-.78c.34-.37.63-.85,1-1.05.19-.07.65.51,1.14.93Z"/>
    <path class="cls-1" d="M5.77,73.78c.36.54.81.92.78,1.25s-.53.65-.82,1c-.34-.36-.83-.69-1-1.11-.01-.25.59-.66,1.04-1.14Z"/>
    <path class="cls-1" d="M6.87,79.11c-.52.36-.91.83-1.22.79s-.65-.57-.93-.9c.32-.38.7-.7,1.14-.94.14-.06.57.59,1.01,1.05Z"/>
    <path class="cls-1" d="M5.49,84.62c-.36-.71-.79-1.17-.71-1.53s.61-.74.94-1.1c.3.31.8.61.83.94s-.42.71-1.06,1.69Z"/>
    <path class="cls-1" d="M6.92,67c-.51.46-.86,1-1.17,1s-.69-.52-1-.82c.31-.34.56-.89.92-1s.68.46,1.25.82Z"/>
    <path class="cls-1" d="M68.35,144.46c-.54.39-1,.92-1.22.83-.42-.19-.68-.71-1-1.1.37-.24.75-.7,1.11-.68s.64.49,1.11.95Z"/>
    <path class="cls-1" d="M71.07,143.18c.41.48.91.82.9,1.14s-.5.69-.78,1c-.37-.34-.86-.63-1.06-1.06-.07-.12.52-.59.94-1.08Z"/>
    <path class="cls-1" d="M76.55,144.32c-.82.54-1.31,1.07-1.52,1-.4-.19-.65-.73-1-1.12.38-.24.75-.67,1.13-.67s.84.4,1.39.79Z"/>
    <path class="cls-1" d="M80.26,144.5c-.57.36-1.06.89-1.28.79-.41-.19-.65-.73-1-1.12.38-.24.78-.68,1.14-.66s.67.54,1.14.99Z"/>
    <path class="cls-1" d="M84.2,144.44c-.54.4-1,.94-1.22.85-.41-.18-.67-.7-1-1.08.37-.25.73-.71,1.09-.7s.65.49,1.13.93Z"/>
    <path class="cls-1" d="M144.11,69c-.32-.82-.65-1.27-.62-1.7s.43-.76.66-1.13c.4.3.94.53,1.13.93.1.18-.41.68-1.17,1.9Z"/>
    <path class="cls-1" d="M145.62,71.09c-.51.39-.86.88-1.19.87s-.66-.52-1-.8c.34-.37.63-.88,1.05-1,.21-.1.65.5,1.14.93Z"/>
    <path class="cls-1" d="M145.62,83c-.51.4-.86.88-1.19.87s-.65-.51-1-.79c.34-.36.63-.86,1-1,.27-.08.7.47,1.19.92Z"/>
    <path class="cls-1" d="M145.62,79c-.51.4-1,1-1.17.9-.41-.18-.68-.69-1-1.07.34-.27.69-.78,1-.77s.69.53,1.17.94Z"/>
    <path class="cls-1" d="M144.45,73.78c.39.54.93,1,.84,1.23-.18.42-.71.68-1.09,1-.25-.37-.7-.75-.69-1.11s.49-.64.94-1.12Z"/>
    <path d="M138.92,15.07l.57-1,1.44-.05h-.05l-1.09.87-.87.18Z"/>
    <path d="M131.92,21l-1,.1.94-.9.06.8Z"/>
    <path d="M137.91,15h1.09l-.51.67-.58-.67Z"/>
    <path d="M128.35,19.42l.45-.43c0,.26-.05.52-.08.78l-.37-.35Z"/>
    <path d="M129.93,18.25c-.1.05-.21.1-.32.13,0,0-.1-.09-.15-.14.1-.06.2-.1.31-.13,0,0,.1.09.16.14Z"/>
    <path d="M116.9,11.6l-1.49-2,.34-.29,1.56,1.94-.41.35Z"/>
    <path d="M117.92,12.56l-.76-.36c-.09-.2-.18-.4-.26-.6l.41-.36.61,1.32Z"/>
    <path d="M115.41,9.59c-.25-.26-.49-.53-.73-.79.11-.09.22-.19.31-.3l.76.8-.34.29Z"/>
    <path d="M112.82,7.12l1.15.41-.28.18-.8-.62-.07.03Z"/>
    <path d="M112.89,7.09l-.26-.38.36.07c-.06.11-.11.23-.16.34l.06-.03Z"/>
    <path d="M111,8.07l-.54-.57.54.57Z"/>
    <path d="M114.23,8.24l-.54-.53.28-.18.52.48-.26.23Z"/>
    <path d="M114.49,8l.5.49c-.09.11-.2.21-.31.3l-.45-.56.26-.23Z"/>
    <path d="M140.67,34.3l.79.7c-.11.09-.21.18-.3.28l-.78-.7.29-.28Z"/>
    <path d="M139.19,33.86l-.81-.77.39-.37.73.75-.31.39Z"/>
    <path d="M142.45,36l.4,1.16v-.07l-.65-.82.25-.27Z"/>
    <path d="M142.85,37.16l.49-.09v.22l-.46-.2-.03.07Z"/>
    <path d="M142,35.48l.48.52-.21.27-.51-.52.24-.27Z"/>
    <path d="M141.73,35.75l-.57-.47c.09-.1.19-.19.3-.28l.51.48-.24.27Z"/>
    <path d="M140.38,34.58l-.62-.37.28-.28.63.38-.29.27Z"/>
    <path d="M139.5,33.47l.54.46-.28.28-.57-.35.31-.39Z"/>
    <path d="M137.91,27l.77.3-.77-.3Z"/>
    <path d="M140.66,26.76l.7.55-1-.2.3-.35Z"/>
    <path d="M122.89,9.59l-.21-1,.58.69-.37.31Z"/>
    <path d="M136.41,7.63l.06,1.89-.06-1.89Z"/>
    <path d="M140.93,14l.8-.31c.04.08.08.16.12.24h-1l.08.07Z"/>
    <path d="M42.56,7l-3.07.51,3.07-.51Z"/>
    <path d="M33.2,10.73l1.14-1.38.29.28-1,1.46-.43-.36Z"/>
    <path d="M33.55,11.54l-1,.53.62-1.34.39.36c-.02.15-.02.3,0,.45Z"/>
    <path d="M35.82,8.32l-.76.74c-.11-.11-.22-.21-.35-.3l.82-.76c.09.11.18.22.29.32Z"/>
    <path d="M36,7.54l1-.47v-.07l-1,.5v.04Z"/>
    <path d="M37.07,7.07v-.38l.32.12-.39.19.07.07Z"/>
    <path d="M35.53,8l.47-.46v-.04l-.15.82c-.12-.1-.22-.2-.32-.32Z"/>
    <path d="M39.55,7.5l-.55.57.55-.57Z"/>
    <path d="M34.34,9.35c.13-.19.25-.39.37-.59.13.09.24.19.35.3l-.43.57-.29-.28Z"/>
    <path d="M14.08,17l.15.81c3.42,5,2.3,9.72-1.12,14.22l-1.55,1.5h-.46l-.36-.37c3.19-2.84,5.09-6.25,4.38-10.82l-1.54,3.67-.54.49-1,.78c-.24-.28-.59-.84-.72-.8-.82.39-1.7.63-2.6.73l3.16-2.07-2-.51c1.34-.6,3.07-.88,4-1.9,1.08-1.26.93-3.15-.33-4.23,0,0,0,0,0,0l-.55-.44,1.08-1.06Z"/>
    <path d="M11.1,33.57l-.8.7-.3-.27.75-.75.35.32Z"/>
    <path d="M6.41,37.3c0,.19.08.38.1.58l-.19.12.13-.59-.04-.11Z"/>
    <path d="M6.45,37.36l.65-.31h0l-.64.29v.02Z"/>
    <path d="M7.1,37.05l.09-.57.23.08-.37.44.05.05Z"/>
    <path d="M8.33,35.81l-.7.14.42-.44c.09.11.18.21.28.3Z"/>
    <path d="M8.05,35.51l.44-.42c-.05.24-.11.48-.16.72-.1-.09-.19-.19-.28-.3Z"/>
    <path d="M9.64,34.61l-.64.21.43-.46.21.25Z"/>
    <path d="M9.39,34.36l.61-.36.31.32-.66.34-.26-.3Z"/>
    <path d="M21,19l.56.55-.56-.55Z"/>
    <path d="M6.52,107.46c2.14.4.81,2,1,3.05-.3-1.02-.65-2.04-1-3.05Z"/>
    <path d="M11.31,117.34l-.81-.83c.12-.11.22-.24.31-.37l.81.75-.31.45Z"/>
    <path d="M9.3,115.71l-.77-.71c.1-.09.2-.18.3-.28l.77.71-.3.28Z"/>
    <path d="M7.55,114l-.42-1.12v.06l.67.79-.25.27Z"/>
    <path d="M7.13,112.85h-.46v-.21l.42.25.04-.04Z"/>
    <path d="M7.76,113.7l.5.54-.23.25-.48-.49.21-.3Z"/>
    <path d="M8.26,114.24l.57.46c-.1.1-.2.19-.3.28l-.5-.49.23-.25Z"/>
    <path d="M9.6,115.41l.62.38-.27.27-.65-.35.3-.3Z"/>
    <path d="M10.5,116.51l-.55-.45.27-.27.59.35c-.09.13-.19.26-.31.37Z"/>
    <path d="M12.06,117c.09.14.09.32,0,.46l-.77-.07.31-.45c.15.03.31.05.46.06Z"/>
    <path d="M14.09,139.48l1-.56-.21.88c-.28.4-.57.79-.85,1.18l.06-1.5Z"/>
    <path d="M9.53,136.46l-1.88-.06,1.94-.48-.06.54Z"/>
    <path d="M15,139v-1.07l.65.56-.65.51Z"/>
    <path d="M9.52,136l1.07-.56-1.07.56Z"/>
    <path d="M27.15,140.34l.2,1-.59-.7.39-.3Z"/>
    <path d="M10.3,123.76l-.68-.76,1,.34-.32.42Z"/>
    <path d="M10.65,123.36l.66.27-.35.42-.66-.29c.11-.14.23-.27.35-.4Z"/>
    <path d="M9,122.71c-.08.07-.14.16-.2.16s-.12-.11-.17-.16.12-.15.18-.15.12.1.19.15Z"/>
    <path d="M42.5,143.48l-1.9-.29-.59-.78c.67-.05,1.34-.03,2,.07.2.06.32.65.49,1Z"/>
    <path d="M40.07,142.45l-1.07-.54,1.07.54Z"/>
    <path d="M33,138.41l1.54,2.06-1.54-2.06Z"/>
    <path d="M37,143.53l-.94-.62-.06-.49,1,1.11Z"/>
    <path d="M34.52,140.41c.18.35.35.71.52,1.07-.17-.36-.34-.72-.52-1.07Z"/>
    <path d="M35,141.42l.56.56-.56-.56Z"/>
    <path d="M35.5,141.92l.56.56-.56-.56Z"/>
    <path d="M14.08,140.9l.5,1-.35.83-.15-1.83Z"/>
    <path d="M19.06,129l-.38.42-.16-.17.51-.27.03.02Z"/>
    <path d="M19,128.94l.41-.6.33.34-.71.28-.03-.02Z"/>
    <path d="M114.76,141.23l2.64-3.34.36.43-2.76,3.17-.24-.26Z"/>
    <path d="M113.47,143l-.73.4c0-.12.05-.35.1-.36.23-.02.47-.02.7,0l-.07-.04Z"/>
    <path d="M115,141.49l-.44.45c.06-.24.12-.47.19-.71l.25.26Z"/>
    <path d="M113.54,143v-.5h.38l-.41.41.03.09Z"/>
    <path d="M137.89,117.4l.82-.82.29.43-.69.75-.42-.36Z"/>
    <path d="M143,113.52c-.02-.24-.02-.48,0-.72,0,0,.24-.06.36-.08l-.42.74.06.06Z"/>
    <path d="M142.94,113.46l-.4.42-.06-.38h.5l-.04-.04Z"/>
    <path d="M141.25,114.76l.69-.19-.45.44-.24-.25Z"/>
    <path d="M141.49,115l-.47.4c.08-.22.16-.43.23-.65l.24.25Z"/>
    <path d="M139.83,115.84l.72-.19-.45.46-.27-.27Z"/>
    <path d="M140.1,116.11l-.58.43c-.11-.12-.23-.23-.34-.33.21-.13.43-.25.65-.37l.27.27Z"/>
    <path d="M138.71,116.58l.47-.37c.11.1.23.21.34.33l-.52.46-.29-.42Z"/>
    <path d="M135.57,140.85l-.15-1.44c.39.8.79,1.61,1.18,2.42l-.39.18-.64-1.16Z"/>
    <path d="M135.48,139.48l-1-.51.26-1,.74,1.51Z"/>
    <path d="M123,141l-.36.38.06-.66c.11.08.21.18.3.28Z"/>
    <path d="M141,123c.06-.16.13-.31.23-.45,0,0,.22.09.34.14l-.63.26.06.05Z"/>
    <polygon points="138.39 122.3 138.45 122.41 138.33 122.34 138.39 122.3"/>
    <path d="M139.41,135.42l1.43.16,1.17.62-.12.31-2.48-1.09Z"/>
  </g>
</svg>