<?xml version="1.0" encoding="UTF-8"?>
<svg id="base" xmlns="http://www.w3.org/2000/svg" width="150" height="150" xmlns:xlink="http://www.w3.org/1999/xlink" viewBox="0 0 150 150">
  <defs>
    <style>
      .cls-1 {
        filter: url(#drop-shadow-4);
      }

      .cls-2 {
        fill: none;
        stroke: #e6e6e6;
        stroke-miterlimit: 10;
      }

      .cls-3 {
        fill: #f8f8f8;
      }
    </style>
    <filter id="drop-shadow-4" x="1" y="3" width="148" height="148" filterUnits="userSpaceOnUse">
      <feOffset dx="0" dy="2"/>
      <feGaussianBlur result="blur" stdDeviation="3"/>
      <feFlood flood-color="#000" flood-opacity=".3"/>
      <feComposite in2="blur" operator="in"/>
      <feComposite in="SourceGraphic"/>
    </filter>
  </defs>
  <g class="cls-1">
    <path class="cls-3" d="M10,10v130h130V10H10ZM25,33.5c-4.97,0-9-4.03-9-9s4.03-9,9-9,9,4.03,9,9-4.03,9-9,9ZM50,33.5c-4.97,0-9-4.03-9-9s4.03-9,9-9,9,4.03,9,9-4.03,9-9,9ZM75,33.5c-4.97,0-9-4.03-9-9s4.03-9,9-9,9,4.03,9,9-4.03,9-9,9ZM100,33.5c-4.97,0-9-4.03-9-9s4.03-9,9-9,9,4.03,9,9-4.03,9-9,9ZM125,33.5c-4.97,0-9-4.03-9-9s4.03-9,9-9,9,4.03,9,9-4.03,9-9,9Z"/>
  </g>
  <line class="cls-2" x1="16.67" y1="62" x2="133" y2="62"/>
  <line class="cls-2" x1="16.67" y1="87" x2="133" y2="87"/>
  <line class="cls-2" x1="16.67" y1="112" x2="133" y2="112"/>
</svg>