<?xml version="1.0" encoding="utf-8"?>
<!-- Generator: Adobe Illustrator 22.1.0, SVG Export Plug-In . SVG Version: 6.00 Build 0)  -->
<svg version="1.1" id="レイヤー_1" xmlns="http://www.w3.org/2000/svg" xmlns:xlink="http://www.w3.org/1999/xlink" x="0px"
	 y="0px" viewBox="0 0 600 400" style="enable-background:new 0 0 600 400;" xml:space="preserve">
<style type="text/css">
	.st0{clip-path:url(#SVGID_2_);fill:#E6AFA1;}
	.st1{clip-path:url(#SVGID_2_);}
	.st2{fill:#E6AFA1;}
	.st3{fill:none;stroke:#FFFFFF;stroke-width:10;}
</style>
<g>
	<defs>
		<rect id="SVGID_1_" y="0" width="600" height="400"/>
	</defs>
	<clipPath id="SVGID_2_">
		<use xlink:href="#SVGID_1_"  style="overflow:visible;"/>
	</clipPath>
	<circle class="st0" cx="206.7" cy="241" r="176.7"/>
	<g class="st1">
		<path class="st2" d="M452,74.3c2.8-17,8-33.5,14-49.6c7.8,0.1,11.8,0.4,19.5,1.2c-1.8,17.2-3.6,34.5-5.4,51.8
			C466,76.2,460.9,75.2,452,74.3z"/>
		<path class="st2" d="M433.4,74.7c-3.5-15.4-4.1-31.5-2.3-47.1c10.7-1.9,16.2-2.4,27.2-2.7c-5.4,15.9-9.4,32.4-10.9,49.1
			C441.1,73.5,438.6,73.5,433.4,74.7z"/>
		<path class="st2" d="M416.6,83.1c-7.8-14.5-14.3-29.7-18.4-45.6c9.8-4.4,14.9-5.9,25.6-8.3c-0.5,15.8,1.5,31.6,6.2,46.6
			C424.7,77.3,422.3,78.7,416.6,83.1z"/>
		<path class="st2" d="M400,97.8c-12.2-12.3-24.5-24.5-36.7-36.9c10.1-10,15.8-14.1,28.1-20.4c5.4,15.9,12.7,31.1,20.9,45.7
			C408,90.1,405.6,92.3,400,97.8z"/>
	</g>
	
		<rect x="337.7" y="60.8" transform="matrix(0.7077 -0.7065 0.7065 0.7077 37.4872 282.2576)" class="st0" width="44.3" height="70"/>
	<g class="st1">
		<g>
			<g>
				<polygon class="st3" points="493.1,68.9 417.8,53.1 493.1,37.3 508.8,-37.9 524.6,37.3 600,53.1 524.6,68.9 508.8,144.2 				"/>
				<polygon class="st3" points="493.1,68.9 417.8,53.1 493.1,37.3 508.8,-37.9 524.6,37.3 600,53.1 524.6,68.9 508.8,144.2 				"/>
				<polygon class="st3" points="493.1,68.9 417.8,53.1 493.1,37.3 508.8,-37.9 524.6,37.3 600,53.1 524.6,68.9 508.8,144.2 				"/>
			</g>
			<g>
				<polygon class="st3" points="482.7,79.1 462.7,115.5 426.2,135.6 446.4,99.2 				"/>
				<polygon class="st3" points="482.7,79.1 462.7,115.5 426.2,135.6 446.4,99.2 				"/>
				<polygon class="st3" points="482.7,79.1 462.7,115.5 426.2,135.6 446.4,99.2 				"/>
			</g>
			<g>
				<polygon class="st3" points="534.9,79.2 571.4,99.2 591.4,135.7 554.9,115.7 				"/>
				<polygon class="st3" points="534.9,79.2 571.4,99.2 591.4,135.7 554.9,115.7 				"/>
				<polygon class="st3" points="534.9,79.2 571.4,99.2 591.4,135.7 554.9,115.7 				"/>
			</g>
			<g>
				<polygon class="st3" points="535,27.2 555,-9.3 591.5,-29.3 571.4,7.1 				"/>
				<polygon class="st3" points="535,27.2 555,-9.3 591.5,-29.3 571.4,7.1 				"/>
				<polygon class="st3" points="535,27.2 555,-9.3 591.5,-29.3 571.4,7.1 				"/>
			</g>
			<g>
				<polygon class="st3" points="482.9,27.1 446.4,7 426.4,-29.5 462.8,-9.4 				"/>
				<polygon class="st3" points="482.9,27.1 446.4,7 426.4,-29.5 462.8,-9.4 				"/>
				<polygon class="st3" points="482.9,27.1 446.4,7 426.4,-29.5 462.8,-9.4 				"/>
			</g>
		</g>
		<g>
			<g>
				<polygon class="st2" points="493.1,68.9 417.8,53.1 493.1,37.3 508.8,-37.9 524.6,37.3 600,53.1 524.6,68.9 508.8,144.2 				"/>
			</g>
			<g>
				<polygon class="st2" points="482.7,79.1 462.7,115.5 426.2,135.6 446.4,99.2 				"/>
			</g>
			<g>
				<polygon class="st2" points="534.9,79.2 571.4,99.2 591.4,135.7 554.9,115.7 				"/>
			</g>
			<g>
				<polygon class="st2" points="535,27.2 555,-9.3 591.5,-29.3 571.4,7.1 				"/>
			</g>
			<g>
				<polygon class="st2" points="482.9,27.1 446.4,7 426.4,-29.5 462.8,-9.4 				"/>
			</g>
		</g>
	</g>
</g>
</svg>
