<?xml version="1.0" encoding="utf-8"?>
<!-- Generator: Adobe Illustrator 23.0.4, SVG Export Plug-In . SVG Version: 6.00 Build 0)  -->
<svg version="1.1" id="レイヤー_2" xmlns="http://www.w3.org/2000/svg" xmlns:xlink="http://www.w3.org/1999/xlink" x="0px"
	 y="0px" viewBox="0 0 512 512" style="enable-background:new 0 0 512 512;" xml:space="preserve">
<style type="text/css">
	.st0{fill:#E94436;}
	.st1{fill:#36A753;}
	.st2{fill:#4386F3;}
	.st3{fill:#F9BB07;}
</style>
<g id="XMLID_1_">
	<path class="st0" d="M417.8,86.3l-68.4,65.6c-25-21.5-57.5-34.4-93.1-34.4c-62.6,0-115.7,40.2-135.1,96.1l-77-60
		C83.3,76.2,163.6,23,256.4,23C318.7,23,375.5,47,417.8,86.3z"/>
	<path class="st1" d="M334.9,380l77,60c-41.7,36.2-96.1,58.1-155.6,58.1c-91.8,0-171.4-52.1-211-128.3l76.8-59.7
		c20.1,54.6,72.6,93.5,134.2,93.5C285.4,403.5,312.4,394.8,334.9,380z"/>
	<path class="st2" d="M490.1,218.2H393H257.2v92.7h133c-10.7,28.5-30.2,52.6-55.3,69l77,60c38-33,65.5-78,76.5-129
		c3.5-16.3,5.4-33.1,5.4-50.4C493.9,246.1,492.6,231.9,490.1,218.2z"/>
	<path class="st3" d="M122.2,310l-76.8,59.7c-17-32.7-26.5-69.8-26.5-109.2c0-38.4,9.1-74.7,25.3-106.8l77,60
		c-5.1,14.7-7.8,30.4-7.8,46.8C113.4,277.9,116.5,294.6,122.2,310z"/>
</g>
</svg>
