<?xml version="1.0" encoding="UTF-8"?>
<svg id="_レイヤー_1" data-name="レイヤー_1" xmlns="http://www.w3.org/2000/svg" version="1.1" viewBox="0 0 100 100">
  <!-- Generator: Adobe Illustrator 29.3.1, SVG Export Plug-In . SVG Version: 2.1.0 Build 151)  -->
  <defs>
    <style>
      .st0 {
        fill: #fff;
      }
    </style>
  </defs>
  <path class="st0" d="M94.6,44.8l-32-21.8c-.9-.6-2.2-.4-2.8.5-.6.9-.4,2.2.5,2.8l26.6,18.2H5.5c-1.1,0-2,.9-2,2s.9,2,2,2h81.5l-26.6,18.2c-.9.6-1.1,1.9-.5,2.8.4.6,1,.9,1.7.9s.8-.1,1.1-.3l32-21.8c.5-.4.9-1,.9-1.7s-.3-1.3-.9-1.7Z"/>
</svg>