<svg id="レイヤー_1" data-name="レイヤー 1" xmlns="http://www.w3.org/2000/svg" xmlns:xlink="http://www.w3.org/1999/xlink" viewBox="0 0 600 400"><defs><style>.cls-1{fill:none;}.cls-2{clip-path:url(#clip-path);}.cls-3{fill:#ffaa59;}</style><clipPath id="clip-path"><rect class="cls-1" width="600" height="400"/></clipPath></defs><g class="cls-2"><path class="cls-3" d="M367.6,160.4c38.9,7.1,73.3-45.5,79.8-81.4,5.4-30-3-68.6-32.9-74.1-38.9-7.1-73.3,45.5-79.8,81.4C329.2,116.3,337.7,155,367.6,160.4ZM253.8,139.7c30,5.4,51.5-27.8,56.9-57.7,7.1-38.9-6.5-100.2-45.5-107.3-30-5.4-51.5,27.8-56.9,57.7C198.3,70.8,211.9,132.1,253.8,139.7Zm227.1,10.4C442,143,405.2,192,398.1,231c-4.9,27,2.2,56.1,29.1,61,39,7,75.8-42,82.8-80.9C514.9,184.1,504.9,154.5,480.9,150.1ZM203.4,195.6c7.1-38.9-13.1-98.3-49-104.8-27-4.9-43.8,19.9-48.7,46.8-7.1,38.9,13.1,98.3,49,104.8C181.6,247.3,198.5,222.5,203.4,195.6Zm97,11.4c-59.9-10.9-158.2,70.2-170.2,136.1-5.4,30,13.9,42.8,37.8,47.1,35.9,6.5,67.3-12.5,100.2-6.5,30,5.4,52.6,34.3,85.5,40.3,24,4.4,52,3.3,58-29.7C423.7,328.5,360.3,217.9,300.4,207Z"/></g></svg>