<?xml version="1.0" encoding="utf-8"?>
<!-- Generator: Adobe Illustrator 22.1.0, SVG Export Plug-In . SVG Version: 6.00 Build 0)  -->
<svg version="1.1" id="レイヤー_1" xmlns="http://www.w3.org/2000/svg" xmlns:xlink="http://www.w3.org/1999/xlink" x="0px"
	 y="0px" viewBox="0 0 600 400" style="enable-background:new 0 0 600 400;" xml:space="preserve">
<style type="text/css">
	.st0{clip-path:url(#SVGID_2_);fill:#216098;}
	.st1{clip-path:url(#SVGID_2_);fill:#FFFFFF;}
</style>
<title>catpow</title>
<g>
	<defs>
		<rect id="SVGID_1_" width="600" height="400"/>
	</defs>
	<clipPath id="SVGID_2_">
		<use xlink:href="#SVGID_1_"  style="overflow:visible;"/>
	</clipPath>
	<rect x="158.4" y="52.7" class="st0" width="294.6" height="294.6"/>
	<path class="st1" d="M233.6,103h144.2c13.7,0,24.9,11.2,24.9,24.9v144.2c0,13.7-11.2,24.9-24.9,24.9H233.6
		c-13.7,0-24.9-11.2-24.9-24.9V127.9C208.7,114.2,219.9,103,233.6,103z M350,124.5c-4.8,0-8.7,3.9-8.7,8.7v20.9
		c0,4.8,3.9,8.7,8.7,8.7H372c4.8,0,8.7-3.9,8.7-8.7v-20.9c0-4.8-3.9-8.7-8.7-8.7H350z M380.8,185h-17.1c1.6,5.3,2.5,10.9,2.5,16.7
		c0,32.3-27,58.4-60.3,58.4c-33.3,0-60.3-26.2-60.3-58.4c0-5.8,0.9-11.4,2.5-16.7h-17.8v82c0,4.2,3.5,7.7,7.7,7.7h135.1
		c4.2,0,7.7-3.5,7.7-7.7V185z M305.9,161.8c-21.5,0-39,16.9-39,37.8c0,20.8,17.4,37.8,39,37.8c21.5,0,39-16.9,39-37.8
		C344.9,178.7,327.4,161.8,305.9,161.8z"/>
</g>
</svg>
