<svg id="レイヤー_1" data-name="レイヤー 1" xmlns="http://www.w3.org/2000/svg" xmlns:xlink="http://www.w3.org/1999/xlink" viewBox="0 0 600 400"><defs><style>.cls-1{fill:none;}.cls-2{clip-path:url(#clip-path);}.cls-3{fill:#baa1e6;}</style><clipPath id="clip-path"><rect class="cls-1" width="600" height="400"/></clipPath></defs><title>thread</title><g class="cls-2"><path class="cls-3" d="M165.09,252.19A113.19,113.19,0,1,1,278.28,139,113.31,113.31,0,0,1,165.09,252.19Zm0-177.6A64.41,64.41,0,1,0,229.5,139,64.48,64.48,0,0,0,165.09,74.59Z"/><path class="cls-3" d="M165.09,295.12C79,295.12,9,225.08,9,139S79-17.12,165.09-17.12,321.21,52.92,321.21,139,251.18,295.12,165.09,295.12Zm0-287.85C92.46,7.27,33.37,66.37,33.37,139S92.46,270.73,165.09,270.73,296.82,211.63,296.82,139,237.73,7.27,165.09,7.27Z"/><polygon class="cls-3" points="91.05 15.11 41.04 65.13 9.04 12.62 38.54 -16.88 91.05 15.11"/><polygon class="cls-3" points="25.26 104.04 25.26 174.77 -34.5 160.27 -34.5 118.55 25.26 104.04"/><polygon class="cls-3" points="41.61 213.45 91.63 263.46 39.12 295.46 9.62 265.96 41.61 213.45"/><polygon class="cls-3" points="130.54 279.24 201.27 279.24 186.77 339 145.05 339 130.54 279.24"/><polygon class="cls-3" points="239.95 262.89 289.96 212.87 321.96 265.38 292.46 294.88 239.95 262.89"/><polygon class="cls-3" points="305.74 173.96 305.74 103.23 365.5 117.73 365.5 159.45 305.74 173.96"/><polygon class="cls-3" points="289.39 64.55 239.37 14.54 291.88 -17.46 321.38 12.04 289.39 64.55"/><path class="cls-3" d="M460.09,461.19A113.19,113.19,0,1,1,573.28,348,113.31,113.31,0,0,1,460.09,461.19Zm0-177.6A64.41,64.41,0,1,0,524.5,348,64.48,64.48,0,0,0,460.09,283.59Z"/><path class="cls-3" d="M460.09,504.12C374,504.12,304,434.08,304,348s70-156.12,156.11-156.12,156.12,70,156.12,156.12S546.18,504.12,460.09,504.12Zm0-287.85c-72.63,0-131.72,59.1-131.72,131.73s59.09,131.73,131.72,131.73S591.82,420.63,591.82,348,532.73,216.27,460.09,216.27Z"/><polygon class="cls-3" points="495.46 207.76 424.73 207.76 439.23 148 480.95 148 495.46 207.76"/><polygon class="cls-3" points="386.05 224.11 336.04 274.13 304.04 221.62 333.54 192.12 386.05 224.11"/><polygon class="cls-3" points="320.26 313.04 320.26 383.77 260.5 369.27 260.5 327.55 320.26 313.04"/><polygon class="cls-3" points="584.39 273.55 534.37 223.54 586.88 191.54 616.38 221.04 584.39 273.55"/></g></svg>