<?xml version="1.0" encoding="utf-8"?>
<!-- Generator: Adobe Illustrator 22.1.0, SVG Export Plug-In . SVG Version: 6.00 Build 0)  -->
<svg version="1.1" id="レイヤー_1" xmlns="http://www.w3.org/2000/svg" xmlns:xlink="http://www.w3.org/1999/xlink" x="0px"
	 y="0px" viewBox="0 0 600 400" style="enable-background:new 0 0 600 400;" xml:space="preserve">
<style type="text/css">
	.st0{clip-path:url(#SVGID_2_);fill:#2FA5DE;}
</style>
<title>catpow</title>
<g>
	<defs>
		<rect id="SVGID_1_" width="600" height="400"/>
	</defs>
	<clipPath id="SVGID_2_">
		<use xlink:href="#SVGID_1_"  style="overflow:visible;"/>
	</clipPath>
	<path class="st0" d="M480,90.3c-11.9,5.3-24.7,8.8-38.1,10.4c13.7-8.2,24.2-21.2,29.1-36.7c-12.8,7.6-27,13.1-42.1,16.1
		c-12.1-12.9-29.3-20.9-48.4-20.9c-36.6,0-66.3,29.7-66.3,66.3c0,5.2,0.6,10.2,1.7,15.1c-55.1-2.8-103.9-29.1-136.6-69.2
		c-5.7,9.8-9,21.2-9,33.3c0,23,11.7,43.3,29.5,55.1c-10.9-0.3-21.1-3.3-30-8.3v0.8c0,32.1,22.8,58.9,53.1,65
		c-5.6,1.5-11.4,2.3-17.5,2.3c-4.3,0-8.4-0.4-12.5-1.2c8.4,26.3,32.9,45.5,61.9,46c-22.7,17.8-51.2,28.4-82.3,28.4
		c-5.3,0-10.6-0.3-15.8-0.9c29.3,18.8,64.2,29.8,101.6,29.8c121.9,0,188.5-100.9,188.5-188.5c0-2.9-0.1-5.7-0.2-8.6
		C459.8,115.2,471.1,103.6,480,90.3z"/>
</g>
</svg>
