<?xml version="1.0" encoding="utf-8"?>
<!-- Generator: Adobe Illustrator 24.3.0, SVG Export Plug-In . SVG Version: 6.00 Build 0)  -->
<svg version="1.1" id="レイヤー_1" xmlns="http://www.w3.org/2000/svg" xmlns:xlink="http://www.w3.org/1999/xlink" x="0px"
	 y="0px" viewBox="0 0 20 20" style="enable-background:new 0 0 20 20;" xml:space="preserve">
<style type="text/css">
	.st0{fill:none;}
	.st1{fill:#FFFFFF;}
</style>
<rect class="st0" width="20" height="20"/>
<g>
	<path class="st1" d="M18,12h-2.2c-0.2,0.7-0.4,1.4-0.8,1.9l1.5,1.5l-2.1,2.1L12.9,16c-0.6,0.4-1.2,0.6-1.9,0.8V19H8v-2.2
		c-0.7-0.2-1.3-0.4-1.9-0.8l-1.5,1.5l-2.1-2.1L4,13.9c-0.4-0.6-0.6-1.2-0.8-1.9H1V9h2.2C3.3,8.3,3.6,7.7,4,7.1L2.4,5.6l2.1-2.1
		L6.1,5C6.6,4.6,7.3,4.4,8,4.2V2h3v2.2c0.7,0.2,1.3,0.4,1.9,0.8l1.5-1.5l2.1,2.1L15,7.1c0.4,0.6,0.6,1.2,0.8,1.9H18V12z M9.5,13.5
		c1.7,0,3-1.3,3-3s-1.3-3-3-3s-3,1.3-3,3S7.8,13.5,9.5,13.5z"/>
</g>
</svg>
