<?xml version="1.0" encoding="utf-8"?>
<!-- Generator: Adobe Illustrator 24.3.0, SVG Export Plug-In . SVG Version: 6.00 Build 0)  -->
<svg version="1.1" id="レイヤー_1" xmlns="http://www.w3.org/2000/svg" xmlns:xlink="http://www.w3.org/1999/xlink" x="0px"
	 y="0px" viewBox="0 0 20 20" style="enable-background:new 0 0 20 20;" xml:space="preserve">
<style type="text/css">
	.st0{fill:none;}
	.st1{fill:#FFFFFF;}
</style>
<rect class="st0" width="20" height="20"/>
<g>
	<path class="st1" d="M10.4,3l1.8-1.8l6.4,6.3l-1.8,1.8c-1.1-0.7-2.5-0.6-3.4,0.4l-0.8,0.8c-0.9,0.9-1,2.4-0.4,3.4l-1.8,1.8L8,13.3
		l-2.8,2.8c-0.4,0.4-3.4,2.7-3.8,2.3s1.9-3.4,2.3-3.8l2.8-2.8L4.1,9.4l1.8-1.8c1,0.7,2.5,0.6,3.4-0.4l0.8-0.8
		C11,5.5,11.1,4.1,10.4,3z"/>
</g>
</svg>
