<?xml version="1.0" encoding="utf-8"?>
<!-- Generator: Adobe Illustrator 24.3.0, SVG Export Plug-In . SVG Version: 6.00 Build 0)  -->
<svg version="1.1" id="レイヤー_1" xmlns="http://www.w3.org/2000/svg" xmlns:xlink="http://www.w3.org/1999/xlink" x="0px"
	 y="0px" viewBox="0 0 20 20" style="enable-background:new 0 0 20 20;" xml:space="preserve">
<style type="text/css">
	.st0{fill:none;}
	.st1{fill:#FFFFFF;}
</style>
<rect class="st0" width="20" height="20"/>
<g>
	<path class="st1" d="M10,9.2c-2.3,0-2.7-3.4-2.7-3.4C7,4,7.8,2,10,2c2.2,0,3,2,2.7,3.8C12.7,5.8,12.3,9.2,10,9.2z M10,11.8l2.7-1.8
		c2.4,0,4.5,2.3,4.5,4.5V17c0,0-3.6,1.1-7.2,1.1c-3.7,0-7.2-1.1-7.2-1.1v-2.5c0-2.2,1.9-4.5,4.5-4.5L10,11.8z"/>
</g>
</svg>
