<?xml version="1.0" encoding="utf-8"?>
<!-- Generator: Adobe Illustrator 24.3.0, SVG Export Plug-In . SVG Version: 6.00 Build 0)  -->
<svg version="1.1" id="レイヤー_1" xmlns="http://www.w3.org/2000/svg" xmlns:xlink="http://www.w3.org/1999/xlink" x="0px"
	 y="0px" viewBox="0 0 20 20" style="enable-background:new 0 0 20 20;" xml:space="preserve">
<style type="text/css">
	.st0{fill:none;}
	.st1{fill:#FFFFFF;}
</style>
<rect class="st0" width="20" height="20"/>
<g>
	<path class="st1" d="M17,2.6c2,1.9,2,5.1,0,7.1c-1.5,1.5-3.8,1.8-5.6,1L9.5,14l-3,0.3L5,18H2l-1-2l7.9-7.7C8,6.4,8.3,4.1,9.9,2.6
		C11.8,0.6,15,0.6,17,2.6z M14.4,6.4c0.7,0,1.3-0.6,1.3-1.3c0-0.7-0.6-1.3-1.3-1.3c-0.7,0-1.3,0.6-1.3,1.3
		C13.1,5.8,13.7,6.4,14.4,6.4z"/>
</g>
</svg>
