<?xml version="1.0" encoding="utf-8"?>
<!-- Generator: Adobe Illustrator 24.3.0, SVG Export Plug-In . SVG Version: 6.00 Build 0)  -->
<svg version="1.1" id="レイヤー_1" xmlns="http://www.w3.org/2000/svg" xmlns:xlink="http://www.w3.org/1999/xlink" x="0px"
	 y="0px" viewBox="0 0 20 20" style="enable-background:new 0 0 20 20;" xml:space="preserve">
<style type="text/css">
	.st0{fill:none;}
	.st1{fill:#FFFFFF;}
</style>
<rect class="st0" width="20" height="20"/>
<g>
	<path class="st1" d="M2,7h4l5-4v14l-5-4H2V7z M14.7,4.5C14.8,4.6,18,5.9,18,10s-3.2,5.4-3.3,5.5c-0.1,0-0.1,0-0.2,0
		c-0.2,0-0.4-0.1-0.5-0.3c-0.1-0.3,0-0.6,0.3-0.6c0.1-0.1,2.7-1.1,2.7-4.5c0-3.4-2.7-4.5-2.7-4.5c-0.2-0.1-0.4-0.4-0.3-0.7
		C14.1,4.6,14.4,4.4,14.7,4.5z M16,10c0,2.6-2.2,3.4-2.3,3.5c-0.1,0-0.1,0-0.2,0c-0.2,0-0.4-0.1-0.5-0.3c-0.1-0.3,0-0.6,0.3-0.6
		c0.1,0,1.7-0.7,1.7-2.5s-1.6-2.5-1.7-2.5c-0.2-0.1-0.4-0.4-0.3-0.7c0.1-0.2,0.4-0.4,0.6-0.3C13.8,6.6,16,7.4,16,10z"/>
</g>
</svg>
