<?xml version="1.0" encoding="utf-8"?>
<!-- Generator: Adobe Illustrator 24.3.0, SVG Export Plug-In . SVG Version: 6.00 Build 0)  -->
<svg version="1.1" id="レイヤー_1" xmlns="http://www.w3.org/2000/svg" xmlns:xlink="http://www.w3.org/1999/xlink" x="0px"
	 y="0px" viewBox="0 0 20 20" style="enable-background:new 0 0 20 20;" xml:space="preserve">
<style type="text/css">
	.st0{fill:none;}
	.st1{fill:#FFFFFF;}
</style>
<rect class="st0" width="20" height="20"/>
<g>
	<path class="st1" d="M8,4.5c-0.3,1.3,0.6,3.5,2,3.5c1.4,0,2.2-2.2,2-3.5c-0.2-1-1.1-1.6-2-1.6C9.1,2.8,8.3,3.5,8,4.5z M3.9,5.4
		C3.6,6.4,4.4,8.3,5.6,8.3s1.9-1.8,1.7-2.9C7,4.5,6.3,4,5.6,4S4.1,4.5,3.9,5.4z M12.8,5.4c-0.2,1.1,0.5,2.9,1.7,2.9
		c1.2,0,1.9-1.8,1.7-2.9C15.9,4.5,15.2,4,14.4,4C13.7,4,12.9,4.5,12.8,5.4z M12.2,16.8l1.2-4.3c0.8-2.5-0.7-4-3.4-4
		c-2.7,0-4.2,1.5-3.4,4l1.3,4.3C8.1,17.5,9,18,10,18C11,18,11.9,17.5,12.2,16.8z M6.1,9.2c-0.5,0.7-1,1.8-0.4,3.6l1.1,3.8
		c-0.3,0.2-0.8,0.3-1.2,0.3c-0.8,0-1.7-0.4-1.8-1l-1.1-3.7C2,10.1,3.3,8.8,5.6,8.8c0.3,0,0.5,0,0.8,0.1C6.3,8.9,6.2,9.1,6.1,9.2z
		 M14.4,8.8c2.3,0,3.6,1.3,2.9,3.4l-1.1,3.6c-0.2,0.6-1,1-1.9,1c-0.4,0-0.9-0.1-1.2-0.3l1.1-3.8c0.6-1.8,0.1-2.9-0.4-3.6
		c-0.1-0.1-0.2-0.2-0.3-0.3C13.9,8.8,14.1,8.8,14.4,8.8z"/>
</g>
</svg>
