<?xml version="1.0" encoding="UTF-8"?>
<svg id="_レイヤー_1" data-name="レイヤー_1" xmlns="http://www.w3.org/2000/svg" version="1.1" viewBox="0 0 20 20">
  <!-- Generator: Adobe Illustrator 29.0.0, SVG Export Plug-In . SVG Version: 2.1.0 Build 186)  -->
  <path d="M18.7,11.1c0,1.6-1.7,2.8-3.7,2.8s-3.7-1.3-3.7-2.8,1.1-3,2.9-4c-1.2-.4-2.6-.7-4.2-.7s-3,.3-4.2.7c1.8,1,2.9,2.4,2.9,4s-1.7,2.8-3.7,2.8-3.7-1.3-3.7-2.8,1.1-3,2.9-4C3,6.7,1.5,6.5,0,6.5v8.4h20V6.5c-1.5,0-3,.3-4.2.7,1.8,1,2.9,2.4,2.9,4ZM5,13.3c1.6,0,3-1,3-2.2s-1.2-2.8-3-3.6c-1.8.9-3,2.2-3,3.6s1.3,2.2,3,2.2ZM15,13.3c1.6,0,3-1,3-2.2s-1.2-2.8-3-3.6c-1.8.9-3,2.2-3,3.6s1.3,2.2,3,2.2ZM0,4.9v.9c1.9,0,3.6.4,5,1,1.4-.6,3.1-1,5-1s3.6.4,5,1c1.4-.6,3.1-1,5-1v-.9H0Z"/>
</svg>