<?xml version="1.0" encoding="utf-8"?>
<!-- Generator: Adobe Illustrator 24.3.0, SVG Export Plug-In . SVG Version: 6.00 Build 0)  -->
<svg version="1.1" id="レイヤー_1" xmlns="http://www.w3.org/2000/svg" xmlns:xlink="http://www.w3.org/1999/xlink" x="0px"
	 y="0px" viewBox="0 0 20 20" style="enable-background:new 0 0 20 20;" xml:space="preserve">
<style type="text/css">
	.st0{fill:none;}
	.st1{fill:#FFFFFF;}
</style>
<rect class="st0" width="20" height="20"/>
<g>
	<path class="st1" d="M10,2C6.7,2,4,4.7,4,8c0,2,1.2,3.7,2.5,4.9c0.4,0.4,1.2,1,1.9,1.8c0.7,1,1.4,2,1.6,2.7
		c0.2-0.7,0.9-1.7,1.6-2.7c0.7-0.9,1.4-1.5,1.9-1.8C14.8,11.7,16,10,16,8C16,4.7,13.3,2,10,2z M10,4.6c1.9,0,3.4,1.5,3.4,3.4
		s-1.5,3.4-3.4,3.4S6.6,9.9,6.6,8S8.1,4.6,10,4.6z"/>
</g>
</svg>
