<?xml version="1.0" encoding="utf-8"?>
<!-- Generator: Adobe Illustrator 24.2.3, SVG Export Plug-In . SVG Version: 6.00 Build 0)  -->
<svg version="1.1" id="レイヤー_1" xmlns="http://www.w3.org/2000/svg" xmlns:xlink="http://www.w3.org/1999/xlink" x="0px"
	 y="0px" viewBox="0 0 512 512" style="enable-background:new 0 0 512 512;" xml:space="preserve">
<path d="M356.1,308.2c15.8-0.7,29.2,6.2,41.5,16c7.6,6,14.6,12.7,18.1,21.7c2.1,5.3,2.2,11.8,1.9,17.6c-1.1,18.3-2.6,36.5,1,54.7
	c2.1,10.6,1,21.4-2.2,31.6c-2.7,8.5-9,14.4-18.2,16.3c-2.9,0.6-5.7,1.7-8.6,2.5c-18.4,5.4-36.6-5.8-45.3-20.5
	c-8-13.5-19.7-22.4-33.6-29c-12.5-5.9-25.6-10.7-37.3-17.9c-14.7-9-22.6-22.5-19.1-40.6c2.2-11.3,8.9-19.1,19.6-22.8
	c14.7-5,28.5-11.6,42.1-19.2C328.1,311.9,341.5,307.9,356.1,308.2z"/>
<path d="M83.7,239.1c2.2-8.5,4.7-16.9,6.6-25.4c2.4-10.4,6.6-20.2,7.4-31.2c1.6-22.6,13.2-39.4,33.4-50c1.3-0.7,2.8-1.2,4.2-1.3
	c16.5-1.2,33-1.2,48.4,6c7.1,3.3,13.7,8,20.4,12.2c12,7.4,23.9,15,36,22.3c7.6,4.6,15.2,9.4,18.6,17.7c3.1,7.5,5,15.3,2.4,24.2
	c-3.5,11.9-10.1,20.6-20.9,25.9c-5.2,2.6-11.2,4.3-17,4.9c-11.2,1.3-22.5,1.8-33.8,2.4c-9.5,0.5-17.4,5.2-24.9,10.1
	c-11.6,7.6-23.2,15.1-37,18.2c-14.2,3.2-32.6-4.8-39-19C86,251,85.3,245.2,83.7,239.1z"/>
<path d="M134.4,82.2c-1.8,12.9-2.4,24.9-11.1,34.3c-7.6,8.2-15.2,9.8-24.8,4.6C81.7,112,72.9,97.7,74.4,78.6
	c0.8-10.4,2.6-21,8.1-30.4C86.6,41,100.5,36,108.3,39c13.3,5.1,20.5,15,23.3,28.6C132.6,72.7,133.6,77.9,134.4,82.2z"/>
<path d="M43.5,113c13.8-0.3,22.6,6.8,28.9,16.7c6,9.3,9.2,20,9.1,31.1c-0.1,13.1-6.1,23.8-17.9,30c-6.3,3.3-13.3,2-19.3-2.3
	c-9.7-6.8-17.4-16.3-19.3-27.3c-2.2-12.6-3.3-26.3,2.6-38.7C30.7,115.7,36.4,111.8,43.5,113z"/>
<path d="M210.5,75.8c-0.7,17.1-3.6,29.7-12.8,40c-5.6,6.2-13.4,7.1-20,2.1c-18.8-14.1-26.5-33.3-21.9-56.1
	c3.2-15.8,11.9-24.3,29.5-21c8.6,1.6,14.2,8,18.9,15.1C208.9,63.1,211,71,210.5,75.8z"/>
<path d="M352.3,283.2c0.9-24.7,10.3-36,23.9-44.4c4.3-2.6,9.4-4.7,14.3-5.3c9.8-1.1,18.2,2.9,23.2,11.4c10.5,17.7,6.4,33.3-9.9,45.1
	c-7.6,5.5-16,9.5-25.9,10.1C361.1,301.1,351.8,291.7,352.3,283.2z"/>
<path d="M288.1,305.8c-7,0.5-13.9-0.7-17.7-8.7c-0.6-1.2-1.2-2.4-1.4-3.6c-3.6-18.1,2.9-33.1,15.5-45.4c6.5-6.3,15.5-7.4,24.4-5.2
	c6.6,1.6,13.2,4,16.2,10.9c3.5,7.9,5.9,15.9,3.3,25c-2.2,7.4-5.2,13.7-11.5,18.4C309.8,302.3,298.5,306,288.1,305.8z"/>
<path d="M421.4,322.4c1.6-7.6,2.7-14.6,4.4-21.4c1.6-6.2,6.3-10.3,12-12c19.5-5.7,39.8,4.7,40.4,26c0.4,13.6-4.1,25.1-14,34.7
	c-7.6,7.3-30.2,9.4-37.2-4.3C423.5,338.5,423.1,330,421.4,322.4z"/>
<path d="M434.1,413.5c2.8-9.2,5.4-19.6,9.4-29.5c3.4-8.4,17.4-11.4,26.2-7.1c8.1,3.9,11.8,10.6,14.8,18.6c3.1,8.1-0.6,14.6-2.6,21.7
	c-1.9,6.9-4.4,13.4-9.2,18.8c-5.8,6.5-12.9,7.8-20.9,6c-7.3-1.7-11.3-7.2-13.8-13.7C436.4,424.2,435.6,419.5,434.1,413.5z"/>
<path d="M274.9,125.7c0.5,9.2-4.7,14.9-12,18.5c-11.3,5.7-23.9,4.9-32.9-5.5c-7.9-9.2-11.4-29.4-4.8-40.7c5-8.7,18.5-13,28-7.4
	C266.3,98.4,273.4,110.5,274.9,125.7z"/>
</svg>
