<?xml version="1.0" encoding="utf-8"?>
<!-- Generator: Adobe Illustrator 24.3.0, SVG Export Plug-In . SVG Version: 6.00 Build 0)  -->
<svg version="1.1" id="レイヤー_1" xmlns="http://www.w3.org/2000/svg" xmlns:xlink="http://www.w3.org/1999/xlink" x="0px"
	 y="0px" viewBox="0 0 20 20" style="enable-background:new 0 0 20 20;" xml:space="preserve">
<style type="text/css">
	.st0{fill:none;}
	.st1{fill:#FFFFFF;}
</style>
<rect class="st0" width="20" height="20"/>
<g>
	<path class="st1" d="M20,6.4l-1,2.8v0C18.5,9,18,9,17.5,9.3s-0.9,0.6-1,1.1s-0.2,1,0.1,1.5c0.2,0.5,0.6,0.8,1.1,1v0l-1,2.8
		L1.6,10.4l1-2.8c0.5,0.2,1,0.2,1.5-0.1c0.5-0.2,0.8-0.6,1-1.1s0.2-1-0.1-1.5c-0.2-0.5-0.6-0.8-1.1-1l1-2.9L20,6.4z M15,12.1
		l1.4-3.8c0.1-0.3,0.1-0.7,0-0.9S16,6.8,15.7,6.7L8.1,4C7.5,3.8,6.8,4.1,6.5,4.7L5.2,8.5c-0.2,0.6,0.1,1.4,0.7,1.6l7.5,2.7
		c0.1,0.1,0.3,0.1,0.4,0.1C14.4,12.9,14.9,12.6,15,12.1z M8,4.4l7.5,2.7c0.2,0.1,0.3,0.2,0.4,0.4c0.1,0.2,0.1,0.4,0,0.6l-1.4,3.8
		c-0.1,0.4-0.6,0.6-1,0.4L6.1,9.6C5.7,9.5,5.5,9,5.6,8.6L7,4.9c0.1-0.3,0.4-0.5,0.7-0.5C7.8,4.4,7.9,4.4,8,4.4z M14.8,16.6
		c0.4,0.3,0.8,0.4,1.2,0.4h0v3H0v-3c0.6,0,1-0.2,1.4-0.6C1.8,16.1,2,15.6,2,15s-0.2-1-0.6-1.4S0.6,13,0,13v-3h1l-0.3,0.8l2.9,1
		C3.1,12,2.8,12.4,2.8,13v4c0,0.7,0.6,1.2,1.2,1.2h8c0.7,0,1.2-0.6,1.2-1.2v-1.8l0.8,0.3C14.2,16,14.4,16.3,14.8,16.6z M3.2,17v-4
		c0-0.4,0.3-0.8,0.8-0.8h0.8l7.9,2.8V17c0,0.4-0.3,0.8-0.8,0.8H4C3.6,17.8,3.2,17.4,3.2,17z"/>
</g>
</svg>
