<?xml version="1.0" encoding="utf-8"?>
<!-- Generator: Adobe Illustrator 24.3.0, SVG Export Plug-In . SVG Version: 6.00 Build 0)  -->
<svg version="1.1" id="レイヤー_1" xmlns="http://www.w3.org/2000/svg" xmlns:xlink="http://www.w3.org/1999/xlink" x="0px"
	 y="0px" viewBox="0 0 20 20" style="enable-background:new 0 0 20 20;" xml:space="preserve">
<style type="text/css">
	.st0{fill:none;}
	.st1{fill:#FFFFFF;}
</style>
<rect class="st0" width="20" height="20"/>
<g>
	<path class="st1" d="M19,10c0-5-4-9-9-9s-9,4-9,9s4,9,9,9S19,15,19,10z M10,2.6c0.8,0,1.5,0.7,1.5,1.5S10.8,5.6,10,5.6
		c-0.8,0-1.5-0.7-1.5-1.5S9.2,2.6,10,2.6z M3.4,7.4c0-0.7,6.6-0.8,6.6-0.8s6.6,0.1,6.6,0.8s-4.5,1.4-4.5,1.4s1.7,8.1,1.1,8.4
		c-0.6,0.2-3.2-5.2-3.2-5.2s-2.6,5.4-3.2,5.2c-0.6-0.2,1.1-8.4,1.1-8.4S3.4,8,3.4,7.4z"/>
</g>
</svg>
