<?xml version="1.0" encoding="utf-8"?>
<!-- Generator: Adobe Illustrator 24.3.0, SVG Export Plug-In . SVG Version: 6.00 Build 0)  -->
<svg version="1.1" id="レイヤー_1" xmlns="http://www.w3.org/2000/svg" xmlns:xlink="http://www.w3.org/1999/xlink" x="0px"
	 y="0px" viewBox="0 0 20 20" style="enable-background:new 0 0 20 20;" xml:space="preserve">
<style type="text/css">
	.st0{fill:none;}
	.st1{fill:#FFFFFF;}
</style>
<rect class="st0" width="20" height="20"/>
<g>
	<path class="st1" d="M20,10c0-5.5-4.5-10-10-10S0,4.5,0,10s4.5,10,10,10S20,15.5,20,10z M10,1c5,0,9,4,9,9s-4,9-9,9s-9-4-9-9
		S5,1,10,1z M8,14.8L5,6.6C5.4,6.6,6,6.5,6,6.5c0.4-0.1,0.4-1-0.1-1c0,0-1.3,0.1-2.1,0.1c-0.2,0-0.3,0-0.5,0C4.7,3.5,7.2,2,10,2
		c2.1,0,4,0.8,5.4,2.1C14.8,4,14,4.5,14,5.5c0,0.7,0.4,1.2,0.8,1.9c0.3,0.5,0.5,1.2,0.5,2.2c0,1.3-1.3,4.5-1.3,4.5l-2.7-7.5
		c0.5,0,0.8-0.2,0.8-0.2c0.4-0.1,0.4-1.1-0.1-1.1c0,0-1.3,0.1-2.1,0.1C9,5.5,7.7,5.4,7.7,5.4c-0.4,0-0.5,1.1-0.1,1.1l0.8,0.1l1.1,3
		L8,14.8z M14,17l2.6-7c0,0,0.7-1.7,0.4-3.8C17.7,7.3,18,8.6,18,10C18,13,16.4,15.6,14,17z M2.7,6.8l3.8,10.5C3.8,15.9,2,13.2,2,10
		C2,8.8,2.2,7.8,2.7,6.8z M10.1,11.3l2.3,6.2C11.7,17.8,10.9,18,10,18c-0.7,0-1.4-0.1-2.1-0.3L10.1,11.3z"/>
</g>
</svg>
