<?xml version="1.0" encoding="utf-8"?>
<!-- Generator: Adobe Illustrator 25.2.0, SVG Export Plug-In . SVG Version: 6.00 Build 0)  -->
<svg version="1.1" id="レイヤー_1" xmlns="http://www.w3.org/2000/svg" xmlns:xlink="http://www.w3.org/1999/xlink" x="0px"
	 y="0px" viewBox="0 0 600 400" style="enable-background:new 0 0 600 400;" xml:space="preserve">
<style type="text/css">
	.st0{fill-rule:evenodd;clip-rule:evenodd;fill:#E50012;}
</style>
<path class="st0" d="M309.6,164.5c0.4,0.4,80.8,183.8,80.7,183.6c-17.6,0-35.1,0-52.7,0c0-0.6-25-59.8-24.7-60.1
	c-19,0-37.8,0-56.8,0C256.6,288.2,310.4,163.9,309.6,164.5L309.6,164.5z"/>
<path class="st0" d="M138.4,51.9c0.4,0,123.5,0,123.5,0c0.4-0.1-122.7,296.2-123.1,295.8C138.8,347.3,138.5,51.7,138.4,51.9
	L138.4,51.9z"/>
<path class="st0" d="M355.9,51.9h127.7c0,0.7-0.1,296.4-0.1,296C483.6,348.8,355.9,51.9,355.9,51.9L355.9,51.9z"/>
</svg>
