<?xml version="1.0" encoding="UTF-8"?>
<svg id="_レイヤー_1" data-name="レイヤー_1" xmlns="http://www.w3.org/2000/svg" version="1.1" viewBox="0 0 1200 628">
  <!-- Generator: Adobe Illustrator 29.5.1, SVG Export Plug-In . SVG Version: 2.1.0 Build 141)  -->
  <defs>
    <style>
      .st0 {
        fill: #919191;
      }

      .st1 {
        fill: #a3a3a3;
      }
    </style>
  </defs>
  <rect class="st1" width="1200" height="628"/>
  <g id="slice">
    <path class="st0" d="M670.8,261.9c37.5,0,60.7-54.8,60.7-89.3s-14.3-63.4-43.2-63.4-60.7,54.7-60.7,89.3c0,28.8,14.4,63.4,43.2,63.4ZM561.3,261.9c28.8,0,43.2-34.6,43.2-63.4,0-37.5-23.1-92.2-60.5-92.2s-43.2,34.6-43.2,63.4c-2.8,37.5,20.2,92.2,60.5,92.2ZM774.6,233c-37.5,0-63.4,51.9-63.4,89.3s11.5,51.8,37.5,51.8c37.5.1,63.5-51.7,63.5-89.4h0c0-25.8-14.5-51.7-37.6-51.7ZM523.8,322.3c0-37.5-28.8-89.3-63.4-89.3-25.9,0-37.5,26-37.5,51.7,0,37.5,28.8,89.3,63.4,89.3,25.9.2,37.5-25.7,37.5-51.6h0ZM616.1,316.5c-57.6,0-135.5,92.2-135.5,155.6s20.2,37.5,43.2,37.5c34.6,0,60.7-23.1,92.2-23.1s54.7,23.1,86.4,23.1,49-5.7,49-37.5c0-63.3-77.8-155.5-135.4-155.5h0Z"/>
  </g>
</svg>