<svg xmlns="http://www.w3.org/2000/svg" viewBox="0 0 150 150"><g id="slice"><path d="M89.41,57.59c10.5,0,17-15.34,17-25,0-8.07-4-17.75-12.1-17.75-10.5,0-17,15.33-17,25C77.31,47.9,81.34,57.59,89.41,57.59Zm-30.67,0c8.07,0,12.11-9.69,12.11-17.76C70.85,29.34,64.39,14,53.9,14c-8.07,0-12.11,9.69-12.11,17.76C41,42.25,47.44,57.59,58.74,57.59Zm59.73-8.08c-10.49,0-17.76,14.53-17.76,25,0,7.26,3.23,14.52,10.5,14.52C121.7,89.06,129,74.54,129,64h0C129,56.78,124.93,49.51,118.47,49.51Zm-70.22,25c0-10.5-8.07-25-17.76-25C23.23,49.51,20,56.78,20,64c0,10.5,8.07,25,17.76,25C45,89.06,48.25,81.8,48.25,74.54Zm25.83-1.62c-16.14,0-37.94,25.83-37.94,43.59,0,8.07,5.65,10.49,12.11,10.49,9.69,0,17-6.46,25.83-6.46,8.07,0,15.33,6.46,24.21,6.46,6.46,0,13.72-1.61,13.72-10.49C112,98.75,90.22,72.92,74.08,72.92Z"/></g></svg>