<?xml version="1.0" encoding="utf-8"?>
<!-- Generator: Adobe Illustrator 28.0.0, SVG Export Plug-In . SVG Version: 6.00 Build 0)  -->
<svg version="1.1" id="レイヤー_1" xmlns="http://www.w3.org/2000/svg" xmlns:xlink="http://www.w3.org/1999/xlink" x="0px"
	 y="0px" viewBox="0 0 150 150" style="enable-background:new 0 0 150 150;" xml:space="preserve">
<style type="text/css">
	.st0{fill:#FFC144;}
	.st1{fill:#FFAA00;}
</style>
<path class="st0" d="M87.5,24.1c26.3,6.4,45.8,30.5,45.8,59.2c0,17.4-7.2,33.2-18.8,44.3c1.1-3.2-3.6-3.8-9.8-0.1
	c-30.1,17.8-48.5,9.7-59.5-3.3c0,0,4.9-1.4,10-3.5c15.2-6,34.4-32.4,15.9-52.8c-13.5-14.8,4.2-30.7,13.5-32c3.5-0.5,6.7-5.8,5.3-7.7
	C88.9,26.8,88.1,25.4,87.5,24.1z"/>
<g id="W_Mark_2_">
	<path class="st1" d="M73.5,31.9c6.9,0,13.7,1.4,20,4c3,1.3,6,2.9,8.7,4.7c2.7,1.8,5.3,3.9,7.6,6.3c2.3,2.3,4.4,4.9,6.3,7.6
		c1.8,2.7,3.4,5.7,4.7,8.7c2.7,6.3,4,13,4,20c0,6.9-1.4,13.7-4,20c-1.3,3-2.9,6-4.7,8.7c-1.8,2.7-3.9,5.3-6.3,7.6
		c-2.3,2.3-4.9,4.4-7.6,6.3c-2.7,1.8-5.7,3.4-8.7,4.7c-6.3,2.7-13,4-20,4s-13.7-1.4-20-4c-3-1.3-6-2.9-8.7-4.7
		c-2.7-1.8-5.3-3.9-7.6-6.3c-2.3-2.3-4.4-4.9-6.3-7.6c-1.8-2.7-3.4-5.7-4.7-8.7c-2.7-6.3-4-13-4-20s1.4-13.7,4-20
		c1.3-3,2.9-6,4.7-8.7c1.8-2.7,3.9-5.3,6.3-7.6c2.3-2.3,4.9-4.4,7.6-6.3c2.7-1.8,5.7-3.4,8.7-4.7C59.9,33.3,66.6,31.9,73.5,31.9
		 M73.5,28.6C43.4,28.6,19,53.1,19,83.2s24.4,54.6,54.6,54.6s54.6-24.4,54.6-54.6S103.7,28.6,73.5,28.6L73.5,28.6z"/>
	<path class="st1" d="M28.1,83.2c0,18,10.5,33.6,25.6,40.9L32,64.7C29.5,70.4,28.1,76.6,28.1,83.2z M104.2,80.9
		c0-5.6-2-9.5-3.7-12.5c-2.3-3.7-4.5-6.9-4.5-10.7c0-4.2,3.2-8.1,7.6-8.1c0.2,0,0.4,0,0.6,0c-8.1-7.4-18.9-11.9-30.7-11.9
		c-15.9,0-29.9,8.2-38,20.5c1.1,0,2.1,0.1,2.9,0.1c4.7,0,12.1-0.6,12.1-0.6c2.5-0.1,2.7,3.5,0.3,3.7c0,0-2.5,0.3-5.2,0.4l16.5,49.3
		l10-29.8l-7.1-19.4c-2.5-0.1-4.8-0.4-4.8-0.4c-2.5-0.1-2.2-3.9,0.3-3.7c0,0,7.5,0.6,12,0.6c4.7,0,12.1-0.6,12.1-0.6
		c2.5-0.1,2.7,3.5,0.3,3.7c0,0-2.5,0.3-5.2,0.4l16.4,48.9l4.7-14.9C103,89.4,104.2,84.8,104.2,80.9z M74.4,87.2l-13.7,39.6
		c4.1,1.2,8.4,1.8,12.8,1.8c5.3,0,10.4-0.9,15.1-2.6c-0.1-0.2-0.2-0.4-0.3-0.6L74.4,87.2z M113.5,61.4c0.2,1.5,0.3,3,0.3,4.7
		c0,4.6-0.9,9.8-3.5,16.3l-13.9,40.2c13.5-7.9,22.6-22.5,22.6-39.3C119,75.3,117,67.9,113.5,61.4z"/>
</g>
<path d="M104.7,127.4c-30.1,17.8-48.5,9.7-59.5-3.3c0,0,4.9-1.4,10-3.5c15.2-6,34.4-32.4,15.9-52.8c-13.5-14.8,4.2-30.7,13.5-32
	c3.5-0.5,6.7-5.8,5.3-7.7c-1-1.3-1.8-2.7-2.4-4.1c-0.6-1.2-1.1-2.5-1.6-3.6c-1.1-2.4-3.6-4.9-9.2-5.9c-1-0.8,0.8-9.8-2.3-9.8
	c-1.8,0-7.4,6.7-9.4,10.8c-2,4-7.3,8.5-12.8,10.9c-0.6,0.3-1.1,0.5-1.7,0.7C28.9,36.3,13.8,58,13.8,83.2c0,33.6,26.7,60.8,59.7,60.8
	c15.9,0,30.3-6.3,41-16.6C115.6,124.3,110.9,123.7,104.7,127.4z"/>
</svg>
