<?xml version="1.0" encoding="utf-8"?>
<!-- Generator: Adobe Illustrator 24.3.0, SVG Export Plug-In . SVG Version: 6.00 Build 0)  -->
<svg version="1.1" id="レイヤー_1" xmlns="http://www.w3.org/2000/svg" xmlns:xlink="http://www.w3.org/1999/xlink" x="0px"
	 y="0px" viewBox="0 0 600 400" style="enable-background:new 0 0 600 400;" xml:space="preserve">
<style type="text/css">
	.st0{clip-path:url(#SVGID_2_);fill:#405261;}
</style>
<g>
	<defs>
		<rect id="SVGID_1_" width="600" height="400"/>
	</defs>
	<clipPath id="SVGID_2_">
		<use xlink:href="#SVGID_1_"  style="overflow:visible;"/>
	</clipPath>
	<path class="st0" d="M462,97L306.7,7.7c-3.1-1.8-7-1.8-10.1,0L141.3,97c-3.1,1.8-5.1,5.1-5.1,8.8v178.7c0,3.6,1.9,7,5.1,8.8
		l155.3,89.4c3.1,1.8,7,1.8,10.1,0L462,293.3c3.1-1.8,5.1-5.1,5.1-8.8V105.8C467.1,102.2,465.1,98.9,462,97z M289.8,65
		c0,0.6-0.3,1.2-0.8,1.5l-55.5,32c-0.8,0.5-1.1,1.5-0.6,2.3c0.1,0.3,0.4,0.5,0.6,0.6l55.5,32c0.5,0.3,0.8,0.9,0.8,1.5V158
		c0,0.9-0.7,1.7-1.7,1.7c-0.3,0-0.6-0.1-0.8-0.2l-101-58.1c-0.8-0.5-1.1-1.5-0.6-2.3c0.1-0.3,0.4-0.5,0.6-0.6l101-58.2
		c1.1-0.6,2.5,0.2,2.5,1.5L289.8,65L289.8,65z M417,101.4l-101,58.2c-0.8,0.5-1.8,0.2-2.3-0.6c-0.1-0.3-0.2-0.5-0.2-0.8v-23.2
		c0-0.6,0.3-1.2,0.8-1.5l55.6-32c1.1-0.6,1.1-2.3,0-2.9l-55.6-32.1c-0.5-0.3-0.8-0.9-0.8-1.5V41.7c0-0.9,0.8-1.7,1.7-1.7
		c0.3,0,0.6,0.1,0.8,0.2l101,58.2C418.1,99.1,418.1,100.7,417,101.4z"/>
</g>
</svg>
