<?xml version="1.0" encoding="utf-8"?>
<!-- Generator: Adobe Illustrator 27.7.0, SVG Export Plug-In . SVG Version: 6.00 Build 0)  -->
<svg version="1.1" id="レイヤー_1" xmlns="http://www.w3.org/2000/svg" xmlns:xlink="http://www.w3.org/1999/xlink" x="0px"
	 y="0px" viewBox="0 0 600 400" style="enable-background:new 0 0 600 400;" xml:space="preserve">
<style type="text/css">
	.st0{fill:#2DAD38;}
	.st1{fill:#FFFFFF;}
</style>
<g id="a">
	<g>
		<rect x="141.7" y="43.7" class="st0" width="316.6" height="316.6"/>
		<g id="b">
			<g>
				<path class="st1" d="M414.8,188.1c0-51.6-51.7-93.6-115.3-93.6s-115.3,41.9-115.3,93.6c0,46.3,41,85,96.4,92.3
					c3.8,0.8,8.9,2.5,10.2,5.7c1.1,2.9,0.8,7.5,0.4,10.5c0,0-1.3,8.2-1.7,9.8c-0.5,2.9-2.3,11.4,10,6.2c12.3-5.2,66.4-39,90.6-66.9
					l0,0C406.9,227.3,414.9,208.8,414.8,188.1"/>
				<g>
					<path class="st0" d="M276.1,163.1H268c-1.2,0-2.2,1.1-2.2,2.2v50.2c0,1.2,1.1,2.2,2.2,2.2h8.1c1.2,0,2.2-1.1,2.2-2.2v-50.2
						C278.3,164.2,277.3,163.1,276.1,163.1"/>
					<path class="st0" d="M331.7,163.1h-8.1c-1.2,0-2.2,1.1-2.2,2.2v29.8l-23-31c0,0-0.1-0.2-0.2-0.2l0,0c0,0-0.1-0.1-0.1-0.2l0,0
						l-0.1-0.1l0,0l-0.1-0.1h-0.1l-0.1-0.1h-0.1l-0.1-0.1h-0.1l-0.1-0.1h-0.3l-0.1-0.1h-8.3c-1.2,0-2.2,1.1-2.2,2.2v50.2
						c0,1.2,1.1,2.2,2.2,2.2h8.1c1.2,0,2.2-1.1,2.2-2.2v-29.8l23,31.1c0.2,0.2,0.4,0.4,0.5,0.5l0,0l0.1,0.1h0.1l0.1,0.1h0.1l0.1,0.1
						h0.2c0,0,0.4,0.1,0.6,0.1h8.1c1.2,0,2.2-1.1,2.2-2.2v-50.2C334,164.1,333.1,163.1,331.7,163.1"/>
					<path class="st0" d="M256.6,205.3h-22v-39.9c0-1.2-1.1-2.2-2.2-2.2h-8.1c-1.2,0-2.2,1.1-2.2,2.2v50.2l0,0
						c0,0.6,0.3,1.1,0.6,1.6l0,0v0.1c0.4,0.4,1,0.6,1.6,0.6h32.3c1.2,0,2.2-1.1,2.2-2.2v-8.1C258.8,206.3,257.8,205.3,256.6,205.3"
						/>
					<path class="st0" d="M376.3,175.7c1.2,0,2.2-1.1,2.2-2.2v-8.1c0-1.2-1.1-2.2-2.2-2.2h-32.3c-0.6,0-1.1,0.3-1.6,0.6l0,0v0.1
						c-0.4,0.4-0.7,1-0.7,1.6l0,0v50.2l0,0c0,0.6,0.3,1.1,0.6,1.6l0,0v0.1c0.4,0.4,1,0.6,1.6,0.6h32.3c1.2,0,2.2-1.1,2.2-2.2v-8.1
						c0-1.2-1.1-2.2-2.2-2.2h-22v-8.4h22c1.2,0,2.2-1.1,2.2-2.2v-8.1c0-1.2-1.1-2.2-2.2-2.2h-22v-8.4L376.3,175.7L376.3,175.7z"/>
				</g>
			</g>
		</g>
	</g>
</g>
<g id="c">
</g>
</svg>
