<?xml version="1.0" encoding="utf-8"?>
<!-- Generator: Adobe Illustrator 24.3.0, SVG Export Plug-In . SVG Version: 6.00 Build 0)  -->
<svg version="1.1" id="レイヤー_1" xmlns="http://www.w3.org/2000/svg" xmlns:xlink="http://www.w3.org/1999/xlink" x="0px"
	 y="0px" viewBox="0 0 600 400" style="enable-background:new 0 0 600 400;" xml:space="preserve">
<style type="text/css">
	.st0{clip-path:url(#SVGID_2_);}
	.st1{fill:#013755;}
</style>
<g>
	<defs>
		<rect id="SVGID_1_" width="600" height="400"/>
	</defs>
	<clipPath id="SVGID_2_">
		<use xlink:href="#SVGID_1_"  style="overflow:visible;"/>
	</clipPath>
	<g class="st0">
		<g>
			<path class="st1" d="M200.2,146.5c0.9-3.5,3.2-4.7,6.5-3.8c3.5,0.9,5,3.1,4.1,6.6l-41.9,156.4c-0.9,3.5-3.2,4.7-6.7,3.7
				c-3.5-0.9-4.8-3.1-3.9-6.6L200.2,146.5z"/>
		</g>
		<g>
			<path class="st1" d="M289.1,146.5c0.9-3.5,3.2-4.7,6.5-3.8c3.5,0.9,5,3.1,4.1,6.6l-41.9,156.4c-0.9,3.5-3.2,4.7-6.7,3.7
				c-3.5-0.9-4.8-3.1-3.9-6.6L289.1,146.5z"/>
		</g>
		<g>
			<path class="st1" d="M24.5,124.1c0-3.6,1.7-5.3,5.2-5.3c3.6,0,5.3,1.7,5.3,5.3v91.1h46.3c3.6,0,5.3,1.7,5.3,5.2
				c0,3.6-1.7,5.3-5.3,5.3H31.6c-4.8,0-7.1-2.7-7.1-8.2V124.1z"/>
			<path class="st1" d="M125.5,143.7c19.2,0,29.3,11.5,29.3,26.1v51.8c0,2.7-1.9,5.3-5.3,5.3c-3.5,0-5.2-2.5-5.3-5.2
				c-0.1-2.7-0.1-3.6-0.1-4.9c-6.2,6.6-15.4,10.1-24.7,10.1c-14.1,0-27.7-7.9-27.7-24.1c0-16.9,15.4-25.5,30.6-25.5
				c8.2,0,17,2.5,21.8,7.2v-13.7c0-10-8.1-16.6-21.6-16.6c-9.4,0-15.4,3.5-19.9,3.5c-2.4,0-4.9-1.2-4.9-4.5c0-1.9,1.6-4.2,4-5.2
				C107.9,145.4,115.5,143.7,125.5,143.7z M121.2,216.8c11,0,22.6-5.8,22.6-15.7c0-8.8-11-13.8-21.6-13.8
				c-10.1,0-19.8,4.6-19.8,14.7C102.4,212.3,111.4,216.8,121.2,216.8z"/>
			<path class="st1" d="M329.3,112.5c4,0,7.2,3.2,7.2,7.2s-3.2,7.2-7.2,7.2s-7.2-3.2-7.2-7.2S325.3,112.5,329.3,112.5z M324.3,149.2
				c0-3.6,1.9-5.3,5.3-5.3c3.6,0,5.6,1.7,5.6,5.3v71.2c0,3.6-1.9,5.3-5.5,5.3c-3.6,0-5.5-1.7-5.5-5.3V149.2z"/>
			<path class="st1" d="M362.4,150.2c0-3.7,1.7-5.6,5.2-5.6c3.6,0,5.3,1.9,5.3,5.6v5.5c4.8-8.7,13.1-12.5,21.6-12.5
				c13.8,0,28.1,10.4,28.1,27.5v49.9c0,3.5-1.7,5.2-5.3,5.2c-3.5,0-5.2-1.7-5.2-5.2v-45.3c0-14.6-9.7-21.6-19.3-21.6
				c-10,0-19.9,7.4-19.9,21.6v45.3c0,3.5-1.7,5.2-5.3,5.2c-3.5,0-5.2-1.7-5.2-5.2C362.4,220.6,362.4,150.2,362.4,150.2z"/>
			<path class="st1" d="M474.2,143.7c19.2,0,29.3,11.5,29.3,26.1v51.8c0,2.7-1.9,5.3-5.3,5.3c-3.5,0-5.2-2.5-5.3-5.2
				c-0.1-2.7-0.1-3.6-0.1-4.9c-6.2,6.6-15.4,10.1-24.7,10.1c-14.1,0-27.7-7.9-27.7-24.1c0-16.9,15.4-25.5,30.6-25.5
				c8.2,0,17,2.5,21.8,7.2v-13.7c0-10-8.1-16.6-21.6-16.6c-9.4,0-15.4,3.5-19.9,3.5c-2.5,0-4.9-1.2-4.9-4.5c0-1.9,1.6-4.2,4-5.2
				C456.6,145.4,464.2,143.7,474.2,143.7z M469.9,216.8c11,0,22.6-5.8,22.6-15.7c0-8.8-11-13.8-21.6-13.8
				c-10.1,0-19.8,4.6-19.8,14.7C451.1,212.3,460,216.8,469.9,216.8z"/>
			<path class="st1" d="M551.4,216.7c7.8,0,17.7-3.2,17.7-12.6c0-7.1-8.9-11.1-16.6-13.8c-13.1-4.8-29-11.1-29-23.4
				c0-16.3,13.7-23.5,29-23.5c7.5,0,15.4,1.4,22.4,5.2c1.9,1,2.7,3,2.7,5c0,3.3-2.2,5-4.9,5c-1,0-2.2-0.3-3.2-0.9
				c-3.5-2-10.5-3.8-17.3-3.8c-8.5,0-17.3,3-17.3,11.5c0,6.6,11.2,10.1,22.1,14.6c11.8,4.9,23.9,10,23.9,22.9
				c0,17.7-15.6,24.2-29.9,24.2c-10.4,0-18.7-3.5-26.7-8.5c-1.3-0.9-1.9-2.6-1.9-4.3c0-4,2-5.9,4.8-5.9c1.3,0,2.7,0.6,4.2,1.6
				C536.6,213.5,543.4,216.7,551.4,216.7z"/>
		</g>
		<path class="st1" d="M238.6,165.5c0.9-3.5,3.2-4.7,6.5-3.8c3.5,0.9,5,3.1,4.1,6.6l-18.4,68.8c-0.9,3.5-3.2,4.7-6.7,3.7
			c-3.5-0.9-4.8-3.1-3.9-6.6L238.6,165.5z"/>
	</g>
</g>
</svg>
