<?xml version="1.0" encoding="utf-8"?>
<!-- Generator: Adobe Illustrator 22.1.0, SVG Export Plug-In . SVG Version: 6.00 Build 0)  -->
<svg version="1.1" id="レイヤー_1" xmlns="http://www.w3.org/2000/svg" xmlns:xlink="http://www.w3.org/1999/xlink" x="0px"
	 y="0px" viewBox="0 0 600 400" style="enable-background:new 0 0 600 400;" xml:space="preserve">
<style type="text/css">
	.st0{clip-path:url(#SVGID_2_);fill:#E05555;}
</style>
<title>catpow</title>
<g>
	<defs>
		<rect id="SVGID_1_" width="600" height="400"/>
	</defs>
	<clipPath id="SVGID_2_">
		<use xlink:href="#SVGID_1_"  style="overflow:visible;"/>
	</clipPath>
	<path class="st0" d="M337.3,81.2c2,1.2,4.2,3,6.6,5.3c2.4,2.4,4.7,5.4,6.9,9c2.2,3.4,4.1,7.3,5.8,11.9c1.4,4.6,2.1,9.9,2.1,16
		c-0.2,11.2-2.7,20.1-7.4,26.8c-2.3,3.3-4.8,6.2-7.4,9c-2.9,2.7-6,5.5-9.2,8.4c-1.9,1.9-3.6,4.1-5.2,6.6c-1.9,2.5-2.8,5.5-2.8,8.8
		c0,3.3,1,6,2.9,8.1c1.6,2,3.2,3.8,4.7,5.3l10.6,8.7c6.6,5.4,12.4,11.3,17.3,17.8c4.7,6.6,7.1,15.2,7.3,25.9
		c0,15.1-6.7,28.6-20.1,40.3c-13.9,12.1-33.9,18.3-60,18.7c-21.9-0.2-38.2-4.9-49-14c-10.9-8.5-16.3-18.7-16.3-30.6
		c0-5.8,1.8-12.2,5.3-19.3c3.4-7.1,9.7-13.3,18.7-18.7c10.1-5.8,20.7-9.6,31.9-11.6c11-1.6,20.2-2.5,27.5-2.7c-2.3-3-4.3-6.1-6-9.5
		c-2.1-3.3-3.1-7.2-3.1-11.8c0-2.8,0.4-5.1,1.2-6.9c0.7-1.9,1.3-3.7,1.9-5.4c-3.5,0.4-6.9,0.6-10,0.6c-16.6-0.2-29.3-5.4-38-15.7
		c-9.1-9.6-13.7-20.7-13.7-33.4c0-15.4,6.5-29.3,19.4-41.8c8.9-7.3,18.1-12.1,27.7-14.3c9.5-1.9,18.4-2.9,26.7-2.9h62.5l-19.3,11.3
		H337.3z M349.4,261.1c0-7.9-2.6-14.8-7.8-20.7c-5.5-5.6-14-12.4-25.7-20.6c-2-0.2-4.3-0.3-7-0.3c-1.6-0.2-5.7,0-12.2,0.6
		c-6.5,0.9-13.1,2.4-19.9,4.4c-1.6,0.6-3.8,1.5-6.7,2.8c-2.9,1.3-5.8,3.2-8.8,5.6c-2.9,2.5-5.3,5.7-7.3,9.5c-2.3,4-3.4,8.7-3.4,14.3
		c0,11,5,20,14.9,27.1c9.5,7.1,22.4,10.8,38.8,11c14.7-0.2,26-3.5,33.7-9.8C345.6,278.9,349.4,270.9,349.4,261.1z M305.8,169.5
		c8.2-0.3,15.1-3.3,20.6-8.9c2.7-4,4.4-8,5.1-12.2c0.5-4.2,0.7-7.7,0.7-10.5c0-12.3-3.2-24.7-9.5-37.3c-3-6-6.9-10.9-11.7-14.7
		c-4.9-3.6-10.6-5.4-17-5.6c-8.5,0.2-15.5,3.6-21.1,10.2c-4.7,6.9-7,14.7-6.8,23.2c0,11.3,3.3,23,9.9,35.3
		c3.2,5.7,7.3,10.5,12.4,14.5C293.5,167.5,299.3,169.5,305.8,169.5z"/>
</g>
</svg>
