<?xml version="1.0" encoding="UTF-8"?>
<svg id="_レイヤー_1" xmlns="http://www.w3.org/2000/svg" version="1.1" viewBox="0 0 600 400">
  <!-- Generator: Adobe Illustrator 30.5.1, SVG Export Plug-In . SVG Version: 2.1.4 Build 3)  -->
  <defs>
    <style>
      .st0 {
        fill: none;
      }

      .st1 {
        fill: #4554a1;
      }
    </style>
  </defs>
  <path class="st1" d="M447.1,375H149.5c-34.6,0-62.7-28.1-62.7-62.7V83.7c0-34.6,28.1-62.7,62.7-62.7h297.7c34.6,0,62.7,28.1,62.7,62.7v228.7c0,34.6-28.1,62.7-62.7,62.7h-.1ZM149.5,41c-23.5,0-42.7,19.1-42.7,42.7v228.7c0,23.5,19.1,42.7,42.7,42.7h297.7c23.5,0,42.7-19.1,42.7-42.7V83.7c0-23.5-19.1-42.7-42.7-42.7H149.5Z"/>
  <rect class="st1" x="95.3" y="188" width="406" height="20"/>
  <rect class="st1" x="288.3" y="32.5" width="20" height="331"/>
  <path class="st1" d="M376.1,314.7l22-13.3,22,13.4-5.8-25.1,19.4-16.8-25.5-2.3-10.1-23.8-10.1,23.6-25.5,2.3,19.4,16.9-5.8,25h0ZM354.9,343.9l11.4-49.1-38.1-33,50.3-4.4,19.6-46.3,19.6,46.3,50.3,4.4-38.1,33,11.4,49.1-43.1-26-43.1,26h-.2Z"/>
  <path class="st1" d="M160.3,160.9h21v-41.9h41.9v41.9h21v-62.9l-41.9-31.4-41.9,31.4v62.9h0ZM146.3,174.8v-83.8l55.9-41.9,55.9,41.9v83.8h-48.9v-41.9h-14v41.9h-48.9Z"/>
  <path class="st1" d="M200,348l-10.1-9.1c-11.8-10.6-21.5-19.7-29.2-27.4-7.7-7.7-13.8-14.6-18.3-20.7s-7.7-11.7-9.5-16.9-2.7-10.4-2.7-15.7c0-10.9,3.7-20.1,11-27.4,7.3-7.3,16.5-11,27.4-11s11.8,1.3,17.3,3.8,10.2,6.2,14.1,10.8c4-4.7,8.7-8.3,14.1-10.8,5.4-2.5,11.2-3.8,17.3-3.8,10.9,0,20.1,3.7,27.4,11,7.3,7.3,11,16.5,11,27.4s-.9,10.6-2.7,15.7c-1.8,5.1-5,10.7-9.5,16.9-4.5,6.1-10.7,13-18.3,20.7s-17.4,16.8-29.2,27.4c0,0-10.1,9.1-10.1,9.1ZM200,329.1c11.2-10,20.4-18.6,27.6-25.8,7.2-7.2,12.9-13.4,17.1-18.7,4.2-5.3,7.1-10,8.7-14.1s2.4-8.2,2.4-12.3c0-7-2.3-12.8-7-17.5s-10.5-7-17.5-7-10.5,1.5-15.2,4.6-7.9,7-9.6,11.8h-13.3c-1.7-4.8-4.9-8.7-9.6-11.8s-9.7-4.6-15.2-4.6-12.8,2.3-17.5,7c-4.7,4.7-7,10.5-7,17.5s.8,8.2,2.4,12.3,4.5,8.8,8.7,14.1c4.2,5.3,9.9,11.5,17.1,18.7s16.4,15.7,27.6,25.8h.3Z"/>
  <path class="st1" d="M448,179.4l-44-44c-3.5,2.8-7.5,5-12,6.6s-9.4,2.4-14.5,2.4c-12.7,0-23.4-4.4-32.2-13.2s-13.2-19.5-13.2-32.2,4.4-23.4,13.2-32.2c8.8-8.8,19.5-13.2,32.2-13.2s23.4,4.4,32.2,13.2,13.2,19.5,13.2,32.2-.8,10-2.4,14.5-3.8,8.6-6.6,12l44,44-9.8,9.8h-.1ZM377.5,130.5c8.7,0,16.2-3.1,22.3-9.2s9.2-13.5,9.2-22.3-3.1-16.2-9.2-22.3-13.5-9.2-22.3-9.2-16.2,3.1-22.3,9.2-9.2,13.5-9.2,22.3,3.1,16.2,9.2,22.3,13.5,9.2,22.3,9.2Z"/>
  <rect class="st0" width="600" height="400"/>
</svg>