<svg id="レイヤー_1" data-name="レイヤー 1" xmlns="http://www.w3.org/2000/svg" xmlns:xlink="http://www.w3.org/1999/xlink" viewBox="0 0 600 400"><defs><style>.cls-1{fill:none;}.cls-2{clip-path:url(#clip-path);}.cls-3{fill:#a1e6c7;}</style><clipPath id="clip-path"><rect class="cls-1" width="600" height="400"/></clipPath></defs><title>post_sort</title><g class="cls-2"><path class="cls-3" d="M574.79,19.6,130.21-65.33A56.7,56.7,0,0,0,63.89-20.28,56.68,56.68,0,0,0,108.94,46L553.52,131A56.69,56.69,0,1,0,574.79,19.6ZM115.92,31.22A40.82,40.82,0,0,1,83.49-16.53,40.82,40.82,0,0,1,131.24-49,40.82,40.82,0,0,1,163.67-1.22,40.82,40.82,0,0,1,115.92,31.22Z"/><path class="cls-3" d="M543,186.23,98.38,101.31A56.69,56.69,0,1,0,77.11,212.67L521.69,297.6A56.69,56.69,0,1,0,543,186.23ZM84.09,197.85a40.82,40.82,0,1,1,47.75-32.44A40.82,40.82,0,0,1,84.09,197.85Z"/><path class="cls-3" d="M511.06,353.21,66.48,268.29A56.69,56.69,0,1,0,45.21,379.65l444.58,84.93a56.69,56.69,0,1,0,21.27-111.37ZM52.2,364.83A40.82,40.82,0,1,1,100,332.39,40.82,40.82,0,0,1,52.2,364.83Z"/><polygon class="cls-3" points="290.6 301.16 290.6 301.16 249.65 259.74 343.94 277.76 290.6 301.16"/><polygon class="cls-3" points="329.07 99.81 329.07 99.81 370.02 141.22 275.73 123.21 329.07 99.81"/></g></svg>