<?xml version="1.0" encoding="utf-8"?>
<!-- Generator: Adobe Illustrator 26.0.2, SVG Export Plug-In . SVG Version: 6.00 Build 0)  -->
<svg version="1.1" id="レイヤー_1" xmlns="http://www.w3.org/2000/svg" xmlns:xlink="http://www.w3.org/1999/xlink" x="0px"
	 y="0px" viewBox="0 0 600 400" style="enable-background:new 0 0 600 400;" xml:space="preserve">
<style type="text/css">
	.st0{fill:#FF0132;}
</style>
<g id="g193">
	<path id="path79" class="st0" d="M180.1,142.2c-2.7,0.4-14.4,2.7-18.3,3.5c-4.3,1.2-44,32.3-46.7,39.7c-0.4,2.3,0,29.6,0,29.6
		l22.6,1.6l-0.8,7.4c-3.1-0.4-24.1,0-37.4,0c-6.6,0-26.9,0.8-33.9,0.4l0.8-7c4.3,0.4,10.9-0.4,14.8-1.6c3.9-1.2,7-2.7,7-6.6v-23.4
		c-1.6-4.3-34.6-45.9-43.2-52.5c-2.3-0.8-19.1-2.7-23-3.5l0.8-7h75.9l-1.2,6.6c-3.5,0.8-19.5,1.2-23.7,2.3c10.9,16,28,37,33.5,44.8
		c3.1-4.3,32.3-24.9,33.1-31.1c-4.3-0.8-17.9-2.7-20.2-2.7l-1.2-7h65.4L180.1,142.2L180.1,142.2z"/>
	<path id="path77" class="st0" d="M342,202.9c-12.1-0.8-33.1-0.4-45.1,0l0.8-6.2c1.9,0,11.7-1.6,14-1.9V173
		c-5.8,0-39.3,0.8-44.4,1.9v19.5c0,0,14.4,1.6,17.5,1.9l-0.8,6.6c-12.8-0.8-38.9-0.8-51.4,0l0.8-7c3.9,0,14.4-1.2,16.7-1.6
		c0.4-4.7,0.4-12.5,0.4-20.2v-9.7c0-3.5,0-12.8-0.4-16.3c-2.7,0-14.8-1.2-17.9-1.2l0.8-6.2c10.9,0.8,44,0.8,52.9,0l-0.8,5.8
		c-2.7,0-14.4,1.9-17.9,1.9v17.1h44.4v-25.3c-3.1-0.4-11.3-1.9-14.8-2.3l0.8-5.8c7.4,0.4,37,0.4,44.8,0l-0.4,6.2
		c-2.3,0-10.9,1.6-14,1.9v55.3c0,0,12.5,1.6,15.2,1.9L342,202.9L342,202.9z"/>
	<path id="path2" class="st0" d="M575.2,184.6h-12.1V122h27.2l-2.3,9.3L575.2,184.6z M565.8,209.6l-8.2,0.4l1.6-14l8.2,0.4l7.8-0.4
		l-1.6,13.6H565.8z"/>
	<path id="path172" class="st0" d="M498.5,128.2c-32.3,0.8-52.5,13.2-52.9,35v0.8c0.8,21.8,20.6,34.6,52.9,35.4h2.3
		c31.9-0.8,52.2-13.6,52.9-35.8c-0.8-21-20.6-34.6-52.9-35.4H498.5z M495,137.9h8.6c10.9,0.8,30.7,7,31.1,25.7
		c0,18.7-20.2,25.7-31.1,26.1H495c-10.9-0.8-30.7-7.4-31.1-26.1C464.2,144.9,484.1,138.7,495,137.9z"/>
	<path id="path168" class="st0" d="M389.1,139.1c-30.7,0.8-47.9,12.8-47.9,32.7v0.8c0,18.7,18.7,31.9,47.9,32.7h3.1
		c29.2-0.8,47.9-13.2,48.3-32.7v-0.8c0-19.9-19.1-31.9-48.3-32.7H389.1z M387.6,148.1h6.2c10.1,0.4,29.6,5.8,29.6,23.4v1.6
		c0,17.1-19.5,23-29.6,23.4h-6.2c-10.1-0.4-29.6-5.8-29.6-23.4v-0.8v-0.8C358,154.3,377.4,148.4,387.6,148.1z"/>
	<path id="path164" class="st0" d="M169.2,153.5l-0.4,5.4l12.5,3.1c0,0-18.3,36.6-22.2,41.6c-3.1,0.8-11.3,2.7-14.4,3.1l-0.8,6.6
		c2.3-0.4,34.6,0,37.8,0l0.8-6.2l-11.3-2.7c0,0,5.1-10.5,5.8-11.7c3.5-0.8,24.5-1.2,24.5-1.2l7.4,20.2c0,0-9,1.6-12.5,1.6l-0.8,6.6
		H242l0.8-5.8c-2.7,0.4-11.3-1.9-14.4-2.3c-3.5-5.4-16-37-21.8-51l10.5-1.6l1.2-5.4h-16C196.5,153.9,171.6,153.9,169.2,153.5z
		 M190.6,162.5l9,23h-19.5C181.3,182.7,190.6,162.5,190.6,162.5z"/>
</g>
<g id="g184">
	<path id="path85" class="st0" d="M387.2,215.4c-1.6,0.4-6.6,1.9-8.2,2.7c0,4.7-0.8,26.1-0.8,26.1c-0.4,9.7-4.7,16.3-16,21L358,264
		c5.4-3.1,8.2-6.2,8.6-8.6c1.2-3.1,1.6-10.5,1.6-23.7c0,0,0-10.1-0.4-13.6c-1.6-0.4-8.6-1.9-10.9-2.3v-3.1c4.3,0,14.4,0.4,17.9,0.4
		c3.9,0,8.6,0,12.5-0.4L387.2,215.4L387.2,215.4z"/>
	<path id="path83" class="st0" d="M568.9,221.6c-0.8,0.4-3.1,0.8-5.4,1.2c0,3.5,0.4,28.8,0.4,34.6c0,0.8-0.8,1.2-1.9,0.4
		c-5.4-5.4-23-25.3-28.8-32.3c0,4.7,0.4,22.6,0.4,25.7c2.3,0.8,7.4,1.9,8.2,1.9l0.4,3.5H523v-3.5c1.9-0.8,3.5-1.6,5.4-1.9
		c0.4-1.9,0.4-26.9,0.4-28.8c-1.6,0-4.3-0.4-6.2-0.4v-4.3h14c5.1,5.8,17.1,19.1,23.4,26.1c0-5.8-0.4-19.5-0.4-21.8
		c-1.2,0-3.5-0.4-5.8-0.8l-0.4-3.5c1.2,0,7.8,0.4,9,0.4c1.2,0,6.6-0.4,7.8-0.4C570.1,217.7,568.9,221.6,568.9,221.6L568.9,221.6z"/>
	<path id="path81" class="st0" d="M465.4,232.1c0,4.7-4.3,6.6-9.3,7.4v3.5c10.1-1.2,16.7-5.1,16.7-11.3v-0.4c0-7-4.7-13.2-15.6-13.2
		h-21l0.8,3.9c1.9,0.4,4.7,0.4,6.6,0.4c0,4.7,0.8,24.5,0.4,30.4c-1.2,0.4-5.1,1.2-6.6,1.6l-0.4,3.5h24.1v-2.7
		c-1.6-0.4-7-1.6-8.2-1.6c0-1.2-0.4-29.2-0.4-30.7c2.3,0,6.2,0,7.8,0.4c4.3,1.2,5.4,5.4,5.4,8.6"/>
	<path id="path160" class="st0" d="M419.1,217.7l-21,0.8v2.7l5.4,0.8c-3.5,7.8-12.8,27.6-14.4,30c-1.6,0.8-3.1,1.2-4.7,1.6l-0.4,3.1
		h16.7v-2.7l-5.1-1.6c0,0,3.1-7.8,4.3-10.1h14.4l3.9,10.1c0,0-3.5,0.8-6.2,1.2l-0.4,2.7h21l0.4-3.1c-1.9,0.8-6.2-0.4-6.2-0.4
		c-2.7-5.4-9.7-22.6-13.2-30.7l5.4-1.2V217.7z M407.8,224.7l5.8,14.8h-12.1C402.4,237.6,407.8,224.7,407.8,224.7z"/>
	<path id="path158" class="st0" d="M505.9,217.7l-20.6,0.8v2.7l5.4,0.8c-3.5,7.8-12.8,27.6-14.4,30c-1.6,0.4-3.1,1.2-4.7,1.6
		l-0.4,3.1c4.7-0.4,15.2,0,16.7,0v-2.7l-5.1-1.6c0,0,3.1-7.8,4.3-10.1h14.4l3.9,10.1c0,0-3.5,0.8-6.2,1.2l-0.4,2.7h21l0.4-3.1
		c-2.3,0.8-6.6-0.4-6.6-0.4c-4.3-9-11.3-26.1-13.2-30.7l5.1-0.8L505.9,217.7z M494.6,224.7l5.8,14.8h-12.1
		C489.2,237.6,494.6,224.7,494.6,224.7z"/>
</g>
</svg>
