<?xml version="1.0" encoding="utf-8"?>
<!-- Generator: Adobe Illustrator 23.0.2, SVG Export Plug-In . SVG Version: 6.00 Build 0)  -->
<svg version="1.1" id="レイヤー_1" xmlns="http://www.w3.org/2000/svg" xmlns:xlink="http://www.w3.org/1999/xlink" x="0px"
	 y="0px" viewBox="0 0 600 400" style="enable-background:new 0 0 600 400;" xml:space="preserve">
<style type="text/css">
	.st0{clip-path:url(#SVGID_2_);fill:#5A96C7;}
	.st1{clip-path:url(#SVGID_4_);fill:none;}
	.st2{clip-path:url(#SVGID_6_);fill:none;}
	.st3{clip-path:url(#SVGID_8_);fill:none;}
</style>
<title>csv</title>
<g>
	<g>
		<defs>
			<polyline id="SVGID_1_" points="600,0 600,400 0,400 0,0 			"/>
		</defs>
		<clipPath id="SVGID_2_">
			<use xlink:href="#SVGID_1_"  style="overflow:visible;"/>
		</clipPath>
		<polygon class="st0" points="64.1,245 492.6,400.9 439,459.1 67.8,324 		"/>
		<polygon class="st0" points="493,401.6 301.2,331.7 321.5,309.6 491.6,371.6 		"/>
		<polygon class="st0" points="144.5,-1.1 572.9,154.8 569.2,75.8 198.1,-59.3 		"/>
		<polygon class="st0" points="573.6,154.6 381.8,84.8 383.2,114.8 553.3,176.7 		"/>
		<polygon class="st0" points="347.1,309 490.2,309.1 473.5,355 		"/>
		<polygon class="st0" points="368,251.5 511.1,251.6 494.4,297.5 351.3,297.4 		"/>
		<polygon class="st0" points="388.9,194 532.1,194.1 515.4,240 372.2,239.9 		"/>
		<polygon class="st0" points="409.9,136.5 536.3,182.5 393.1,182.4 		"/>
		
			<rect x="103.6" y="48.2" transform="matrix(0.9397 0.342 -0.342 0.9397 69.7747 -66.0529)" class="st0" width="237.2" height="233.3"/>
	</g>
	<g>
		<defs>
			<polyline id="SVGID_3_" points="600,0 600,400 0,400 0,0 			"/>
		</defs>
		<clipPath id="SVGID_4_">
			<use xlink:href="#SVGID_3_"  style="overflow:visible;"/>
		</clipPath>
		<polyline class="st1" points="600,0 600,400 0,400 0,0 		"/>
	</g>
	<g>
		<defs>
			<polyline id="SVGID_5_" points="600,0 600,400 0,400 0,0 			"/>
		</defs>
		<clipPath id="SVGID_6_">
			<use xlink:href="#SVGID_5_"  style="overflow:visible;"/>
		</clipPath>
		<polyline class="st2" points="600,0 600,400 0,400 0,0 		"/>
	</g>
	<g>
		<defs>
			<polyline id="SVGID_7_" points="600,0 600,400 0,400 0,0 			"/>
		</defs>
		<clipPath id="SVGID_8_">
			<use xlink:href="#SVGID_7_"  style="overflow:visible;"/>
		</clipPath>
		<polyline class="st3" points="600,0 600,400 0,400 0,0 		"/>
	</g>
</g>
</svg>
