<svg id="レイヤー_1" data-name="レイヤー 1" xmlns="http://www.w3.org/2000/svg" xmlns:xlink="http://www.w3.org/1999/xlink" viewBox="0 0 600 400"><defs><style>.cls-1,.cls-4,.cls-5{fill:none;}.cls-2{clip-path:url(#clip-path);}.cls-3{fill:#a1c3e6;}.cls-4,.cls-5{stroke:#a1c3e6;stroke-miterlimit:10;stroke-width:20px;}.cls-4{stroke-dasharray:19.74 19.74;}.cls-5{stroke-dasharray:19.82 19.82;}</style><clipPath id="clip-path"><rect class="cls-1" width="600" height="400"/></clipPath></defs><title>fake_user</title><g class="cls-2"><circle class="cls-3" cx="94.36" cy="105.83" r="69.13"/><path class="cls-3" d="M91.87,188.67h5A95.29,95.29,0,0,1,192.14,284V449a0,0,0,0,1,0,0H-3.42a0,0,0,0,1,0,0V284A95.29,95.29,0,0,1,91.87,188.67Z"/><circle class="cls-4" cx="511.64" cy="92.13" r="69.13"/><path class="cls-5" d="M413.86,419.18V284a95.29,95.29,0,0,1,95.29-95.29h5A95.29,95.29,0,0,1,609.42,284V429.09"/><polygon class="cls-3" points="378.7 205.75 219.83 205.75 321.6 105.21 321.6 163.55 378.7 163.55 378.7 205.75"/><polygon class="cls-3" points="219.83 217.68 378.7 217.68 276.92 318.21 276.92 259.88 219.83 259.88 219.83 217.68"/></g></svg>