<?xml version="1.0" encoding="utf-8"?>
<!-- Generator: Adobe Illustrator 24.0.1, SVG Export Plug-In . SVG Version: 6.00 Build 0)  -->
<svg version="1.1" id="レイヤー_1" xmlns="http://www.w3.org/2000/svg" xmlns:xlink="http://www.w3.org/1999/xlink" x="0px"
	 y="0px" viewBox="0 0 600 400" style="enable-background:new 0 0 600 400;" xml:space="preserve">
<style type="text/css">
	.st0{fill:#F9AB00;}
	.st1{fill:#E37400;}
</style>
<title>catpow</title>
<g>
	<g>
		<g>
			<g transform="matrix(.198617 0 0 .198616 29.128442 -18.08775)">
				<path class="st0" d="M1758.9,390.3v1318.8c0,147.6,101.9,229.8,209.8,229.8c99.9,0,209.8-69.9,209.8-229.8V400.2
					c0-135.3-99.9-219.8-209.8-219.8S1758.9,273.7,1758.9,390.3z"/>
				<g>
					<path class="st1" d="M1209.4,1059.6V1709c0,147.6,101.9,229.8,209.8,229.8c99.9,0,209.8-69.9,209.8-229.8v-639.4
						c0-135.3-99.9-219.8-209.8-219.8S1209.4,943.1,1209.4,1059.6z"/>
					<circle class="st1" cx="869.7" cy="1729" r="209.8"/>
				</g>
			</g>
		</g>
	</g>
</g>
</svg>
