<svg id="レイヤー_1" data-name="レイヤー 1" xmlns="http://www.w3.org/2000/svg" xmlns:xlink="http://www.w3.org/1999/xlink" viewBox="0 0 600 400"><defs><style>.cls-1{fill:none;}.cls-2{clip-path:url(#clip-path);}.cls-3{fill:#e6b9a1;}</style><clipPath id="clip-path"><rect class="cls-1" width="600" height="400"/></clipPath></defs><title>cron</title><g class="cls-2"><path class="cls-3" d="M218,400.79c-93.75-45.41-133.08-158.64-87.66-252.4S289,15.31,382.73,60.73s133.08,158.64,87.66,252.4S311.75,446.21,218,400.79ZM363.42,100.58C291.64,65.81,205,95.92,170.18,167.7s-4.66,158.47,67.12,193.24,158.47,4.67,193.24-67.12S435.21,135.35,363.42,100.58Z"/><path class="cls-3" d="M351.29,230.53a14.76,14.76,0,0,1,1.59-27.23l37.05-12.87a14.76,14.76,0,0,1,9.68,27.89l-37,12.87A14.69,14.69,0,0,1,351.29,230.53Z"/><circle class="cls-3" cx="300.36" cy="230.76" r="31.5"/><path class="cls-3" d="M432.2,79.77,337.11,33.71l36.41-50.6a22.07,22.07,0,0,1,27.55-7L437.74-6.11a22.09,22.09,0,0,1,11.61,26Z"/><path class="cls-3" d="M314.4,202.34a14.76,14.76,0,0,1-6.85-19.72l32.85-67.81A14.76,14.76,0,1,1,367,127.68l-32.85,67.81A14.75,14.75,0,0,1,314.4,202.34Z"/></g></svg>