<?xml version="1.0" encoding="utf-8"?>
<!-- Generator: Adobe Illustrator 24.3.0, SVG Export Plug-In . SVG Version: 6.00 Build 0)  -->
<svg version="1.1" id="レイヤー_1" xmlns="http://www.w3.org/2000/svg" xmlns:xlink="http://www.w3.org/1999/xlink" x="0px"
	 y="0px" viewBox="0 0 600 400" style="enable-background:new 0 0 600 400;" xml:space="preserve">
<style type="text/css">
	.st0{clip-path:url(#SVGID_2_);fill:#60B230;}
</style>
<g>
	<g>
		<defs>
			<rect id="SVGID_1_" width="600" height="400"/>
		</defs>
		<clipPath id="SVGID_2_">
			<use xlink:href="#SVGID_1_"  style="overflow:visible;"/>
		</clipPath>
		<path class="st0" d="M283.9,137.5c0,0,0-72,72-72h215.9c0,0,0,72-72,72H283.9"/>
		<path class="st0" d="M283.9,229.5c0,0,0-72,72-72h107.9c0,0,0,72-72,72H283.9"/>
		<path class="st0" d="M283.9,321.4c0,0,0-72,72-72h36c0,0,0,72-72,72H283.9"/>
		<polyline class="st0" points="259.7,265.3 259.7,322.7 28.3,322.7 177.4,119.3 49.4,119.3 49.4,61.9 290.8,61.9 142.4,265.3 
			259.7,265.3 		"/>
	</g>
</g>
</svg>
