<?xml version="1.0" encoding="utf-8"?>
<!-- Generator: Adobe Illustrator 22.1.0, SVG Export Plug-In . SVG Version: 6.00 Build 0)  -->
<svg version="1.1" id="レイヤー_1" xmlns="http://www.w3.org/2000/svg" xmlns:xlink="http://www.w3.org/1999/xlink" x="0px"
	 y="0px" viewBox="0 0 600 400" style="enable-background:new 0 0 600 400;" xml:space="preserve">
<style type="text/css">
	.st0{clip-path:url(#SVGID_2_);}
	.st1{fill:#A1C8E6;}
</style>
<title>post_sort</title>
<g>
	<defs>
		<rect id="SVGID_1_" width="600" height="400"/>
	</defs>
	<clipPath id="SVGID_2_">
		<use xlink:href="#SVGID_1_"  style="overflow:visible;"/>
	</clipPath>
	<g class="st0">
		<path class="st1" d="M574.8,19.6L130.2-65.3C99.5-71.2,69.8-51,63.9-20.3C58,10.5,78.2,40.1,108.9,46l444.6,85
			c30.8,5.9,60.5-14.3,66.3-45.1S605.6,25.5,574.8,19.6z M115.9,31.2C93.8,27,79.3,5.6,83.5-16.5c4.2-22.1,25.6-36.7,47.7-32.5
			c0,0,0,0,0,0c22.1,4.2,36.7,25.6,32.4,47.8c0,0,0,0,0,0C159.4,20.9,138.1,35.4,115.9,31.2z"/>
		<path class="st1" d="M543,186.2L98.4,101.3c-30.7-6.2-60.6,13.6-66.8,44.3s13.6,60.6,44.3,66.8c0.4,0.1,0.8,0.2,1.2,0.2
			l444.6,84.9c30.8,5.9,60.5-14.3,66.3-45C593.9,221.8,573.8,192.1,543,186.2z M84.1,197.9c-22.1-4.2-36.7-25.6-32.4-47.8
			s25.6-36.7,47.8-32.4s36.7,25.6,32.4,47.8c0,0,0,0,0,0C127.6,187.6,106.2,202.1,84.1,197.9z"/>
		<path class="st1" d="M511.1,353.2L66.5,268.3c-30.7-6.2-60.6,13.6-66.8,44.3s13.6,60.6,44.3,66.8c0.4,0.1,0.8,0.2,1.2,0.2
			l444.6,84.9c30.8,5.9,60.4-14.3,66.3-45.1S541.8,359.1,511.1,353.2L511.1,353.2z M52.2,364.8c-22.1-4.3-36.6-25.7-32.4-47.8
			c4.3-22.1,25.7-36.6,47.8-32.4c22.1,4.2,36.6,25.6,32.4,47.7C95.8,354.5,74.4,369.1,52.2,364.8C52.2,364.8,52.2,364.8,52.2,364.8z
			"/>
		<polygon class="st1" points="290.6,301.2 290.6,301.2 249.6,259.7 343.9,277.8 		"/>
		<polygon class="st1" points="329.1,99.8 329.1,99.8 370,141.2 275.7,123.2 		"/>
	</g>
</g>
</svg>
