<?xml version="1.0" encoding="utf-8"?>
<!-- Generator: Adobe Illustrator 24.2.3, SVG Export Plug-In . SVG Version: 6.00 Build 0)  -->
<svg version="1.1" id="レイヤー_1" xmlns="http://www.w3.org/2000/svg" xmlns:xlink="http://www.w3.org/1999/xlink" x="0px"
	 y="0px" viewBox="0 0 100 100" style="enable-background:new 0 0 100 100;" xml:space="preserve" color="currentcolor" fill='currentcolor'>
<g id="XMLID_1_">
	<g>
		<path d="M35.4,7C29,7,24.1,25.9,25.7,32.8c1.6,6.9,4.8,10.3,11.3,10.3s11.3-8.3,11.3-13.8C48.2,20.8,45,7,35.4,7z"/>
		<path d="M10,25.6c-6.4,0.5-9.9,18.5-7.8,24.8s5.5,9.3,11.9,8.8s10.6-8.6,10.3-13.7C23.8,37.5,19.6,24.9,10,25.6z"/>
		<path d="M67.8,57.6c1.5,6.2,16.6,11.3,16.6,16.1c0,4.8-6.9,19.3-34.6,19.3S15.3,78.5,15.3,73.7c0-4.8,14.3-10.2,16.6-16.1
			C37.1,44.3,64.7,44.8,67.8,57.6z"/>
		<path d="M64.3,7c6.4,0,11.3,18.9,9.6,25.8s-4.8,10.3-11.3,10.3s-11.3-8.3-11.3-13.8C51.5,20.8,54.7,7,64.3,7z"/>
		<path d="M89.7,25.6c6.4,0.5,9.9,18.5,7.8,24.8s-5.5,9.3-11.9,8.8s-10.6-8.6-10.3-13.7C75.9,37.5,80.1,24.9,89.7,25.6z"/>
	</g>
</g>
</svg>
