<?xml version="1.0" encoding="UTF-8"?>
<svg id="_レイヤー_1" xmlns="http://www.w3.org/2000/svg" version="1.1" viewBox="0 0 640 100">
  <!-- Generator: Adobe Illustrator 30.4.0, SVG Export Plug-In . SVG Version: 2.1.4 Build 226)  -->
  <defs>
    <style>
      .st0 {
        fill: #f90;
      }

      .st1 {
        fill: #332924;
      }
    </style>
  </defs>
  <g>
    <path class="st0" d="M72.3,4.7h-23.3c-.7,0-1.5,0-2.2,0v89.8h20.1V21.2c1.9.4,3.7.9,5.4,1.6,12.1,4.5,20.5,15.1,20.5,27.3s-8.4,22.8-20.5,27.3v16.9c20.2-2,36-19,36-39.8V4.7h-36Z"/>
    <path class="st0" d="M9.1,44.7v49.9h32.4v-19c-9.7-5.2-16.2-14.6-16.2-25.4s6.5-20.2,16.2-25.4V5.4C23,9,9.1,25.2,9.1,44.7Z"/>
  </g>
  <g>
    <path class="st1" d="M185.8,37c-5-6.1-11.1-9.1-18.4-9.1s-6.2.6-8.9,1.8c-2.7,1.2-5.1,2.8-7.1,4.8-2,2-3.5,4.4-4.7,7.2-1.1,2.8-1.7,5.8-1.7,9s.6,6.3,1.7,9.1c1.1,2.8,2.7,5.2,4.7,7.2,2,2,4.4,3.7,7.1,4.8,2.7,1.2,5.6,1.8,8.8,1.8,6.9,0,13-2.9,18.5-8.8v25.4l-2.2.8c-3.3,1.2-6.4,2-9.2,2.6-2.8.5-5.7.8-8.4.8-5.7,0-11.2-1.1-16.4-3.2-5.2-2.2-9.8-5.2-13.8-9.1-4-3.9-7.2-8.5-9.6-13.9-2.4-5.4-3.6-11.2-3.6-17.6s1.2-12.2,3.6-17.5c2.4-5.3,5.6-9.9,9.5-13.7,4-3.8,8.6-6.8,13.9-9,5.3-2.2,10.8-3.2,16.6-3.2s6.5.3,9.7,1c3.2.7,6.5,1.8,10,3.2v25.6Z"/>
    <path class="st1" d="M252,77.7h-30.7l-4.9,14.4h-22.9l31.5-82.6h23.5l31.5,82.6h-22.9l-4.9-14.4ZM246.3,61.3l-9.6-27.5-9.6,27.5h19.3Z"/>
    <path class="st1" d="M317,27.6v64.4h-21.5V27.6h-17.6V9.4h56.8v18.2h-17.6Z"/>
    <path class="st1" d="M365.6,92h-21.5V9.4h34.2c9.3,0,16.4,2.4,21.3,7.2,4.9,4.8,7.4,11.6,7.4,20.4s-2.5,15.6-7.4,20.4c-4.9,4.8-12,7.2-21.3,7.2h-12.7v27.4ZM365.6,47.3h7.1c7.9,0,11.8-3.4,11.8-10.3s-3.9-10.3-11.8-10.3h-7.1v20.6Z"/>
    <path class="st1" d="M414.8,50.7c0-6.1,1.1-11.9,3.4-17.2,2.3-5.3,5.4-9.9,9.4-13.9,4-3.9,8.8-7,14.4-9.3,5.6-2.2,11.7-3.3,18.5-3.3s12.8,1.1,18.4,3.3c5.6,2.2,10.5,5.3,14.5,9.3,4.1,3.9,7.2,8.6,9.5,13.9,2.3,5.3,3.4,11,3.4,17.2s-1.1,11.9-3.4,17.2c-2.3,5.3-5.4,9.9-9.5,13.9-4.1,3.9-8.9,7-14.5,9.3-5.6,2.2-11.8,3.3-18.4,3.3s-12.9-1.1-18.5-3.3c-5.6-2.2-10.4-5.3-14.4-9.3-4-3.9-7.2-8.6-9.4-13.9-2.3-5.3-3.4-11-3.4-17.2ZM437.2,50.7c0,3.3.6,6.3,1.9,9.1,1.2,2.8,2.9,5.2,5,7.2,2.1,2,4.6,3.6,7.4,4.8,2.8,1.1,5.8,1.7,8.9,1.7s6.1-.6,8.9-1.7c2.8-1.1,5.3-2.7,7.5-4.8,2.2-2,3.9-4.5,5.1-7.2,1.2-2.8,1.9-5.8,1.9-9.1s-.6-6.3-1.9-9.1c-1.2-2.8-2.9-5.2-5.1-7.2-2.2-2-4.6-3.6-7.5-4.8-2.8-1.1-5.8-1.7-8.9-1.7s-6.1.6-8.9,1.7c-2.8,1.1-5.3,2.7-7.4,4.8-2.1,2-3.8,4.5-5,7.2-1.2,2.8-1.9,5.8-1.9,9.1Z"/>
    <path class="st1" d="M532.4,9.4l14.2,53.4,17.5-53.4h17.1l17.5,53.4,14.2-53.4h22.5l-24.7,82.6h-21.9l-16.2-47.9-16.2,47.9h-21.9l-24.7-82.6h22.5Z"/>
  </g>
</svg>