<?xml version="1.0" encoding="utf-8"?>
<!-- Generator: Adobe Illustrator 24.0.1, SVG Export Plug-In . SVG Version: 6.00 Build 0)  -->
<svg version="1.1" xmlns="http://www.w3.org/2000/svg" xmlns:xlink="http://www.w3.org/1999/xlink" x="0px" y="0px"
	 viewBox="0 0 600 400" style="enable-background:new 0 0 600 400;" xml:space="preserve">
<style type="text/css">
	.st0{clip-path:url(#SVGID_2_);}
	.st1{fill:#EE951E;}
	.st2{fill:#36414A;}
</style>
<g id="レイヤー_1">
	<title>catpow</title>
	<g>
		<g>
			<defs>
				<rect id="SVGID_1_" width="600" height="400"/>
			</defs>
			<clipPath id="SVGID_2_">
				<use xlink:href="#SVGID_1_"  style="overflow:visible;"/>
			</clipPath>
			<g id="_x32_b5vRe_1_" class="st0">
				<g>
					<path class="st1" d="M230.6,314c-5.4-1-10.8-2.5-16.3-3c-25.8-2.6-49.9-11-72.5-23.1c-14.1-7.5-26.7-17.8-40-26.9
						c-2-1.4-4.1-2.7-5.8-3.9c2.9-6.3,5.9-3.7,8.5-2.5c7.8,3.6,15.2,8.1,23.3,11.1c16.5,6.1,32.9,12.5,49.9,17
						c25.7,6.8,52.2,9,78.8,8.2c30.5-0.9,60.1-6.2,88.7-16.8c6.3-2.3,12.6-4.8,18.9-7.2c1.4-0.5,3-1.2,4.3-1
						c1.8,0.3,4.4,1.2,4.9,2.5c0.5,1.3-0.5,4.3-1.8,5.1c-9.9,6.4-19.4,13.8-30.2,18.3c-16.7,6.9-34.2,12-51.6,17.2
						c-7.8,2.3-16,3-24,4.5C254,313.7,242.3,313.9,230.6,314z"/>
					<path class="st2" d="M136.5,156.7c13.9-20.9,30-21,46.2,0.2c3.5-6.9,7.9-12.9,15.7-14.6c7.8-1.7,15.6-2,22.9,2.5
						c6.6,4.1,10.2,10.2,10.4,17.7c0.6,24.3,0.8,48.6,1.2,72.9c0.1,3.6-1.4,5.2-5,5.1c-4.1-0.1-8.3-0.2-12.4,0.2
						c-5.3,0.5-7-2.1-7.1-7c-0.1-16.6-0.3-33.2-0.6-49.7c-0.1-3.9-0.1-7.9-0.7-11.8c-0.7-4.7-3.3-7.9-8.6-8
						c-5.2-0.1-9.6,1.4-11.2,6.5c-1.4,4.6-2.3,9.5-2.4,14.3c-0.1,16.6,0.2,33.2,0.7,49.7c0.1,5.1-1.6,6.8-6.5,6.5
						c-3.9-0.3-7.9-0.2-11.9,0.2c-4.3,0.3-5.5-1.6-5.6-5.6c-0.1-17.7-0.3-35.4-0.7-53.1c-0.1-3.9-1.1-7.8-2.1-11.5
						c-1.5-5.1-5.4-6.9-10.4-6.4c-5,0.5-8.5,2.9-9.2,8.1c-0.6,5.2-1.2,10.5-1.2,15.7c0,15.1,0.4,30.1,0.5,45.2
						c0.1,7.1-0.7,7.9-7.5,8c-3.6,0.1-7.2-0.1-10.7,0.2c-5,0.4-6.6-1.9-6.7-6.6c-0.3-28.5-0.7-56.9-1.2-85.3
						c-0.1-4.6,1.6-6.8,6.3-6.4c0.2,0,0.4,0,0.6,0c4.9,0.1,10.8-1.5,14.3,0.7C136.1,146,135.6,152.5,136.5,156.7z"/>
					<path class="st2" d="M303.6,228.8c-8.5,9.1-18.5,12.8-30.9,12.7c-17.9-0.2-26.7-17.1-25-30.9c2-15.6,11.6-25.2,27.1-28.3
						c7.9-1.6,15.8-3.2,24.1-4.9c0-2.4-0.1-4.9-0.1-7.5c0-4.5-1.8-9.1-5.9-9.9c-4.4-0.9-9.5,0.1-13.9,1.6c-2.4,0.8-4.6,4.2-5.4,6.8
						c-1.4,4.3-3.6,4.9-7.5,4.1c-3.5-0.7-7.1-0.5-10.7-0.6c-4.5-0.2-5.9-2.4-4.8-6.7c3-11.8,10.7-19.6,22-22.7
						c11.3-3.2,22.9-3.6,34.4,0.3c12.3,4.2,16.9,13.5,17.4,25.5c0.4,11.7,0.8,23.4,0.5,35c-0.2,7,1.7,12.9,6.1,18.1
						c2.5,3,2.7,5.3-0.8,7.9c-3.7,2.8-7.1,6.1-10.4,9.3c-2.9,2.8-5.5,2.1-7.9-0.3C309.2,235.5,306.8,232.4,303.6,228.8z
						 M299.3,192.7c-4.4,0.6-8.1,0.9-11.7,1.5c-7.9,1.5-13,7-13.8,14.7c-0.6,5.6,2.9,12.1,7.6,13.8c4.7,1.7,10.5-0.8,14-5.7
						C300.6,209.9,299.1,201.8,299.3,192.7z"/>
					<path class="st2" d="M71.5,231.7c-9.3,11.8-21.8,14-35.2,12.3c-8.4-1.1-14.9-6-17.6-14c-6.7-19.9,0-39.1,22.7-44.6
						c8.6-2.1,17.3-3.4,26.6-5.3c0-2.2,0.2-4.7-0.1-7.3c-0.8-6.2-5.2-10.6-10.8-11c-7.8-0.6-13.1,2.4-14.8,9c-1,4.1-3,5.1-6.8,4.6
						c-3.9-0.5-7.9-0.5-11.8-0.7c-3.8-0.3-5.5-1.6-4.6-6.1c2.6-13.6,11.6-21.2,24-23.8c9-1.9,18.9-1.9,28-0.5
						c14,2.2,21.2,12.2,21.8,27.4c0.4,11.3,0.5,22.6,0.5,33.9c0,6.8,1.3,13.1,5.7,18.4c2.6,3.1,2.8,5.7-0.9,8.4
						c-3.7,2.8-6.7,6.7-10.6,9.2c-1.7,1.1-5.6,0.9-7.2-0.4C77.1,239.1,74.8,235.5,71.5,231.7z M68,196c-3.9,0.4-7.6,0.6-11.2,1.1
						c-11.9,1.8-15,10.1-14.2,18.1c0.4,5,1.9,9.3,7.4,10.8c5.1,1.4,9.2-0.5,12.4-4.5C68.3,214.2,69.2,205.6,68,196z"/>
					<path class="st2" d="M537.7,151.3c3.4-3.7,6.5-9.2,11.2-11.8c13.5-7.4,35.5-3.4,36.9,17.4c1.6,24.4,1.6,48.9,2.4,73.3
						c0.1,3.7-1.5,5.5-5.4,5.4c-4.3-0.1-8.7-0.1-13,0.2c-4.8,0.3-6.3-2-6.3-6.4c-0.1-17.9-0.4-35.8-0.7-53.7c-0.1-3-0.2-6-0.9-8.9
						c-1.3-5.1-4.4-8-10-7.8c-5.1,0.2-9.7,3.5-10.8,8.9c-1.1,5.7-1.7,11.6-1.7,17.4c-0.1,14.3,0.3,28.6,0.5,42.9
						c0.1,7.3-0.5,8-7.5,8c-19.5,0-17,3.2-17.4-16.7c-0.4-24.7-0.7-49.3-1-74c-0.1-6.7,0.5-7.4,7.4-7.4c4.8,0,10.8-1.3,14.1,1.1
						C537.9,141.1,537.1,147.7,537.7,151.3z"/>
					<path class="st2" d="M421.3,189.4c-0.4-16.2,2.7-30.2,13.5-41.2c3.5-3.6,8.1-7.4,12.8-8.5c22-5.4,38.6-0.8,48.5,21.2
						c7.8,17.4,8.1,35.9,0.6,53.7c-5.3,12.5-14.5,21.5-28.5,23.6c-16.3,2.5-29.5-2.8-38.4-17.3C423.5,210.8,421.1,199.8,421.3,189.4
						z M446.6,187.2c0.3,0.1,0.6,0.1,0.9,0.2c0.4,5.4,0.6,10.9,1.1,16.3c0.9,8.8,5.6,15.1,11.2,15.7c7.3,0.8,12.3-3.3,13.8-11.6
						c2.7-13.9,1.7-27.7-0.8-41.4c-1.1-5.9-5.2-9.5-10.5-10.1c-5.8-0.6-10.2,1.6-11.9,7.9C448.4,171.6,447.8,179.5,446.6,187.2z"/>
					<path class="st2" d="M379.3,160c-9.8,0.1-18.5,0.1-27.1,0.4c-4.7,0.2-6.2-1.5-6.3-6.2c-0.1-13.8-0.3-13.8,13.4-14
						c15.1-0.2,30.1-0.3,45.2-0.7c4.4-0.1,5.4,1.5,6.1,5.7c1.6,10.1-3.8,17.1-8.9,24.5c-8,11.6-16,23.3-23.6,34.4
						c9.9,2.3,19.4,4.4,28.9,6.9c4.5,1.2,6.7,4.4,6.6,9.3c-0.1,2.8,0.1,5.6,0.1,8.5c0,5.8-2,6.4-8,4.8c-8.4-2.4-17-4.4-25.6-5.4
						c-10.3-1.2-20,1.7-29.4,6.1c-5.5,2.6-6.1,1.4-7.3-4.5c-2.9-15.1,5.5-25.6,13.3-36.7C364.2,182.6,371.3,171.7,379.3,160z"/>
					<path class="st1" d="M343.2,255.6c1.5-1.6,2.7-3.6,4.4-4.6c12.9-7.2,26.7-9.6,41.3-7.9c9.7,1.1,12.5,4.3,11.4,13.9
						c-1.6,14.3-6.6,27.2-16.1,38.2c-1,1.1-2.1,2.2-3.3,3c-1,0.6-2.3,0.6-3.5,0.8c-0.1-1.2-0.5-2.5-0.2-3.6
						c2.1-6.6,4.4-13.1,6.5-19.7c0.7-2.3,1.2-4.7,1.5-7.1c1.4-11.2-0.2-13.6-11.6-13.7c-8.4-0.1-16.8,1.4-25.2,2.1
						c-1.4,0.1-2.8,0.1-4.2,0.1C343.8,256.6,343.5,256.1,343.2,255.6z"/>
				</g>
			</g>
		</g>
	</g>
</g>
<g id="編集モード">
</g>
</svg>
