<?xml version="1.0" encoding="utf-8"?>
<!-- Generator: Adobe Illustrator 27.3.1, SVG Export Plug-In . SVG Version: 6.00 Build 0)  -->
<svg version="1.1" id="レイヤー_1" xmlns="http://www.w3.org/2000/svg" xmlns:xlink="http://www.w3.org/1999/xlink" x="0px"
	 y="0px" viewBox="0 0 600 400" style="enable-background:new 0 0 600 400;" xml:space="preserve">
<style type="text/css">
	.st0{clip-path:url(#SVGID_00000117634327484506058420000006850919936530955705_);}
	.st1{fill:#E6B9A1;}
</style>
<g>
	<defs>
		<rect id="SVGID_1_" width="600" height="400"/>
	</defs>
	<clipPath id="SVGID_00000096031754159592517260000015488955171343771322_">
		<use xlink:href="#SVGID_1_"  style="overflow:visible;"/>
	</clipPath>
	<g style="clip-path:url(#SVGID_00000096031754159592517260000015488955171343771322_);">
		<path class="st1" d="M469.2,19.9L527,169.8L388.9,481.1L77.5,343L261.6-72.1L469.2,19.9z M276.1-34.7L264.6-8.7l155.7,69.1
			l11.5-25.9L276.1-34.7z M423.2,123.7l77.8,34.5L457.7,45.9L423.2,123.7z M253.1,17.2l-11.5,25.9l155.7,69.1l11.5-25.9L253.1,17.2z
			 M478,210.1l11.5-25.9L230,69.1l-11.5,25.9L478,210.1z M207,121L195.5,147l103.8,46l11.5-25.9L207,121z M432,313.9l34.5-77.8
			l-129.7-57.5l-34.5,77.8L432,313.9z M184,172.9l-11.5,25.9l103.8,46l11.5-25.9L184,172.9z M409,365.8l11.5-25.9L161,224.8
			l-11.5,25.9L409,365.8z M308.1,383.2l11.5-25.9L138,276.7l-11.5,25.9L308.1,383.2z"/>
	</g>
</g>
</svg>
