<?xml version="1.0" encoding="utf-8"?>
<!-- Generator: Adobe Illustrator 22.1.0, SVG Export Plug-In . SVG Version: 6.00 Build 0)  -->
<svg version="1.1" id="レイヤー_1" xmlns="http://www.w3.org/2000/svg" xmlns:xlink="http://www.w3.org/1999/xlink" x="0px"
	 y="0px" viewBox="0 0 600 400" style="enable-background:new 0 0 600 400;" xml:space="preserve">
<style type="text/css">
	.st0{clip-path:url(#SVGID_2_);fill:#2E5095;}
	.st1{clip-path:url(#SVGID_2_);fill:#FFFFFF;}
</style>
<title>catpow</title>
<g>
	<defs>
		<rect id="SVGID_1_" width="600" height="400"/>
	</defs>
	<clipPath id="SVGID_2_">
		<use xlink:href="#SVGID_1_"  style="overflow:visible;"/>
	</clipPath>
	<path class="st0" d="M426.2,356.5h-242c-20.3,0-36.8-16.5-36.8-36.8v-242c0-20.3,16.5-36.8,36.8-36.8h242
		c20.3,0,36.8,16.5,36.8,36.8v242C463,340,446.5,356.5,426.2,356.5z"/>
	<path class="st1" d="M422.6,235.2l6.2-48.3H381V156c0-14,3.9-23.5,24-23.5l25.6,0V89.3c-4.4-0.6-19.6-1.9-37.3-1.9
		c-36.9,0-62.1,22.5-62.1,63.9v35.6h-41.7v48.3h41.7v124H381v-124H422.6z"/>
</g>
</svg>
