<?xml version="1.0" encoding="utf-8"?>
<!-- Generator: Adobe Illustrator 24.3.0, SVG Export Plug-In . SVG Version: 6.00 Build 0)  -->
<svg version="1.1" id="レイヤー_1" xmlns="http://www.w3.org/2000/svg" xmlns:xlink="http://www.w3.org/1999/xlink" x="0px"
	 y="0px" viewBox="0 0 20 20" style="enable-background:new 0 0 20 20;" xml:space="preserve">
<style type="text/css">
	.st0{fill:none;}
	.st1{fill:#FFFFFF;}
</style>
<rect class="st0" width="20" height="20"/>
<g>
	<path class="st1" d="M13,11V4c0-0.5-0.4-1-1-1h-1.7L9,1H5L3.7,3H2C1.5,3,1,3.5,1,4v7c0,0.6,0.5,1,1,1h10C12.6,12,13,11.6,13,11z
		 M7,4.5c1.4,0,2.5,1.1,2.5,2.5S8.4,9.5,7,9.5S4.5,8.4,4.5,7S5.6,4.5,7,4.5z M14,6h5v10.5c0,1.4-1.1,2.5-2.5,2.5S14,17.9,14,16.5
		s1.1-2.5,2.5-2.5c0.2,0,0.3,0,0.5,0.1V9h-3V6z M10,14.1V13h2v3.5c0,1.4-1.1,2.5-2.5,2.5S7,17.9,7,16.5S8.1,14,9.5,14
		C9.7,14,9.8,14,10,14.1z"/>
</g>
</svg>
