<?xml version="1.0" encoding="utf-8"?>
<!-- Generator: Adobe Illustrator 24.3.0, SVG Export Plug-In . SVG Version: 6.00 Build 0)  -->
<svg version="1.1" id="レイヤー_1" xmlns="http://www.w3.org/2000/svg" xmlns:xlink="http://www.w3.org/1999/xlink" x="0px"
	 y="0px" viewBox="0 0 20 20" style="enable-background:new 0 0 20 20;" xml:space="preserve">
<style type="text/css">
	.st0{fill:none;}
	.st1{fill:#FFFFFF;}
</style>
<rect class="st0" width="20" height="20"/>
<g>
	<path class="st1" d="M17.7,2.8c1.7,1.7,1.7,4.4,0,6.1l-1.5,1.5c-1.1,1.1-2.7,1.5-4.1,1.1l2.6-2.6l0.8-0.8l0.8-0.8
		c0.8-0.8,0.8-2.2,0-3c-0.8-0.8-2.2-0.8-3,0l-0.8,0.8L9,8.4c-0.4-1.4,0-3,1.1-4.1l1.5-1.5C13.3,1.1,16.1,1.1,17.7,2.8z M8.6,13.4
		l5.3-5.3c0.4-0.4,0.4-1.1,0-1.5c-0.4-0.4-1.1-0.4-1.5,0l-5.3,5.3c-0.4,0.4-0.4,1.1,0,1.5C7.5,13.9,8.2,13.8,8.6,13.4z M7.8,15.7
		l4.1-4.2c0.4,1.4,0,3-1.1,4.1l-1.5,1.5c-1.7,1.7-4.4,1.7-6.1,0c-1.7-1.7-1.7-4.4,0-6.1l1.5-1.5c1.1-1.1,2.7-1.5,4.1-1.1l-4.1,4.1
		c-0.8,0.8-0.8,2.2,0,3.1C5.6,16.6,7,16.6,7.8,15.7z"/>
</g>
</svg>
