<?xml version="1.0" encoding="utf-8"?>
<!-- Generator: Adobe Illustrator 24.3.0, SVG Export Plug-In . SVG Version: 6.00 Build 0)  -->
<svg version="1.1" id="レイヤー_1" xmlns="http://www.w3.org/2000/svg" xmlns:xlink="http://www.w3.org/1999/xlink" x="0px"
	 y="0px" viewBox="0 0 20 20" style="enable-background:new 0 0 20 20;" xml:space="preserve">
<style type="text/css">
	.st0{fill:none;}
	.st1{fill:#FFFFFF;}
</style>
<rect class="st0" width="20" height="20"/>
<g>
	<path class="st1" d="M9,0C4,0,0,4,0,9s4,9,9,9s9-4,9-9S14,0,9,0z M1.1,9.7h2.5c0,0.9,0.2,1.8,0.4,2.7H1.8
		C1.4,11.5,1.2,10.6,1.1,9.7z M9.7,4.3V1.2c1,0.4,1.8,1.1,2.2,2c0.2,0.3,0.4,0.7,0.5,1.1L9.7,4.3z M12.9,5.6
		c0.2,0.9,0.4,1.8,0.4,2.7H9.7V5.6C9.7,5.6,12.9,5.6,12.9,5.6z M8.3,1.2v3.1H5.6c0.2-0.4,0.3-0.7,0.5-1.1C6.6,2.3,7.4,1.6,8.3,1.2z
		 M8.3,5.6v2.7H4.7c0-0.9,0.2-1.8,0.4-2.7H8.3z M3.6,8.3H1.1c0.1-0.9,0.3-1.8,0.7-2.7H4C3.8,6.5,3.7,7.4,3.6,8.3z M4.7,9.7h3.6v2.7
		H5.1C4.9,11.5,4.7,10.6,4.7,9.7z M8.3,13.7v3.1c-1-0.4-1.8-1.1-2.2-2c-0.2-0.3-0.4-0.7-0.5-1.1L8.3,13.7z M9.7,16.8v-3h2.8
		c-0.2,0.4-0.3,0.7-0.5,1.1C11.4,15.7,10.6,16.4,9.7,16.8L9.7,16.8z M9.7,12.3V9.6h3.6c0,0.9-0.2,1.8-0.4,2.7H9.7z M14.4,9.6h2.5
		c-0.1,0.9-0.3,1.9-0.7,2.7H14C14.2,11.5,14.3,10.6,14.4,9.6L14.4,9.6z M14.4,8.3c0-0.9-0.2-1.8-0.4-2.7h2.2
		c0.4,0.8,0.6,1.8,0.7,2.7C16.9,8.3,14.4,8.3,14.4,8.3z M15.4,4.3h-1.8c-0.3-0.9-0.8-1.8-1.4-2.5C13.5,2.3,14.5,3.2,15.4,4.3
		L15.4,4.3z M5.8,1.8C5.2,2.5,4.7,3.4,4.4,4.3H2.7C3.5,3.2,4.5,2.3,5.8,1.8z M2.6,13.8h1.8c0.3,0.9,0.8,1.8,1.4,2.5
		C4.5,15.7,3.5,14.8,2.6,13.8L2.6,13.8z M12.2,16.3c0.6-0.8,1.1-1.6,1.4-2.5h1.8C14.5,14.8,13.5,15.7,12.2,16.3L12.2,16.3z"/>
</g>
</svg>
