<?xml version="1.0" encoding="utf-8"?>
<!-- Generator: Adobe Illustrator 24.3.0, SVG Export Plug-In . SVG Version: 6.00 Build 0)  -->
<svg version="1.1" id="レイヤー_1" xmlns="http://www.w3.org/2000/svg" xmlns:xlink="http://www.w3.org/1999/xlink" x="0px"
	 y="0px" viewBox="0 0 20 20" style="enable-background:new 0 0 20 20;" xml:space="preserve">
<style type="text/css">
	.st0{fill:none;}
	.st1{fill:#FFFFFF;}
</style>
<rect class="st0" width="20" height="20"/>
<g>
	<path class="st1" d="M5,17h13v2H5c-1.7,0-3-1.3-3-3V4c0-1.7,1.3-3,3-3h13v14H5c-0.6,0-1,0.4-1,1C4,16.5,4.4,17,5,17z M7,13.5v-11
		C7,2.2,6.8,2,6.5,2S6,2.2,6,2.5v11C6,13.8,6.2,14,6.5,14S7,13.8,7,13.5z"/>
</g>
</svg>
