<?xml version="1.0" encoding="utf-8"?>
<!-- Generator: Adobe Illustrator 24.3.0, SVG Export Plug-In . SVG Version: 6.00 Build 0)  -->
<svg version="1.1" id="レイヤー_1" xmlns="http://www.w3.org/2000/svg" xmlns:xlink="http://www.w3.org/1999/xlink" x="0px"
	 y="0px" viewBox="0 0 20 20" style="enable-background:new 0 0 20 20;" xml:space="preserve">
<style type="text/css">
	.st0{fill:none;}
	.st1{fill:#FFFFFF;}
</style>
<rect class="st0" width="20" height="20"/>
<g>
	<path class="st1" d="M3,2h14c0.5,0,1,0.5,1,1v10c0,0.6-0.5,1-1,1h-5v2h2c0.6,0,1,0.5,1,1v1H5v-1c0-0.5,0.4-1,1-1h2v-2H3
		c-0.5,0-1-0.4-1-1V3C2,2.5,2.5,2,3,2z M16,11V4H4v7H16z M5,5h9L5,9V5z"/>
</g>
</svg>
