<?xml version="1.0" encoding="utf-8"?>
<!-- Generator: Adobe Illustrator 24.3.0, SVG Export Plug-In . SVG Version: 6.00 Build 0)  -->
<svg version="1.1" id="レイヤー_1" xmlns="http://www.w3.org/2000/svg" xmlns:xlink="http://www.w3.org/1999/xlink" x="0px"
	 y="0px" viewBox="0 0 20 20" style="enable-background:new 0 0 20 20;" xml:space="preserve">
<style type="text/css">
	.st0{fill:none;}
	.st1{fill:#FFFFFF;}
</style>
<rect class="st0" width="20" height="20"/>
<g>
	<path class="st1" d="M18,13h1c0.5,0,1,0.4,1,1v3c0,0.6-0.5,1-1,1h-4c-0.6,0-1-0.5-1-1v-3c0-0.6,0.4-1,1-1h1v-2h-5v2h1
		c0.6,0,1,0.4,1,1v3c0,0.6-0.4,1-1,1H8c-0.6,0-1-0.5-1-1v-3c0-0.6,0.4-1,1-1h1v-2H4v2h1c0.6,0,1,0.4,1,1v3c0,0.6-0.4,1-1,1H1
		c-0.6,0-1-0.5-1-1v-3c0-0.6,0.4-1,1-1h1v-2c0-1.1,0.9-2,2-2h5V7H8C7.4,7,7,6.6,7,6V3c0-0.6,0.4-1,1-1h4c0.6,0,1,0.5,1,1v3
		c0,0.6-0.4,1-1,1h-1v2h5c1.1,0,2,0.9,2,2V13z"/>
</g>
</svg>
