<?xml version="1.0" encoding="utf-8"?>
<!-- Generator: Adobe Illustrator 24.3.0, SVG Export Plug-In . SVG Version: 6.00 Build 0)  -->
<svg version="1.1" id="レイヤー_1" xmlns="http://www.w3.org/2000/svg" xmlns:xlink="http://www.w3.org/1999/xlink" x="0px"
	 y="0px" viewBox="0 0 20 20" style="enable-background:new 0 0 20 20;" xml:space="preserve">
<style type="text/css">
	.st0{fill:none;}
	.st1{fill:#FFFFFF;}
</style>
<rect class="st0" width="20" height="20"/>
<g>
	<path class="st1" d="M14.9,18H18C18,9.3,10.8,2.2,2,2.2v3C9.1,5.3,14.9,11,14.9,18z M9.5,18h3.1C12.6,12.3,7.8,7.6,2,7.6v3
		c2,0,3.9,0.8,5.3,2.2C8.7,14.2,9.5,16,9.5,18z M4.1,18c1.2,0,2.1-0.9,2.1-2.1c0-1.1-1-2.1-2.1-2.1c-1.2,0-2.1,0.9-2.1,2.1
		C2,17,2.9,18,4.1,18z"/>
</g>
</svg>
