<?xml version="1.0" encoding="utf-8"?>
<!-- Generator: Adobe Illustrator 24.3.0, SVG Export Plug-In . SVG Version: 6.00 Build 0)  -->
<svg version="1.1" id="レイヤー_1" xmlns="http://www.w3.org/2000/svg" xmlns:xlink="http://www.w3.org/1999/xlink" x="0px"
	 y="0px" viewBox="0 0 20 20" style="enable-background:new 0 0 20 20;" xml:space="preserve">
<style type="text/css">
	.st0{fill:none;}
	.st1{fill:#FFFFFF;}
</style>
<rect class="st0" width="20" height="20"/>
<g>
	<path class="st1" d="M12.7,2c0.1,0,0.3,0,0.4,0.1c0.6,0.2,0.8,0.8,0.7,1.4c-0.2,0.5-1,3-1,3.6c0,0.5,0.8,1,1.4,1h3c0.6,0,1,0.4,1,1
		s-2,7-2,7c-0.2,0.4-0.6,1-1,1H6V8h2.1c0.4-0.4,3.3-4.7,3.6-5.3C11.9,2.3,12.3,2,12.7,2z M2,8h2v9H2V8z"/>
</g>
</svg>
