<?xml version="1.0" encoding="utf-8"?>
<!-- Generator: Adobe Illustrator 24.3.0, SVG Export Plug-In . SVG Version: 6.00 Build 0)  -->
<svg version="1.1" id="レイヤー_1" xmlns="http://www.w3.org/2000/svg" xmlns:xlink="http://www.w3.org/1999/xlink" x="0px"
	 y="0px" viewBox="0 0 20 20" style="enable-background:new 0 0 20 20;" xml:space="preserve">
<style type="text/css">
	.st0{fill:none;}
	.st1{fill:#FFFFFF;}
</style>
<rect class="st0" width="20" height="20"/>
<g>
	<path class="st1" d="M12,4h3c0.6,0,1,0.4,1,1v1H3V5c0-0.6,0.5-1,1-1h3c0.2-1.1,1.3-2,2.5-2S11.8,2.9,12,4z M8,4h3
		c-0.2-0.6-0.9-1-1.5-1S8.2,3.4,8,4z M4,7h11l-0.9,10.1c0,0.5-0.5,0.9-1,0.9H5.9c-0.5,0-0.9-0.4-1-0.9L4,7z"/>
</g>
</svg>
