<?xml version="1.0" encoding="utf-8"?>
<!-- Generator: Adobe Illustrator 24.3.0, SVG Export Plug-In . SVG Version: 6.00 Build 0)  -->
<svg version="1.1" id="レイヤー_1" xmlns="http://www.w3.org/2000/svg" xmlns:xlink="http://www.w3.org/1999/xlink" x="0px"
	 y="0px" viewBox="0 0 20 20" style="enable-background:new 0 0 20 20;" xml:space="preserve">
<style type="text/css">
	.st0{fill:none;}
	.st1{fill:#FFFFFF;}
</style>
<rect class="st0" width="20" height="20"/>
<g>
	<path class="st1" d="M18.9,4.5c-0.5,0.7-1.1,1.4-1.8,1.9c0,0.2,0,0.3,0,0.5c0,4.9-3.7,10.4-10.4,10.4c-2.1,0-4-0.6-5.6-1.6
		c0.3,0,0.6,0.1,0.9,0.1c1.7,0,3.3-0.6,4.6-1.6c-1.6,0-3-1.1-3.4-2.6c0.2,0,0.5,0.1,0.7,0.1c0.3,0,0.7-0.1,1-0.1
		c-1.7-0.3-2.9-1.8-2.9-3.6v0c0.5,0.3,1.1,0.4,1.7,0.5c-1-0.7-1.6-1.8-1.6-3.1C1.8,4.6,2,4,2.3,3.4c1.8,2.2,4.5,3.7,7.6,3.8
		C9.8,7,9.8,6.7,9.8,6.4c0-2,1.6-3.7,3.7-3.7c1.1,0,2,0.4,2.7,1.2C17,3.7,17.7,3.4,18.5,3c-0.3,0.8-0.9,1.6-1.6,2
		C17.6,5,18.3,4.8,18.9,4.5z"/>
</g>
</svg>
