<?xml version="1.0" encoding="utf-8"?>
<!-- Generator: Adobe Illustrator 24.3.0, SVG Export Plug-In . SVG Version: 6.00 Build 0)  -->
<svg version="1.1" id="レイヤー_1" xmlns="http://www.w3.org/2000/svg" xmlns:xlink="http://www.w3.org/1999/xlink" x="0px"
	 y="0px" viewBox="0 0 20 20" style="enable-background:new 0 0 20 20;" xml:space="preserve">
<style type="text/css">
	.st0{fill:none;}
	.st1{fill:#FFFFFF;}
</style>
<rect class="st0" width="20" height="20"/>
<g>
	<path class="st1" d="M10,10L2.5,7L3,18H1L1.5,6.6L0,6l10-4l10,4L10,10z M10,5C9.4,5,9,5.2,9,5.5S9.4,6,10,6s1-0.2,1-0.5
		S10.6,5,10,5z M10,11l5.6-2.2c0.7,0.9,1.2,2.1,1.4,3.3C16.6,12,16.3,12,16,12c-2.6,0-4.8,1.4-6,3.4c-1.2-2-3.4-3.4-6-3.4
		c-0.3,0-0.6,0-0.9,0.1c0.2-1.2,0.6-2.4,1.4-3.3L10,11z"/>
</g>
</svg>
